<?xml version="1.0" encoding="UTF-8" standalone="no"?>
<!DOCTYPE svg PUBLIC "-//W3C//DTD SVG 1.1//EN" "http://www.w3.org/Graphics/SVG/1.1/DTD/svg11.dtd">
<svg xmlns="http://www.w3.org/2000/svg" version="1.1" viewBox="0.00 0.00 151.00 197.00">
<g stroke-width="2.00" fill="none" stroke-linecap="butt">
<path stroke="#59388c" vector-effect="non-scaling-stroke" d="
  M 10.26 112.97
  C 9.69 111.80 8.72 111.60 8.35 110.36
  Q 7.80 108.52 7.33 106.37"
/>
<path stroke="#25cf31" stroke-opacity="0.996" vector-effect="non-scaling-stroke" d="
  M 112.55 16.92
  L 115.07 24.22
  A 0.66 0.66 0.0 0 1 114.10 25.01
  Q 103.47 18.68 90.84 22.42
  A 0.29 0.27 -18.4 0 1 90.50 22.26
  L 90.39 21.96
  A 0.40 0.40 0.0 0 1 90.66 21.43
  C 94.66 20.41 98.68 19.47 102.63 18.38
  L 102.62 18.38
  Q 99.12 18.42 95.62 18.59
  Q 88.88 18.91 82.94 21.98"
/>
<path stroke="#55e859" stroke-opacity="0.996" vector-effect="non-scaling-stroke" d="
  M 82.94 21.98
  C 86.69 18.78 90.92 17.89 95.70 16.40
  A 1.35 1.35 0.0 0 0 96.09 14.01
  C 88.85 8.80 78.86 8.23 72.76 16.14"
/>
<path stroke="#25cf31" stroke-opacity="0.996" vector-effect="non-scaling-stroke" d="
  M 72.76 16.14
  C 70.01 13.76 68.59 17.17 67.22 18.66
  A 3.22 3.19 -63.1 0 1 64.27 19.64
  Q 57.78 18.41 52.32 15.15
  A 0.66 0.66 0.0 0 1 52.03 14.35
  C 53.93 8.89 57.30 5.46 62.06 1.99"
/>
<path stroke="#4eda5b" stroke-opacity="0.996" vector-effect="non-scaling-stroke" d="
  M 72.76 16.14
  Q 73.92 24.05 82.94 21.98"
/>
<path stroke="#18bd57" stroke-opacity="0.996" vector-effect="non-scaling-stroke" d="
  M 121.16 31.21
  L 118.44 30.21
  A 0.79 0.79 0.0 0 0 117.38 30.98
  L 117.52 34.41"
/>
<path stroke="#17ad32" stroke-opacity="0.996" vector-effect="non-scaling-stroke" d="
  M 117.52 34.41
  C 110.89 22.31 98.57 23.66 88.65 31.15
  A 2.83 2.80 -70.6 0 1 87.68 31.62
  C 81.00 33.47 77.78 33.25 70.70 31.42
  A 4.54 4.44 67.9 0 1 69.37 30.84
  C 67.10 29.35 64.44 27.06 61.90 25.67
  Q 52.97 20.80 42.39 21.02
  A 0.40 0.39 11.1 0 1 42.02 20.47
  L 46.78 9.50"
/>
<path stroke="#11a956" stroke-opacity="0.996" vector-effect="non-scaling-stroke" d="
  M 117.52 34.41
  C 115.65 41.62 112.87 46.78 106.06 49.10
  Q 106.00 49.12 106.05 49.10
  Q 106.17 49.03 106.38 48.91
  A 0.40 0.40 0.0 0 0 106.57 48.44
  Q 106.51 48.24 106.29 47.95"
/>
<path stroke="#0d4e1a" vector-effect="non-scaling-stroke" d="
  M 106.29 47.95
  L 111.25 43.51"
/>
<path stroke="#0b7a27" stroke-opacity="0.996" vector-effect="non-scaling-stroke" d="
  M 111.25 43.51
  C 114.19 42.26 114.82 36.74 115.30 34.17
  Q 115.69 32.05 114.41 30.30
  A 1.72 1.69 -4.3 0 0 113.77 29.76
  Q 94.22 19.97 88.54 40.89"
/>
<path stroke="#0d4e1a" vector-effect="non-scaling-stroke" d="
  M 88.54 40.89
  Q 88.58 42.72 86.54 46.48"
/>
<path stroke="#11a956" stroke-opacity="0.996" vector-effect="non-scaling-stroke" d="
  M 86.54 46.48
  Q 84.50 46.71 83.60 46.07
  Q 81.75 44.75 79.70 43.95"
/>
<path stroke="#0d7f42" stroke-opacity="0.996" vector-effect="non-scaling-stroke" d="
  M 79.70 43.95
  Q 78.90 44.93 77.35 44.76"
/>
<path stroke="#0b7a27" stroke-opacity="0.996" vector-effect="non-scaling-stroke" d="
  M 77.35 44.76
  C 72.51 42.68 70.81 39.12 68.11 35.33
  C 62.54 27.52 53.78 23.04 44.08 25.10
  Q 36.93 26.62 36.06 34.11"
/>
<path stroke="#0db550" stroke-opacity="0.996" vector-effect="non-scaling-stroke" d="
  M 36.06 34.11
  L 35.25 33.20"
/>
<path stroke="#139f5e" stroke-opacity="0.996" vector-effect="non-scaling-stroke" d="
  M 35.25 33.20
  Q 34.98 32.18 34.64 31.72
  A 0.78 0.78 0.0 0 0 33.28 31.91
  C 31.32 37.36 31.30 42.35 31.06 49.45"
/>
<path stroke="#0f743d" stroke-opacity="0.996" vector-effect="non-scaling-stroke" d="
  M 31.06 49.45
  Q 28.91 38.69 32.02 30.82
  Q 34.19 25.32 36.42 19.73"
/>
<path stroke="#137a6b" stroke-opacity="0.996" vector-effect="non-scaling-stroke" d="
  M 31.06 49.45
  Q 32.31 56.17 34.48 59.24
  C 36.16 61.62 38.22 64.27 38.89 67.02
  Q 40.11 72.07 38.38 77.56"
/>
<path stroke="#225074" stroke-opacity="0.996" vector-effect="non-scaling-stroke" d="
  M 38.38 77.56
  L 29.91 87.05"
/>
<path stroke="#233b54" stroke-opacity="0.996" vector-effect="non-scaling-stroke" d="
  M 29.91 87.05
  L 26.52 87.96"
/>
<path stroke="#1d4663" stroke-opacity="0.996" vector-effect="non-scaling-stroke" d="
  M 20.54 81.69
  C 21.58 77.87 25.21 74.76 27.61 71.77"
/>
<path stroke="#176172" stroke-opacity="0.996" vector-effect="non-scaling-stroke" d="
  M 27.61 71.77
  C 28.09 67.10 26.40 63.69 21.07 64.86"
/>
<path stroke="#118463" stroke-opacity="0.996" vector-effect="non-scaling-stroke" d="
  M 12.61 39.10
  Q 12.36 44.08 16.18 48.08
  Q 18.99 51.02 22.87 50.36
  C 24.63 50.07 26.12 48.63 25.04 46.86"
/>
<path stroke="#096039" stroke-opacity="0.996" vector-effect="non-scaling-stroke" d="
  M 77.35 44.76
  L 80.38 48.08"
/>
<path stroke="#054b28" vector-effect="non-scaling-stroke" d="
  M 80.38 48.08
  Q 75.32 46.60 72.24 46.66
  C 67.54 46.74 65.51 50.43 63.19 54.12"
/>
<path stroke="#0f8055" stroke-opacity="0.996" vector-effect="non-scaling-stroke" d="
  M 63.19 54.12
  Q 63.37 53.50 64.53 52.05
  Q 65.30 51.09 63.47 50.36"
/>
<path stroke="#089647" stroke-opacity="0.996" vector-effect="non-scaling-stroke" d="
  M 63.47 50.36
  Q 61.15 50.22 59.31 49.45"
/>
<path stroke="#092f11" vector-effect="non-scaling-stroke" d="
  M 59.31 49.45
  L 63.49 48.15
  A 1.31 1.31 0.0 0 0 64.36 46.54
  C 62.47 39.87 58.16 34.29 51.51 31.84
  C 47.19 30.24 42.23 30.94 38.50 33.29
  Q 37.27 34.06 37.24 35.77"
/>
<path stroke="#089647" stroke-opacity="0.996" vector-effect="non-scaling-stroke" d="
  M 37.24 35.77
  Q 36.20 34.91 36.06 34.11"
/>
<path stroke="#092f11" vector-effect="non-scaling-stroke" d="
  M 111.25 43.51
  Q 114.05 40.16 113.08 34.55
  A 2.75 2.74 -79.3 0 0 111.80 32.66
  Q 107.18 29.87 101.13 31.34
  Q 94.67 32.91 88.54 40.89"
/>
<path stroke="#1aa5a0" vector-effect="non-scaling-stroke" d="
  M 127.86 62.94
  Q 126.17 63.77 125.81 65.46
  Q 125.27 68.00 127.05 70.95"
/>
<path stroke="#268b98" stroke-opacity="0.996" vector-effect="non-scaling-stroke" d="
  M 127.05 70.95
  L 125.29 70.05"
/>
<path stroke="#147c74" stroke-opacity="0.996" vector-effect="non-scaling-stroke" d="
  M 125.29 70.05
  L 121.63 64.99
  A 2.43 2.42 81.7 0 0 120.49 64.14
  Q 117.54 63.08 115.22 64.75
  A 1.28 1.27 -22.4 0 0 114.70 65.98
  L 115.88 73.76"
/>
<path stroke="#1aa5a0" vector-effect="non-scaling-stroke" d="
  M 115.86 74.46
  L 110.98 70.77
  A 0.63 0.63 0.0 0 0 110.17 70.81
  Q 107.11 73.65 105.38 77.46"
/>
<path stroke="#25706c" stroke-opacity="0.996" vector-effect="non-scaling-stroke" d="
  M 105.38 77.46
  L 104.54 72.72
  A 0.08 0.08 0.0 0 0 104.38 72.72
  L 104.06 75.39"
/>
<path stroke="#0b7a56" vector-effect="non-scaling-stroke" d="
  M 104.06 75.39
  C 104.21 68.29 103.28 62.45 97.59 57.91
  Q 94.79 55.67 84.61 51.07"
/>
<path stroke="#0f8f67" stroke-opacity="0.996" vector-effect="non-scaling-stroke" d="
  M 84.61 51.07
  L 79.70 43.95"
/>
<path stroke="#0e5e40" vector-effect="non-scaling-stroke" d="
  M 86.54 46.48
  Q 91.00 49.21 95.82 49.89
  Q 101.15 50.65 106.29 47.95"
/>
<path stroke="#2ac492" stroke-opacity="0.996" vector-effect="non-scaling-stroke" d="
  M 115.58 47.98
  L 107.66 56.82
  A 1.33 1.33 0.0 0 0 107.32 57.71
  Q 107.32 59.36 108.72 60.62
  A 1.30 1.28 -39.9 0 0 110.27 60.75
  C 117.25 56.33 118.57 49.66 118.88 41.50"
/>
<path stroke="#6fdcb8" stroke-opacity="0.996" vector-effect="non-scaling-stroke" d="
  M 118.88 41.50
  Q 119.34 37.65 118.76 33.40
  A 0.34 0.34 0.0 0 0 118.09 33.42
  Q 117.77 36.56 117.97 40.00
  Q 118.11 42.44 115.58 47.98"
/>
<path stroke="#87e7cf" stroke-opacity="0.996" vector-effect="non-scaling-stroke" d="
  M 118.88 41.50
  Q 117.97 46.69 115.67 51.16
  Q 114.54 53.34 112.68 54.09
  A 0.72 0.72 0.0 0 1 111.94 52.87
  Q 114.39 50.77 115.58 47.98"
/>
<path stroke="#0b693a" vector-effect="non-scaling-stroke" d="
  M 59.31 49.45
  C 49.04 51.59 38.55 46.76 37.24 35.77"
/>
<path stroke="#24080f" vector-effect="non-scaling-stroke" d="
  M 42.50 39.23
  C 41.79 45.62 46.53 48.18 51.94 49.11
  A 0.42 0.42 0.0 0 0 52.41 48.54
  L 51.75 46.83
  A 0.44 0.43 85.9 0 1 52.25 46.25
  Q 55.56 47.00 57.56 46.02
  A 1.11 1.09 -5.9 0 0 58.12 45.34
  Q 58.55 43.89 57.05 42.53
  C 54.78 40.46 53.56 39.74 50.37 39.79
  Q 47.21 39.84 43.09 38.82
  A 0.48 0.48 0.0 0 0 42.50 39.23"
/>
<path stroke="#3a0916" vector-effect="non-scaling-stroke" d="
  M 109.36 38.86
  C 106.80 34.59 103.03 34.83 98.86 36.92
  Q 93.13 39.78 89.18 44.41
  A 1.55 1.54 -50.6 0 0 89.39 46.62
  C 92.07 48.75 97.45 48.61 100.95 48.28
  Q 105.35 47.87 108.79 43.83
  A 2.46 2.36 74.7 0 0 109.29 42.91
  Q 110.08 40.04 109.36 38.86"
/>
<path stroke="#11ba7e" stroke-opacity="0.996" vector-effect="non-scaling-stroke" d="
  M 35.25 33.20
  L 34.58 38.36"
/>
<path stroke="#4bcc88" stroke-opacity="0.996" vector-effect="non-scaling-stroke" d="
  M 34.58 38.36
  Q 33.24 38.96 34.10 41.74
  A 0.50 0.50 0.0 0 0 34.95 41.92
  Q 35.14 41.69 35.13 41.17"
/>
<path stroke="#11ba7e" stroke-opacity="0.996" vector-effect="non-scaling-stroke" d="
  M 35.13 41.17
  Q 37.52 46.59 39.88 49.12
  C 44.28 53.83 52.38 52.94 58.34 52.03"
/>
<path stroke="#72d1c0" stroke-opacity="0.996" vector-effect="non-scaling-stroke" d="
  M 58.34 52.03
  C 52.94 54.43 46.29 54.94 40.94 51.87
  A 0.50 0.49 85.8 0 0 40.31 52.61
  Q 41.53 54.18 43.72 55.25
  C 47.87 57.28 55.60 54.62 59.49 52.72
  A 0.32 0.32 0.0 0 0 59.45 52.12
  Q 59.01 51.97 58.34 52.03"
/>
<path stroke="#11ba7e" stroke-opacity="0.996" vector-effect="non-scaling-stroke" d="
  M 58.34 52.03
  L 63.47 50.36"
/>
<path stroke="#0d6f5f" vector-effect="non-scaling-stroke" d="
  M 63.19 54.12
  Q 58.69 56.58 55.01 60.26
  Q 52.42 62.85 52.59 66.83"
/>
<path stroke="#3085b3" stroke-opacity="0.996" vector-effect="non-scaling-stroke" d="
  M 55.25 89.58
  Q 52.42 88.66 49.64 89.04"
/>
<path stroke="#267a95" stroke-opacity="0.996" vector-effect="non-scaling-stroke" d="
  M 49.64 89.04
  C 47.34 85.66 44.59 83.96 41.86 81.48
  A 2.48 2.41 -80.1 0 1 41.22 80.54
  L 39.84 76.99
  A 0.38 0.38 0.0 0 0 39.23 76.84
  L 38.38 77.56"
/>
<path stroke="#44e27a" stroke-opacity="0.996" vector-effect="non-scaling-stroke" d="
  M 35.13 41.17
  Q 35.16 39.77 34.58 38.36"
/>
<path stroke="#af7f5a" stroke-opacity="0.996" vector-effect="non-scaling-stroke" d="
  M 93.41 44.22
  A 0.43 0.42 44.5 0 0 93.42 44.99
  Q 98.80 47.48 101.60 43.61
  A 1.16 1.11 -34.6 0 0 101.79 42.68
  Q 101.06 39.49 98.14 39.94
  A 2.04 1.90 18.6 0 0 97.21 40.36
  C 95.94 41.40 94.74 42.16 94.28 43.24
  Q 93.97 43.96 93.41 44.22"
/>
<path stroke="#4a3f23" stroke-opacity="0.996" vector-effect="non-scaling-stroke" d="
  M 56.94 44.95
  Q 56.66 42.25 53.81 40.61
  Q 51.03 39.02 49.67 41.88
  A 1.40 1.30 -38.9 0 0 49.55 42.72
  Q 50.06 45.61 53.21 46.05
  Q 55.71 46.39 56.50 45.88
  A 1.00 0.99 70.5 0 0 56.94 44.95"
/>
<path stroke="#074f42" vector-effect="non-scaling-stroke" d="
  M 84.61 51.07
  L 80.38 48.08"
/>
<path stroke="#1d3147" vector-effect="non-scaling-stroke" d="
  M 104.06 75.39
  Q 102.20 84.12 96.09 89.77"
/>
<path stroke="#118470" stroke-opacity="0.996" vector-effect="non-scaling-stroke" d="
  M 150.89 57.96
  L 146.71 58.12
  A 0.81 0.80 -6.3 0 1 145.89 57.47
  Q 145.35 54.89 145.69 52.45"
/>
<path stroke="#2d78bd" vector-effect="non-scaling-stroke" d="
  M 141.95 76.21
  Q 139.25 78.12 137.21 78.57
  A 1.70 1.70 0.0 0 1 135.75 78.21
  L 127.05 70.95"
/>
<path stroke="#25588a" stroke-opacity="0.996" vector-effect="non-scaling-stroke" d="
  M 27.61 71.77
  Q 21.94 76.73 15.75 79.80
  A 1.83 1.83 0.0 0 1 13.15 77.80
  L 14.73 69.95"
/>
<path stroke="#274e91" stroke-opacity="0.996" vector-effect="non-scaling-stroke" d="
  M 125.29 70.05
  L 133.17 78.13
  A 2.31 2.22 -83.6 0 1 133.53 78.60
  Q 135.73 82.28 138.05 85.96
  C 140.49 89.82 140.44 94.78 140.36 99.67
  A 2.59 2.55 -58.2 0 0 140.63 100.86
  L 146.94 113.10"
/>
<path stroke="#2c5c91" vector-effect="non-scaling-stroke" d="
  M 105.38 77.46
  Q 105.88 82.65 109.92 85.81
  Q 114.90 89.71 119.82 93.68"
/>
<path stroke="#563b95" stroke-opacity="0.996" vector-effect="non-scaling-stroke" d="
  M 119.82 93.68
  Q 123.03 99.29 128.14 103.12
  Q 131.50 105.64 132.21 106.98
  C 135.06 112.32 134.67 119.61 135.12 124.80
  A 0.81 0.79 -84.8 0 0 135.69 125.50
  L 138.49 126.29"
/>
<path stroke="#40469b" stroke-opacity="0.996" vector-effect="non-scaling-stroke" d="
  M 104.34 91.55
  L 102.62 87.49
  A 1.12 1.12 0.0 0 0 100.82 87.12
  Q 97.97 89.83 94.79 92.79
  Q 93.12 94.35 89.33 96.19"
/>
<path stroke="#4b71c8" vector-effect="non-scaling-stroke" d="
  M 122.86 86.20
  L 118.78 88.99
  A 0.65 0.65 0.0 0 0 118.52 89.73
  L 119.82 93.68"
/>
<path stroke="#3f5bbb" stroke-opacity="0.996" vector-effect="non-scaling-stroke" d="
  M 49.64 89.04
  L 50.11 102.09
  A 0.82 0.81 81.9 0 0 51.13 102.86
  C 57.58 101.16 63.75 100.76 67.14 107.76"
/>
<path stroke="#6351b7" stroke-opacity="0.996" vector-effect="non-scaling-stroke" d="
  M 67.14 107.76
  L 67.30 109.84"
/>
<path stroke="#5c47a6" stroke-opacity="0.996" vector-effect="non-scaling-stroke" d="
  M 67.30 109.84
  L 62.26 104.76"
/>
<path stroke="#4e3f96" stroke-opacity="0.996" vector-effect="non-scaling-stroke" d="
  M 62.26 104.76
  Q 60.83 102.94 58.39 102.46
  A 1.08 1.06 -56.6 0 0 57.56 102.64
  Q 52.20 106.46 48.17 111.57
  A 0.14 0.14 0.0 0 1 47.94 111.41
  L 51.12 105.90
  A 0.89 0.89 0.0 0 0 50.41 104.57
  Q 46.39 104.31 42.62 106.21
  A 0.19 0.19 0.0 0 1 42.37 105.94
  L 43.51 104.03"
/>
<path stroke="#363b7d" stroke-opacity="0.996" vector-effect="non-scaling-stroke" d="
  M 43.51 104.03
  C 46.41 99.47 50.22 93.08 46.33 88.26
  A 0.75 0.75 0.0 0 0 45.50 88.01
  C 39.35 90.11 32.87 92.32 29.19 98.22
  A 1.54 1.49 -85.4 0 1 28.51 98.82
  Q 26.11 99.91 23.94 97.86
  A 0.85 0.85 0.0 0 1 23.70 97.04
  C 25.08 91.68 26.83 90.36 29.91 87.05"
/>
<path stroke="#ac8be2" stroke-opacity="0.996" vector-effect="non-scaling-stroke" d="
  M 135.4582 122.1289
  A 2.93 0.66 91.6 0 0 136.1997 119.2184
  A 2.93 0.66 91.6 0 0 135.6218 116.2711
  A 2.93 0.66 91.6 0 0 134.8803 119.1816
  A 2.93 0.66 91.6 0 0 135.4582 122.1289"
/>
<path stroke="#4f2a76" stroke-opacity="0.996" vector-effect="non-scaling-stroke" d="
  M 43.51 104.03
  L 40.41 105.77"
/>
<path stroke="#5d3286" stroke-opacity="0.996" vector-effect="non-scaling-stroke" d="
  M 23.13 114.08
  Q 18.44 121.20 18.25 130.35
  Q 18.22 131.68 19.12 132.68
  Q 20.47 134.17 22.34 133.02"
/>
<path stroke="#6d5cd5" stroke-opacity="0.996" vector-effect="non-scaling-stroke" d="
  M 106.97 99.83
  C 104.67 98.61 102.37 95.91 102.37 93.14
  C 102.35 94.33 102.38 95.52 102.37 96.71
  A 0.21 0.21 0.0 0 1 102.16 96.92
  L 102.15 96.92
  A 0.27 0.26 89.0 0 1 101.88 96.65
  L 101.87 90.65
  A 0.25 0.25 0.0 0 0 101.37 90.59
  L 98.83 101.72"
/>
<path stroke="#4a43a6" stroke-opacity="0.996" vector-effect="non-scaling-stroke" d="
  M 98.83 101.72
  Q 94.81 101.03 91.06 102.31"
/>
<path stroke="#6652c4" stroke-opacity="0.996" vector-effect="non-scaling-stroke" d="
  M 91.06 102.31
  L 89.78 102.29"
/>
<path stroke="#9696e9" stroke-opacity="0.996" vector-effect="non-scaling-stroke" d="
  M 89.78 102.29
  Q 88.82 102.40 88.07 103.10"
/>
<path stroke="#6d5cd5" stroke-opacity="0.996" vector-effect="non-scaling-stroke" d="
  M 88.07 103.10
  Q 83.41 104.97 79.99 105.44
  Q 72.00 106.53 67.14 107.76"
/>
<path stroke="#4162c7" stroke-opacity="0.996" vector-effect="non-scaling-stroke" d="
  M 66.08 97.81
  Q 67.04 98.79 68.41 99.09
  Q 69.53 99.34 70.66 99.73
  Q 71.87 100.16 73.02 99.85"
/>
<path stroke="#6e39a1" stroke-opacity="0.996" vector-effect="non-scaling-stroke" d="
  M 119.09 124.73
  C 110.60 124.44 110.22 117.96 106.12 112.16
  Q 102.43 106.93 98.83 101.72"
/>
<path stroke="#672f90" stroke-opacity="0.996" vector-effect="non-scaling-stroke" d="
  M 92.32 108.93
  Q 90.89 105.69 91.06 102.31"
/>
<path stroke="#75369e" stroke-opacity="0.996" vector-effect="non-scaling-stroke" d="
  M 101.18 134.11
  Q 93.35 133.66 88.78 128.31
  C 84.30 123.07 84.73 113.14 76.13 113.01
  C 69.85 112.91 67.92 117.25 66.76 123.11
  Q 65.64 128.81 63.70 133.65
  A 1.81 1.81 0.0 0 1 60.33 133.61
  C 57.44 125.94 60.98 121.65 62.55 114.39
  Q 63.44 110.24 62.26 104.76"
/>
<path stroke="#8a48bf" stroke-opacity="0.996" vector-effect="non-scaling-stroke" d="
  M 67.30 109.84
  C 71.23 110.72 76.63 110.77 79.67 112.15
  C 83.31 113.81 85.44 117.93 87.04 121.54
  C 88.13 123.98 90.09 125.92 92.31 127.23
  A 0.75 0.75 0.0 0 0 93.42 126.40
  Q 91.70 119.78 88.82 113.56
  Q 87.62 110.97 88.27 104.47"
/>
<path stroke="#b382d3" stroke-opacity="0.996" vector-effect="non-scaling-stroke" d="
  M 88.27 104.47
  L 89.78 102.29"
/>
<path stroke="#52276d" vector-effect="non-scaling-stroke" d="
  M 100.60 181.79
  Q 97.62 180.27 96.87 177.81
  Q 95.45 173.15 97.00 167.52
  Q 101.01 152.90 95.55 140.05
  Q 93.97 136.34 92.15 134.97
  C 88.37 132.11 85.39 130.52 84.49 127.24
  C 82.81 121.10 82.36 117.68 77.95 114.28
  A 2.32 2.28 66.9 0 0 76.88 113.84
  Q 73.47 113.39 71.63 116.17
  A 1.41 1.37 -29.2 0 0 71.39 116.98
  L 71.57 125.60"
/>
<path stroke="#52276d" vector-effect="non-scaling-stroke" d="
  M 66.91 157.71
  Q 62.06 151.25 59.67 143.58
  Q 58.17 138.74 56.04 132.42
  C 54.26 127.11 55.61 123.53 58.12 118.43
  C 60.41 113.81 61.18 109.61 60.82 104.86
  A 1.60 1.60 0.0 0 0 58.05 103.88
  Q 55.00 107.15 52.81 111.81"
/>
<path stroke="#52276d" vector-effect="non-scaling-stroke" d="
  M 40.18 141.49
  Q 40.47 131.66 38.85 127.79
  C 37.05 123.50 35.36 119.73 34.23 115.17"
/>
<path stroke="#ba8ce4" stroke-opacity="0.996" vector-effect="non-scaling-stroke" d="
  M 88.27 104.47
  Q 85.65 107.15 85.93 111.14
  A 0.71 0.71 0.0 0 1 84.86 111.81
  L 79.66 108.81
  A 0.70 0.70 0.0 0 1 79.90 107.51
  Q 84.77 106.74 88.07 103.10"
/>
<path stroke="#602f7d" vector-effect="non-scaling-stroke" d="
  M 59.10 156.85
  Q 58.02 156.40 57.08 156.85
  A 0.73 0.72 -15.5 0 0 56.66 157.58
  Q 57.16 162.50 58.46 167.32
  C 60.67 175.49 54.65 187.43 64.05 193.29"
/>
<path stroke="#52276d" vector-effect="non-scaling-stroke" d="
  M 87.97 151.60
  L 83.24 144.76
  A 0.33 0.33 0.0 0 0 82.64 144.92
  Q 82.44 147.28 83.67 149.07
  A 1.26 0.99 24.3 0 1 83.81 149.34
  L 88.02 161.99"
/>
</g>
<path fill="#2bdd2e" fill-opacity="0.996" d="
  M 80.49 0.00
  Q 84.11 0.76 87.68 1.67
  Q 102.53 5.49 112.55 16.92
  L 115.07 24.22
  A 0.66 0.66 0.0 0 1 114.10 25.01
  Q 103.47 18.68 90.84 22.42
  A 0.29 0.27 -18.4 0 1 90.50 22.26
  L 90.39 21.96
  A 0.40 0.40 0.0 0 1 90.66 21.43
  C 94.66 20.41 98.68 19.47 102.63 18.38
  L 102.62 18.38
  Q 99.12 18.42 95.62 18.59
  Q 88.88 18.91 82.94 21.98
  C 86.69 18.78 90.92 17.89 95.70 16.40
  A 1.35 1.35 0.0 0 0 96.09 14.01
  C 88.85 8.80 78.86 8.23 72.76 16.14
  C 70.01 13.76 68.59 17.17 67.22 18.66
  A 3.22 3.19 -63.1 0 1 64.27 19.64
  Q 57.78 18.41 52.32 15.15
  A 0.66 0.66 0.0 0 1 52.03 14.35
  C 53.93 8.89 57.30 5.46 62.06 1.99
  L 71.49 0.00
  L 80.49 0.00
  Z"
/>
<path fill="#1ec133" fill-opacity="0.996" d="
  M 62.06 1.99
  C 57.30 5.46 53.93 8.89 52.03 14.35
  A 0.66 0.66 0.0 0 0 52.32 15.15
  Q 57.78 18.41 64.27 19.64
  A 3.22 3.19 -63.1 0 0 67.22 18.66
  C 68.59 17.17 70.01 13.76 72.76 16.14
  Q 73.92 24.05 82.94 21.98
  Q 88.88 18.91 95.62 18.59
  Q 99.12 18.42 102.62 18.38
  L 102.63 18.38
  C 98.68 19.47 94.66 20.41 90.66 21.43
  A 0.40 0.40 0.0 0 0 90.39 21.96
  L 90.50 22.26
  A 0.29 0.27 -18.4 0 0 90.84 22.42
  Q 103.47 18.68 114.10 25.01
  A 0.66 0.66 0.0 0 0 115.07 24.22
  L 112.55 16.92
  Q 118.21 23.28 121.16 31.21
  L 118.44 30.21
  A 0.79 0.79 0.0 0 0 117.38 30.98
  L 117.52 34.41
  C 110.89 22.31 98.57 23.66 88.65 31.15
  A 2.83 2.80 -70.6 0 1 87.68 31.62
  C 81.00 33.47 77.78 33.25 70.70 31.42
  A 4.54 4.44 67.9 0 1 69.37 30.84
  C 67.10 29.35 64.44 27.06 61.90 25.67
  Q 52.97 20.80 42.39 21.02
  A 0.40 0.39 11.1 0 1 42.02 20.47
  L 46.78 9.50
  Q 53.63 4.46 62.06 1.99
  Z"
/>
<path fill="#0f9930" fill-opacity="0.996" d="
  M 46.78 9.50
  L 42.02 20.47
  A 0.40 0.39 11.1 0 0 42.39 21.02
  Q 52.97 20.80 61.90 25.67
  C 64.44 27.06 67.10 29.35 69.37 30.84
  A 4.54 4.44 67.9 0 0 70.70 31.42
  C 77.78 33.25 81.00 33.47 87.68 31.62
  A 2.83 2.80 -70.6 0 0 88.65 31.15
  C 98.57 23.66 110.89 22.31 117.52 34.41
  C 115.65 41.62 112.87 46.78 106.06 49.10
  Q 106.00 49.12 106.05 49.10
  Q 106.17 49.03 106.38 48.91
  A 0.40 0.40 0.0 0 0 106.57 48.44
  Q 106.51 48.24 106.29 47.95
  L 111.25 43.51
  C 114.19 42.26 114.82 36.74 115.30 34.17
  Q 115.69 32.05 114.41 30.30
  A 1.72 1.69 -4.3 0 0 113.77 29.76
  Q 94.22 19.97 88.54 40.89
  Q 88.58 42.72 86.54 46.48
  Q 84.50 46.71 83.60 46.07
  Q 81.75 44.75 79.70 43.95
  Q 78.90 44.93 77.35 44.76
  C 72.51 42.68 70.81 39.12 68.11 35.33
  C 62.54 27.52 53.78 23.04 44.08 25.10
  Q 36.93 26.62 36.06 34.11
  L 35.25 33.20
  Q 34.98 32.18 34.64 31.72
  A 0.78 0.78 0.0 0 0 33.28 31.91
  C 31.32 37.36 31.30 42.35 31.06 49.45
  Q 28.91 38.69 32.02 30.82
  Q 34.19 25.32 36.42 19.73
  Q 40.65 13.79 46.78 9.50
  Z"
/>
<path fill="#7ef383" fill-opacity="0.996" d="
  M 82.94 21.98
  Q 73.92 24.05 72.76 16.14
  C 78.86 8.23 88.85 8.80 96.09 14.01
  A 1.35 1.35 0.0 0 1 95.70 16.40
  C 90.92 17.89 86.69 18.78 82.94 21.98
  Z"
/>
<path fill="#0f4f4a" fill-opacity="0.996" d="
  M 36.42 19.73
  Q 34.19 25.32 32.02 30.82
  Q 28.91 38.69 31.06 49.45
  Q 32.31 56.17 34.48 59.24
  C 36.16 61.62 38.22 64.27 38.89 67.02
  Q 40.11 72.07 38.38 77.56
  L 29.91 87.05
  L 26.52 87.96
  Q 30.40 84.45 33.12 80.16
  C 35.15 76.97 36.25 72.25 33.44 69.32
  A 0.55 0.55 0.0 0 0 32.63 69.35
  Q 27.07 76.03 20.54 81.69
  C 21.58 77.87 25.21 74.76 27.61 71.77
  C 28.09 67.10 26.40 63.69 21.07 64.86
  Q 25.46 60.86 27.28 54.61
  A 1.22 1.22 0.0 0 0 26.07 53.05
  C 20.10 53.24 14.93 52.39 12.03 46.47
  Q 9.63 41.57 12.61 39.10
  Q 12.36 44.08 16.18 48.08
  Q 18.99 51.02 22.87 50.36
  C 24.63 50.07 26.12 48.63 25.04 46.86
  L 26.51 45.87
  A 1.02 1.01 74.7 0 0 26.95 45.09
  Q 27.97 31.01 36.42 19.73
  Z"
/>
<path fill="#065b1e" fill-opacity="0.996" d="
  M 77.35 44.76
  L 80.38 48.08
  Q 75.32 46.60 72.24 46.66
  C 67.54 46.74 65.51 50.43 63.19 54.12
  Q 63.37 53.50 64.53 52.05
  Q 65.30 51.09 63.47 50.36
  Q 61.15 50.22 59.31 49.45
  L 63.49 48.15
  A 1.31 1.31 0.0 0 0 64.36 46.54
  C 62.47 39.87 58.16 34.29 51.51 31.84
  C 47.19 30.24 42.23 30.94 38.50 33.29
  Q 37.27 34.06 37.24 35.77
  Q 36.20 34.91 36.06 34.11
  Q 36.93 26.62 44.08 25.10
  C 53.78 23.04 62.54 27.52 68.11 35.33
  C 70.81 39.12 72.51 42.68 77.35 44.76
  Z"
/>
<path fill="#065b1e" fill-opacity="0.996" d="
  M 111.25 43.51
  Q 114.05 40.16 113.08 34.55
  A 2.75 2.74 -79.3 0 0 111.80 32.66
  Q 107.18 29.87 101.13 31.34
  Q 94.67 32.91 88.54 40.89
  Q 94.22 19.97 113.77 29.76
  A 1.72 1.69 -4.3 0 1 114.41 30.30
  Q 115.69 32.05 115.30 34.17
  C 114.82 36.74 114.19 42.26 111.25 43.51
  Z"
/>
<path fill="#12b97b" fill-opacity="0.996" d="
  M 121.16 31.21
  Q 123.83 38.01 124.04 45.34
  A 0.87 0.86 -80.9 0 0 124.60 46.12
  L 128.64 47.63
  A 2.40 2.39 12.3 0 0 131.87 45.57
  L 132.16 41.57
  A 1.53 1.26 -39.3 0 1 132.24 41.17
  C 132.98 39.11 135.80 37.02 138.04 38.73
  Q 140.67 40.73 139.87 43.98
  Q 138.19 50.85 130.76 52.81
  A 2.92 2.83 -51.7 0 1 130.01 52.91
  L 124.94 52.91
  A 1.20 1.20 0.0 0 0 123.79 54.44
  Q 125.20 59.31 127.86 62.94
  Q 126.17 63.77 125.81 65.46
  Q 125.27 68.00 127.05 70.95
  L 125.29 70.05
  L 121.63 64.99
  A 2.43 2.42 81.7 0 0 120.49 64.14
  Q 117.54 63.08 115.22 64.75
  A 1.28 1.27 -22.4 0 0 114.70 65.98
  L 115.88 73.76
  L 115.86 74.46
  L 110.98 70.77
  A 0.63 0.63 0.0 0 0 110.17 70.81
  Q 107.11 73.65 105.38 77.46
  L 104.54 72.72
  A 0.08 0.08 0.0 0 0 104.38 72.72
  L 104.06 75.39
  C 104.21 68.29 103.28 62.45 97.59 57.91
  Q 94.79 55.67 84.61 51.07
  L 79.70 43.95
  Q 81.75 44.75 83.60 46.07
  Q 84.50 46.71 86.54 46.48
  Q 91.00 49.21 95.82 49.89
  Q 101.15 50.65 106.29 47.95
  Q 106.51 48.24 106.57 48.44
  A 0.40 0.40 0.0 0 1 106.38 48.91
  Q 106.17 49.03 106.05 49.10
  Q 106.00 49.12 106.06 49.10
  C 112.87 46.78 115.65 41.62 117.52 34.41
  L 117.38 30.98
  A 0.79 0.79 0.0 0 1 118.44 30.21
  L 121.16 31.21
  Z
  M 115.58 47.98
  L 107.66 56.82
  A 1.33 1.33 0.0 0 0 107.32 57.71
  Q 107.32 59.36 108.72 60.62
  A 1.30 1.28 -39.9 0 0 110.27 60.75
  C 117.25 56.33 118.57 49.66 118.88 41.50
  Q 119.34 37.65 118.76 33.40
  A 0.34 0.34 0.0 0 0 118.09 33.42
  Q 117.77 36.56 117.97 40.00
  Q 118.11 42.44 115.58 47.98
  Z"
/>
<path fill="#0b0305" d="
  M 59.31 49.45
  C 49.04 51.59 38.55 46.76 37.24 35.77
  Q 37.27 34.06 38.50 33.29
  C 42.23 30.94 47.19 30.24 51.51 31.84
  C 58.16 34.29 62.47 39.87 64.36 46.54
  A 1.31 1.31 0.0 0 1 63.49 48.15
  L 59.31 49.45
  Z
  M 42.50 39.23
  C 41.79 45.62 46.53 48.18 51.94 49.11
  A 0.42 0.42 0.0 0 0 52.41 48.54
  L 51.75 46.83
  A 0.44 0.43 85.9 0 1 52.25 46.25
  Q 55.56 47.00 57.56 46.02
  A 1.11 1.09 -5.9 0 0 58.12 45.34
  Q 58.55 43.89 57.05 42.53
  C 54.78 40.46 53.56 39.74 50.37 39.79
  Q 47.21 39.84 43.09 38.82
  A 0.48 0.48 0.0 0 0 42.50 39.23
  Z"
/>
<path fill="#0b0305" d="
  M 111.25 43.51
  L 106.29 47.95
  Q 101.15 50.65 95.82 49.89
  Q 91.00 49.21 86.54 46.48
  Q 88.58 42.72 88.54 40.89
  Q 94.67 32.91 101.13 31.34
  Q 107.18 29.87 111.80 32.66
  A 2.75 2.74 -79.3 0 1 113.08 34.55
  Q 114.05 40.16 111.25 43.51
  Z
  M 109.36 38.86
  C 106.80 34.59 103.03 34.83 98.86 36.92
  Q 93.13 39.78 89.18 44.41
  A 1.55 1.54 -50.6 0 0 89.39 46.62
  C 92.07 48.75 97.45 48.61 100.95 48.28
  Q 105.35 47.87 108.79 43.83
  A 2.46 2.36 74.7 0 0 109.29 42.91
  Q 110.08 40.04 109.36 38.86
  Z"
/>
<path fill="#17a48c" fill-opacity="0.996" d="
  M 35.25 33.20
  L 34.58 38.36
  Q 33.24 38.96 34.10 41.74
  A 0.50 0.50 0.0 0 0 34.95 41.92
  Q 35.14 41.69 35.13 41.17
  Q 37.52 46.59 39.88 49.12
  C 44.28 53.83 52.38 52.94 58.34 52.03
  C 52.94 54.43 46.29 54.94 40.94 51.87
  A 0.50 0.49 85.8 0 0 40.31 52.61
  Q 41.53 54.18 43.72 55.25
  C 47.87 57.28 55.60 54.62 59.49 52.72
  A 0.32 0.32 0.0 0 0 59.45 52.12
  Q 59.01 51.97 58.34 52.03
  L 63.47 50.36
  Q 65.30 51.09 64.53 52.05
  Q 63.37 53.50 63.19 54.12
  Q 58.69 56.58 55.01 60.26
  Q 52.42 62.85 52.59 66.83
  C 49.21 74.21 50.70 83.16 55.25 89.58
  Q 52.42 88.66 49.64 89.04
  C 47.34 85.66 44.59 83.96 41.86 81.48
  A 2.48 2.41 -80.1 0 1 41.22 80.54
  L 39.84 76.99
  A 0.38 0.38 0.0 0 0 39.23 76.84
  L 38.38 77.56
  Q 40.11 72.07 38.89 67.02
  C 38.22 64.27 36.16 61.62 34.48 59.24
  Q 32.31 56.17 31.06 49.45
  C 31.30 42.35 31.32 37.36 33.28 31.91
  A 0.78 0.78 0.0 0 1 34.64 31.72
  Q 34.98 32.18 35.25 33.20
  Z"
/>
<path fill="#ccfef4" fill-opacity="0.996" d="
  M 118.88 41.50
  Q 117.97 46.69 115.67 51.16
  Q 114.54 53.34 112.68 54.09
  A 0.72 0.72 0.0 0 1 111.94 52.87
  Q 114.39 50.77 115.58 47.98
  Q 118.11 42.44 117.97 40.00
  Q 117.77 36.56 118.09 33.42
  A 0.34 0.34 0.0 0 1 118.76 33.40
  Q 119.34 37.65 118.88 41.50
  Z"
/>
<path fill="#0ad070" fill-opacity="0.996" d="
  M 36.06 34.11
  Q 36.20 34.91 37.24 35.77
  C 38.55 46.76 49.04 51.59 59.31 49.45
  Q 61.15 50.22 63.47 50.36
  L 58.34 52.03
  C 52.38 52.94 44.28 53.83 39.88 49.12
  Q 37.52 46.59 35.13 41.17
  Q 35.16 39.77 34.58 38.36
  L 35.25 33.20
  L 36.06 34.11
  Z"
/>
<path fill="#690f28" fill-opacity="0.996" d="
  M 109.36 38.86
  Q 110.08 40.04 109.29 42.91
  A 2.46 2.36 74.7 0 1 108.79 43.83
  Q 105.35 47.87 100.95 48.28
  C 97.45 48.61 92.07 48.75 89.39 46.62
  A 1.55 1.54 -50.6 0 1 89.18 44.41
  Q 93.13 39.78 98.86 36.92
  C 103.03 34.83 106.80 34.59 109.36 38.86
  Z
  M 93.41 44.22
  A 0.43 0.42 44.5 0 0 93.42 44.99
  Q 98.80 47.48 101.60 43.61
  A 1.16 1.11 -34.6 0 0 101.79 42.68
  Q 101.06 39.49 98.14 39.94
  A 2.04 1.90 18.6 0 0 97.21 40.36
  C 95.94 41.40 94.74 42.16 94.28 43.24
  Q 93.97 43.96 93.41 44.22
  Z"
/>
<path fill="#12b97b" fill-opacity="0.996" d="
  M 25.04 46.86
  C 26.12 48.63 24.63 50.07 22.87 50.36
  Q 18.99 51.02 16.18 48.08
  Q 12.36 44.08 12.61 39.10
  C 15.20 37.08 17.10 38.28 18.77 40.49
  A 1.16 1.16 0.0 0 1 19.00 41.12
  L 19.20 45.41
  A 1.07 0.99 -64.6 0 0 19.37 45.95
  Q 20.22 47.24 21.53 47.74
  A 1.17 1.15 -48.0 0 0 22.51 47.68
  Q 23.64 47.09 25.04 46.86
  Z"
/>
<path fill="#7ef383" fill-opacity="0.996" d="
  M 34.58 38.36
  Q 35.16 39.77 35.13 41.17
  Q 35.14 41.69 34.95 41.92
  A 0.50 0.50 0.0 0 1 34.10 41.74
  Q 33.24 38.96 34.58 38.36
  Z"
/>
<path fill="#3e0e1a" fill-opacity="0.996" d="
  M 43.09 38.82
  Q 47.21 39.84 50.37 39.79
  C 53.56 39.74 54.78 40.46 57.05 42.53
  Q 58.55 43.89 58.12 45.34
  A 1.11 1.09 -5.9 0 1 57.56 46.02
  Q 55.56 47.00 52.25 46.25
  A 0.44 0.43 85.9 0 0 51.75 46.83
  L 52.41 48.54
  A 0.42 0.42 0.0 0 1 51.94 49.11
  C 46.53 48.18 41.79 45.62 42.50 39.23
  A 0.48 0.48 0.0 0 1 43.09 38.82
  Z
  M 56.94 44.95
  Q 56.66 42.25 53.81 40.61
  Q 51.03 39.02 49.67 41.88
  A 1.40 1.30 -38.9 0 0 49.55 42.72
  Q 50.06 45.61 53.21 46.05
  Q 55.71 46.39 56.50 45.88
  A 1.00 0.99 70.5 0 0 56.94 44.95
  Z"
/>
<path fill="#566f2c" fill-opacity="0.996" d="
  M 56.50 45.88
  Q 55.71 46.39 53.21 46.05
  Q 50.06 45.61 49.55 42.72
  A 1.40 1.30 -38.9 0 1 49.67 41.88
  Q 51.03 39.02 53.81 40.61
  Q 56.66 42.25 56.94 44.95
  A 1.00 0.99 70.5 0 1 56.50 45.88
  Z"
/>
<path fill="#f5ef8c" fill-opacity="0.996" d="
  M 93.41 44.22
  Q 93.97 43.96 94.28 43.24
  C 94.74 42.16 95.94 41.40 97.21 40.36
  A 2.04 1.90 18.6 0 1 98.14 39.94
  Q 101.06 39.49 101.79 42.68
  A 1.16 1.11 -34.6 0 1 101.60 43.61
  Q 98.80 47.48 93.42 44.99
  A 0.43 0.42 44.5 0 1 93.41 44.22
  Z"
/>
<path fill="#41cfa9" fill-opacity="0.996" d="
  M 118.88 41.50
  C 118.57 49.66 117.25 56.33 110.27 60.75
  A 1.30 1.28 -39.9 0 1 108.72 60.62
  Q 107.32 59.36 107.32 57.71
  A 1.33 1.33 0.0 0 1 107.66 56.82
  L 115.58 47.98
  Q 114.39 50.77 111.94 52.87
  A 0.72 0.72 0.0 0 0 112.68 54.09
  Q 114.54 53.34 115.67 51.16
  Q 117.97 46.69 118.88 41.50
  Z"
/>
<path fill="#0b6453" fill-opacity="0.996" d="
  M 79.70 43.95
  L 84.61 51.07
  L 80.38 48.08
  L 77.35 44.76
  Q 78.90 44.93 79.70 43.95
  Z"
/>
<path fill="#043b32" d="
  M 80.38 48.08
  L 84.61 51.07
  Q 94.79 55.67 97.59 57.91
  C 103.28 62.45 104.21 68.29 104.06 75.39
  Q 102.20 84.12 96.09 89.77
  Q 103.83 78.06 97.93 65.37
  A 1.12 1.11 -27.4 0 0 96.36 64.88
  L 91.82 67.50
  A 0.81 0.80 78.2 0 1 90.62 66.71
  L 91.34 59.70
  A 2.07 2.06 -71.9 0 0 90.33 57.70
  L 85.95 55.17
  A 1.05 1.05 0.0 0 0 84.45 55.71
  L 82.73 60.29
  A 1.45 1.45 0.0 0 1 79.99 60.25
  Q 78.74 56.57 79.05 54.24
  A 1.14 1.14 0.0 0 0 77.92 52.95
  L 73.67 52.95
  A 1.56 1.56 0.0 0 0 72.11 54.51
  C 72.10 56.47 72.11 61.19 69.36 61.12
  A 0.84 0.83 -9.8 0 1 68.59 60.58
  L 66.72 55.76
  A 0.97 0.97 0.0 0 0 65.33 55.27
  L 60.22 58.22
  A 1.09 1.08 -19.3 0 0 59.69 59.32
  L 60.69 66.50
  A 0.96 0.96 0.0 0 1 59.26 67.47
  L 54.51 64.72
  A 0.64 0.63 36.0 0 0 53.73 64.84
  Q 52.95 65.68 52.59 66.83
  Q 52.42 62.85 55.01 60.26
  Q 58.69 56.58 63.19 54.12
  C 65.51 50.43 67.54 46.74 72.24 46.66
  Q 75.32 46.60 80.38 48.08
  Z"
/>
<path fill="#ccfef4" fill-opacity="0.996" d="
  M 58.34 52.03
  Q 59.01 51.97 59.45 52.12
  A 0.32 0.32 0.0 0 1 59.49 52.72
  C 55.60 54.62 47.87 57.28 43.72 55.25
  Q 41.53 54.18 40.31 52.61
  A 0.50 0.49 85.8 0 1 40.94 51.87
  C 46.29 54.94 52.94 54.43 58.34 52.03
  Z"
/>
<path fill="#17a48c" fill-opacity="0.996" d="
  M 0.00 57.99
  L 0.00 55.92
  Q 1.49 53.33 4.00 52.33
  A 1.83 1.80 39.2 0 1 4.97 52.24
  C 14.75 54.12 5.82 68.68 0.00 57.99
  Z"
/>
<path fill="#17a48c" fill-opacity="0.996" d="
  M 151.00 55.85
  L 151.00 57.98
  Q 150.94 57.97 150.89 57.96
  L 146.71 58.12
  A 0.81 0.80 -6.3 0 1 145.89 57.47
  Q 145.35 54.89 145.69 52.45
  Q 148.59 51.90 151.00 55.85
  Z"
/>
<path fill="#0b6453" fill-opacity="0.996" d="
  M 145.69 52.45
  Q 145.35 54.89 145.89 57.47
  A 0.81 0.80 -6.3 0 0 146.71 58.12
  L 150.89 57.96
  C 149.42 63.25 142.36 63.32 141.93 57.36
  Q 141.63 53.34 145.69 52.45
  Z"
/>
<path fill="#2292c5" d="
  M 127.86 62.94
  Q 136.04 68.92 141.95 76.21
  Q 139.25 78.12 137.21 78.57
  A 1.70 1.70 0.0 0 1 135.75 78.21
  L 127.05 70.95
  Q 125.27 68.00 125.81 65.46
  Q 126.17 63.77 127.86 62.94
  Z"
/>
<path fill="#1f7299" fill-opacity="0.996" d="
  M 27.61 71.77
  Q 21.94 76.73 15.75 79.80
  A 1.83 1.83 0.0 0 1 13.15 77.80
  L 14.73 69.95
  L 21.07 64.86
  C 26.40 63.69 28.09 67.10 27.61 71.77
  Z"
/>
<path fill="#153f6d" fill-opacity="0.996" d="
  M 125.29 70.05
  L 133.17 78.13
  A 2.31 2.22 -83.6 0 1 133.53 78.60
  Q 135.73 82.28 138.05 85.96
  C 140.49 89.82 140.44 94.78 140.36 99.67
  A 2.59 2.55 -58.2 0 0 140.63 100.86
  L 146.94 113.10
  Q 147.09 114.83 145.16 115.77
  A 1.00 0.98 -43.1 0 1 144.26 115.75
  Q 142.85 114.98 142.71 113.26
  Q 142.37 109.01 142.16 107.74
  A 9.30 8.41 -64.8 0 0 141.72 106.29
  L 139.47 100.71
  A 4.17 4.00 -58.6 0 1 139.20 99.48
  Q 138.81 91.54 134.99 86.92
  C 130.07 80.97 123.23 75.97 118.48 69.09
  A 0.40 0.39 -40.0 0 0 117.87 69.04
  Q 115.97 71.09 115.88 73.76
  L 114.70 65.98
  A 1.28 1.27 -22.4 0 1 115.22 64.75
  Q 117.54 63.08 120.49 64.14
  A 2.43 2.42 81.7 0 1 121.63 64.99
  L 125.29 70.05
  Z"
/>
<path fill="#37265d" fill-opacity="0.996" d="
  M 105.38 77.46
  Q 105.88 82.65 109.92 85.81
  Q 114.90 89.71 119.82 93.68
  Q 123.03 99.29 128.14 103.12
  Q 131.50 105.64 132.21 106.98
  C 135.06 112.32 134.67 119.61 135.12 124.80
  A 0.81 0.79 -84.8 0 0 135.69 125.50
  L 138.49 126.29
  Q 139.01 129.90 137.63 132.18
  C 136.06 134.75 132.60 133.79 132.02 131.09
  C 130.88 125.84 133.86 120.63 132.63 115.59
  Q 131.52 111.05 128.92 107.31
  A 0.58 0.58 0.0 0 0 127.91 107.42
  C 126.83 110.03 127.19 112.33 125.27 114.88
  A 0.53 0.53 0.0 0 1 124.47 114.94
  Q 123.32 113.80 123.29 112.48
  C 122.99 102.18 114.56 94.68 106.07 90.53
  A 0.79 0.79 0.0 0 0 105.14 90.70
  L 104.34 91.55
  L 102.62 87.49
  A 1.12 1.12 0.0 0 0 100.82 87.12
  Q 97.97 89.83 94.79 92.79
  Q 93.12 94.35 89.33 96.19
  L 90.48 95.11
  A 3.19 2.33 -2.5 0 1 90.83 94.83
  Q 93.95 92.80 96.09 89.77
  Q 102.20 84.12 104.06 75.39
  L 104.38 72.72
  A 0.08 0.08 0.0 0 1 104.54 72.72
  L 105.38 77.46
  Z"
/>
<path fill="#2a3d7b" fill-opacity="0.996" d="
  M 14.73 69.95
  L 13.15 77.80
  A 1.83 1.83 0.0 0 0 15.75 79.80
  Q 21.94 76.73 27.61 71.77
  C 25.21 74.76 21.58 77.87 20.54 81.69
  Q 13.42 88.28 11.71 97.77
  Q 11.57 98.55 11.02 98.83
  A 1.44 1.29 64.0 0 1 9.20 98.09
  Q 8.39 96.34 8.26 94.01
  C 7.69 83.63 6.63 76.15 14.73 69.95
  Z"
/>
<path fill="#395db4" fill-opacity="0.996" d="
  M 127.05 70.95
  L 135.75 78.21
  A 1.70 1.70 0.0 0 0 137.21 78.57
  Q 139.25 78.12 141.95 76.21
  Q 143.01 80.27 143.05 81.75
  Q 143.24 88.61 143.07 97.16
  A 7.28 7.21 31.2 0 0 143.99 100.84
  Q 145.73 103.97 146.60 105.61
  Q 148.14 108.53 146.94 113.10
  L 140.63 100.86
  A 2.59 2.55 -58.2 0 1 140.36 99.67
  C 140.44 94.78 140.49 89.82 138.05 85.96
  Q 135.73 82.28 133.53 78.60
  A 2.31 2.22 -83.6 0 0 133.17 78.13
  L 125.29 70.05
  L 127.05 70.95
  Z"
/>
<path fill="#2292c5" d="
  M 115.86 74.46
  C 116.30 78.96 119.77 83.09 122.86 86.20
  L 118.78 88.99
  A 0.65 0.65 0.0 0 0 118.52 89.73
  L 119.82 93.68
  Q 114.90 89.71 109.92 85.81
  Q 105.88 82.65 105.38 77.46
  Q 107.11 73.65 110.17 70.81
  A 0.63 0.63 0.0 0 1 110.98 70.77
  L 115.86 74.46
  Z"
/>
<path fill="#35509d" fill-opacity="0.996" d="
  M 49.64 89.04
  L 50.11 102.09
  A 0.82 0.81 81.9 0 0 51.13 102.86
  C 57.58 101.16 63.75 100.76 67.14 107.76
  L 67.30 109.84
  L 62.26 104.76
  Q 60.83 102.94 58.39 102.46
  A 1.08 1.06 -56.6 0 0 57.56 102.64
  Q 52.20 106.46 48.17 111.57
  A 0.14 0.14 0.0 0 1 47.94 111.41
  L 51.12 105.90
  A 0.89 0.89 0.0 0 0 50.41 104.57
  Q 46.39 104.31 42.62 106.21
  A 0.19 0.19 0.0 0 1 42.37 105.94
  L 43.51 104.03
  C 46.41 99.47 50.22 93.08 46.33 88.26
  A 0.75 0.75 0.0 0 0 45.50 88.01
  C 39.35 90.11 32.87 92.32 29.19 98.22
  A 1.54 1.49 -85.4 0 1 28.51 98.82
  Q 26.11 99.91 23.94 97.86
  A 0.85 0.85 0.0 0 1 23.70 97.04
  C 25.08 91.68 26.83 90.36 29.91 87.05
  L 38.38 77.56
  L 39.23 76.84
  A 0.38 0.38 0.0 0 1 39.84 76.99
  L 41.22 80.54
  A 2.48 2.41 -80.1 0 0 41.86 81.48
  C 44.59 83.96 47.34 85.66 49.64 89.04
  Z"
/>
<path fill="#7450cc" fill-opacity="0.996" d="
  M 138.49 126.29
  L 135.69 125.50
  A 0.81 0.79 -84.8 0 1 135.12 124.80
  C 134.67 119.61 135.06 112.32 132.21 106.98
  Q 131.50 105.64 128.14 103.12
  Q 123.03 99.29 119.82 93.68
  L 118.52 89.73
  A 0.65 0.65 0.0 0 1 118.78 88.99
  L 122.86 86.20
  C 127.71 90.75 131.71 94.77 133.13 100.80
  Q 134.78 107.83 136.66 114.80
  Q 137.41 117.61 138.49 126.29
  Z
  M 135.4582 122.1289
  A 2.93 0.66 91.6 0 0 136.1997 119.2184
  A 2.93 0.66 91.6 0 0 135.6218 116.2711
  A 2.93 0.66 91.6 0 0 134.8803 119.1816
  A 2.93 0.66 91.6 0 0 135.4582 122.1289
  Z"
/>
<path fill="#37265d" fill-opacity="0.996" d="
  M 43.51 104.03
  L 40.41 105.77
  C 43.73 101.06 45.94 97.00 46.44 91.64
  A 1.10 1.10 0.0 0 0 44.86 90.55
  Q 37.85 93.95 32.90 99.62
  C 31.05 101.73 30.18 104.33 29.08 106.53
  C 28.11 108.49 25.95 108.30 24.64 106.75
  Q 24.22 106.24 23.58 105.66
  A 0.32 0.32 0.0 0 0 23.04 105.90
  L 23.13 114.08
  Q 18.44 121.20 18.25 130.35
  Q 18.22 131.68 19.12 132.68
  Q 20.47 134.17 22.34 133.02
  Q 23.91 136.44 21.50 139.25
  C 19.81 141.23 16.71 139.83 16.25 137.50
  Q 15.69 134.66 16.11 128.75
  A 5.22 5.21 55.2 0 1 16.30 127.69
  Q 17.13 124.70 18.12 121.56
  C 19.46 117.35 19.46 113.90 18.63 109.74
  C 17.59 104.49 17.53 99.43 20.02 95.31
  Q 21.89 92.23 26.52 87.96
  L 29.91 87.05
  C 26.83 90.36 25.08 91.68 23.70 97.04
  A 0.85 0.85 0.0 0 0 23.94 97.86
  Q 26.11 99.91 28.51 98.82
  A 1.54 1.49 -85.4 0 0 29.19 98.22
  C 32.87 92.32 39.35 90.11 45.50 88.01
  A 0.75 0.75 0.0 0 1 46.33 88.26
  C 50.22 93.08 46.41 99.47 43.51 104.03
  Z"
/>
<path fill="#4966d9" fill-opacity="0.996" d="
  M 104.34 91.55
  Q 104.58 95.50 106.97 99.83
  C 104.67 98.61 102.37 95.91 102.37 93.14
  C 102.35 94.33 102.38 95.52 102.37 96.71
  A 0.21 0.21 0.0 0 1 102.16 96.92
  L 102.15 96.92
  A 0.27 0.26 89.0 0 1 101.88 96.65
  L 101.87 90.65
  A 0.25 0.25 0.0 0 0 101.37 90.59
  L 98.83 101.72
  Q 94.81 101.03 91.06 102.31
  L 89.78 102.29
  Q 88.82 102.40 88.07 103.10
  Q 83.41 104.97 79.99 105.44
  Q 72.00 106.53 67.14 107.76
  C 63.75 100.76 57.58 101.16 51.13 102.86
  A 0.82 0.81 81.9 0 1 50.11 102.09
  L 49.64 89.04
  Q 52.42 88.66 55.25 89.58
  Q 59.53 95.27 66.08 97.81
  Q 67.04 98.79 68.41 99.09
  Q 69.53 99.34 70.66 99.73
  Q 71.87 100.16 73.02 99.85
  L 80.98 99.74
  A 1.26 1.26 0.0 0 0 82.23 98.53
  L 82.37 94.79
  A 0.84 0.82 68.8 0 1 82.61 94.23
  Q 83.23 93.59 83.13 92.61
  A 1.61 1.50 -65.4 0 1 85.93 91.45
  Q 87.71 94.36 89.33 96.19
  Q 93.12 94.35 94.79 92.79
  Q 97.97 89.83 100.82 87.12
  A 1.12 1.12 0.0 0 1 102.62 87.49
  L 104.34 91.55
  Z"
/>
<path fill="#9152d0" fill-opacity="0.996" d="
  M 106.97 99.83
  Q 110.66 105.29 114.49 110.78
  Q 118.94 117.18 119.09 124.73
  C 110.60 124.44 110.22 117.96 106.12 112.16
  Q 102.43 106.93 98.83 101.72
  L 101.37 90.59
  A 0.25 0.25 0.0 0 1 101.87 90.65
  L 101.88 96.65
  A 0.27 0.26 89.0 0 0 102.15 96.92
  L 102.16 96.92
  A 0.21 0.21 0.0 0 0 102.37 96.71
  C 102.38 95.52 102.35 94.33 102.37 93.14
  C 102.37 95.91 104.67 98.61 106.97 99.83
  Z"
/>
<path fill="#395db4" fill-opacity="0.996" d="
  M 73.02 99.85
  Q 71.87 100.16 70.66 99.73
  Q 69.53 99.34 68.41 99.09
  Q 67.04 98.79 66.08 97.81
  Q 67.61 94.37 68.06 93.01
  Q 68.88 90.48 71.18 91.18
  A 0.83 0.82 -86.0 0 1 71.75 91.84
  L 73.02 99.85
  Z"
/>
<path fill="#4a1f72" fill-opacity="0.996" d="
  M 98.83 101.72
  Q 102.43 106.93 106.12 112.16
  C 110.22 117.96 110.60 124.44 119.09 124.73
  L 116.09 133.38
  A 1.11 0.89 -40.9 0 0 116.06 133.52
  L 115.88 136.06
  A 1.11 1.06 68.8 0 1 115.63 136.67
  Q 114.94 137.47 114.95 138.61
  A 2.40 2.38 -7.7 0 1 113.17 140.93
  Q 109.18 142.00 108.64 137.70
  Q 108.49 136.52 108.04 130.06
  A 5.09 4.88 -56.8 0 0 107.83 128.93
  C 105.46 121.09 101.08 114.62 95.38 108.77
  Q 92.47 105.79 92.32 108.93
  Q 90.89 105.69 91.06 102.31
  Q 94.81 101.03 98.83 101.72
  Z"
/>
<path fill="#833eae" fill-opacity="0.996" d="
  M 91.06 102.31
  Q 90.89 105.69 92.32 108.93
  Q 92.14 111.25 93.02 114.07
  C 95.38 121.65 102.18 124.73 101.18 134.11
  Q 93.35 133.66 88.78 128.31
  C 84.30 123.07 84.73 113.14 76.13 113.01
  C 69.85 112.91 67.92 117.25 66.76 123.11
  Q 65.64 128.81 63.70 133.65
  A 1.81 1.81 0.0 0 1 60.33 133.61
  C 57.44 125.94 60.98 121.65 62.55 114.39
  Q 63.44 110.24 62.26 104.76
  L 67.30 109.84
  C 71.23 110.72 76.63 110.77 79.67 112.15
  C 83.31 113.81 85.44 117.93 87.04 121.54
  C 88.13 123.98 90.09 125.92 92.31 127.23
  A 0.75 0.75 0.0 0 0 93.42 126.40
  Q 91.70 119.78 88.82 113.56
  Q 87.62 110.97 88.27 104.47
  L 89.78 102.29
  L 91.06 102.31
  Z"
/>
<path fill="#672d8e" fill-opacity="0.996" d="
  M 62.26 104.76
  Q 63.44 110.24 62.55 114.39
  C 60.98 121.65 57.44 125.94 60.33 133.61
  A 1.81 1.81 0.0 0 0 63.70 133.65
  Q 65.64 128.81 66.76 123.11
  C 67.92 117.25 69.85 112.91 76.13 113.01
  C 84.73 113.14 84.30 123.07 88.78 128.31
  Q 93.35 133.66 101.18 134.11
  L 99.67 172.00
  A 7.15 6.90 -51.4 0 0 99.84 173.79
  Q 100.83 178.03 100.60 181.79
  Q 97.62 180.27 96.87 177.81
  Q 95.45 173.15 97.00 167.52
  Q 101.01 152.90 95.55 140.05
  Q 93.97 136.34 92.15 134.97
  C 88.37 132.11 85.39 130.52 84.49 127.24
  C 82.81 121.10 82.36 117.68 77.95 114.28
  A 2.32 2.28 66.9 0 0 76.88 113.84
  Q 73.47 113.39 71.63 116.17
  A 1.41 1.37 -29.2 0 0 71.39 116.98
  L 71.57 125.60
  Q 70.00 130.66 67.99 135.62
  Q 65.21 142.47 65.12 145.24
  Q 65.01 148.47 66.86 153.68
  Q 67.21 154.68 66.91 157.71
  Q 62.06 151.25 59.67 143.58
  Q 58.17 138.74 56.04 132.42
  C 54.26 127.11 55.61 123.53 58.12 118.43
  C 60.41 113.81 61.18 109.61 60.82 104.86
  A 1.60 1.60 0.0 0 0 58.05 103.88
  Q 55.00 107.15 52.81 111.81
  Q 47.99 117.60 45.92 122.19
  Q 43.04 128.55 43.02 131.77
  Q 42.99 136.69 42.67 138.88
  Q 42.41 140.65 40.18 141.49
  Q 40.47 131.66 38.85 127.79
  C 37.05 123.50 35.36 119.73 34.23 115.17
  L 40.41 105.77
  L 43.51 104.03
  L 42.37 105.94
  A 0.19 0.19 0.0 0 0 42.62 106.21
  Q 46.39 104.31 50.41 104.57
  A 0.89 0.89 0.0 0 1 51.12 105.90
  L 47.94 111.41
  A 0.14 0.14 0.0 0 0 48.17 111.57
  Q 52.20 106.46 57.56 102.64
  A 1.08 1.06 -56.6 0 1 58.39 102.46
  Q 60.83 102.94 62.26 104.76
  Z"
/>
<path fill="#e3c6f8" fill-opacity="0.996" d="
  M 89.78 102.29
  L 88.27 104.47
  Q 85.65 107.15 85.93 111.14
  A 0.71 0.71 0.0 0 1 84.86 111.81
  L 79.66 108.81
  A 0.70 0.70 0.0 0 1 79.90 107.51
  Q 84.77 106.74 88.07 103.10
  Q 88.82 102.40 89.78 102.29
  Z"
/>
<path fill="#9152d0" fill-opacity="0.996" d="
  M 88.07 103.10
  Q 84.77 106.74 79.90 107.51
  A 0.70 0.70 0.0 0 0 79.66 108.81
  L 84.86 111.81
  A 0.71 0.71 0.0 0 0 85.93 111.14
  Q 85.65 107.15 88.27 104.47
  Q 87.62 110.97 88.82 113.56
  Q 91.70 119.78 93.42 126.40
  A 0.75 0.75 0.0 0 1 92.31 127.23
  C 90.09 125.92 88.13 123.98 87.04 121.54
  C 85.44 117.93 83.31 113.81 79.67 112.15
  C 76.63 110.77 71.23 110.72 67.30 109.84
  L 67.14 107.76
  Q 72.00 106.53 79.99 105.44
  Q 83.41 104.97 88.07 103.10
  Z"
/>
<path fill="#3e214d" d="
  M 66.91 157.71
  C 66.68 159.54 64.11 159.75 63.27 158.16
  Q 62.38 156.47 61.52 154.39
  A 0.78 0.78 0.0 0 0 60.08 154.40
  L 59.10 156.85
  Q 58.02 156.40 57.08 156.85
  A 0.73 0.72 -15.5 0 0 56.66 157.58
  Q 57.16 162.50 58.46 167.32
  C 60.67 175.49 54.65 187.43 64.05 193.29
  Q 63.56 195.74 60.75 197.00
  L 59.80 197.00
  C 55.56 195.24 55.64 189.69 56.49 185.76
  C 57.12 182.84 57.00 180.21 57.93 177.30
  A 1.28 1.08 58.7 0 0 57.99 176.92
  L 57.99 171.39
  A 2.64 2.62 34.8 0 0 57.82 170.46
  L 55.22 163.76
  A 1.63 1.60 -55.7 0 1 55.12 163.20
  Q 55.05 151.38 55.01 149.75
  Q 54.91 145.89 53.57 142.84
  A 3.04 2.75 -77.7 0 0 53.22 142.23
  Q 47.48 134.14 51.62 125.28
  C 53.06 122.21 57.03 118.02 57.80 114.84
  Q 58.55 111.74 58.41 107.77
  A 0.62 0.62 0.0 0 0 57.35 107.35
  L 52.81 111.81
  Q 55.00 107.15 58.05 103.88
  A 1.60 1.60 0.0 0 1 60.82 104.86
  C 61.18 109.61 60.41 113.81 58.12 118.43
  C 55.61 123.53 54.26 127.11 56.04 132.42
  Q 58.17 138.74 59.67 143.58
  Q 62.06 151.25 66.91 157.71
  Z"
/>
<path fill="#7450cc" fill-opacity="0.996" d="
  M 10.26 112.97
  C 9.69 111.80 8.72 111.60 8.35 110.36
  Q 7.80 108.52 7.33 106.37
  Q 8.05 105.90 8.10 104.67
  A 0.64 0.64 0.0 0 1 8.91 104.07
  L 9.01 104.09
  A 1.05 1.05 0.0 0 1 9.78 105.13
  Q 9.75 106.90 10.91 110.54
  Q 11.38 111.99 10.26 112.97
  Z"
/>
<path fill="#3e214d" d="
  M 7.33 106.37
  Q 7.80 108.52 8.35 110.36
  C 8.72 111.60 9.69 111.80 10.26 112.97
  Q 9.55 114.74 8.05 114.00
  A 3.47 3.46 21.3 0 1 6.26 109.95
  Q 6.61 108.76 7.33 106.37
  Z"
/>
<path fill="#3e214d" d="
  M 100.60 181.79
  Q 99.23 183.83 98.25 184.02
  Q 95.18 184.64 94.30 182.20
  Q 93.14 178.95 94.63 173.18
  C 95.03 171.65 94.89 170.04 95.60 168.87
  A 2.43 2.42 -27.7 0 0 95.94 167.79
  Q 96.72 155.17 95.80 150.55
  Q 94.40 143.57 88.93 139.34
  A 1.67 1.67 0.0 0 0 86.62 139.60
  C 84.76 141.85 84.89 143.54 86.10 146.46
  Q 87.13 148.92 87.97 151.60
  L 83.24 144.76
  A 0.33 0.33 0.0 0 0 82.64 144.92
  Q 82.44 147.28 83.67 149.07
  A 1.26 0.99 24.3 0 1 83.81 149.34
  L 88.02 161.99
  Q 86.19 163.51 85.02 162.75
  C 82.75 161.26 82.95 156.84 82.97 154.96
  A 4.48 4.41 35.4 0 0 82.68 153.33
  C 80.94 148.73 79.76 145.23 79.91 140.35
  C 80.08 134.93 79.79 128.29 78.72 123.77
  Q 78.03 120.90 76.04 119.26
  A 1.16 1.15 32.0 0 0 74.25 119.67
  L 71.57 125.60
  L 71.39 116.98
  A 1.41 1.37 -29.2 0 1 71.63 116.17
  Q 73.47 113.39 76.88 113.84
  A 2.32 2.28 66.9 0 1 77.95 114.28
  C 82.36 117.68 82.81 121.10 84.49 127.24
  C 85.39 130.52 88.37 132.11 92.15 134.97
  Q 93.97 136.34 95.55 140.05
  Q 101.01 152.90 97.00 167.52
  Q 95.45 173.15 96.87 177.81
  Q 97.62 180.27 100.60 181.79
  Z"
/>
<path fill="#833eae" fill-opacity="0.996" d="
  M 23.13 114.08
  Q 23.65 118.33 22.43 122.68
  Q 21.03 127.65 22.34 133.02
  Q 20.47 134.17 19.12 132.68
  Q 18.22 131.68 18.25 130.35
  Q 18.44 121.20 23.13 114.08
  Z"
/>
<path fill="#3e214d" d="
  M 40.18 141.49
  Q 37.99 135.55 37.36 129.69
  Q 37.35 129.57 36.34 128.05
  A 0.42 0.41 46.9 0 0 35.66 128.02
  C 32.76 131.82 33.87 139.07 34.97 144.40
  A 2.20 2.20 0.0 0 1 32.95 147.04
  L 32.74 147.06
  A 3.34 3.34 0.0 0 1 29.40 144.86
  Q 28.76 143.11 29.36 139.57
  Q 30.72 131.46 31.60 126.01
  Q 32.79 118.61 34.23 115.17
  C 35.36 119.73 37.05 123.50 38.85 127.79
  Q 40.47 131.66 40.18 141.49
  Z"
/>
<ellipse fill="#e3c6f8" fill-opacity="0.996" cx="0.00" cy="0.00" transform="translate(135.54,119.20) rotate(91.6)" rx="2.93" ry="0.66"/>
<path fill="#ad45b0" fill-opacity="0.592" d="
  M 121.38 136.11
  A 0.56 0.56 0.0 0 1 122.40 135.81
  Q 125.53 140.33 125.80 146.02
  A 2.85 2.77 52.3 0 1 125.70 146.90
  C 125.33 148.19 124.09 150.72 122.32 149.72
  C 120.64 148.77 120.10 146.76 120.49 144.77
  Q 121.20 141.12 121.38 136.11
  Z"
/>
<path fill="#672d8e" fill-opacity="0.996" d="
  M 87.97 151.60
  Q 90.32 156.96 88.02 161.99
  L 83.81 149.34
  A 1.26 0.99 24.3 0 0 83.67 149.07
  Q 82.44 147.28 82.64 144.92
  A 0.33 0.33 0.0 0 1 83.24 144.76
  L 87.97 151.60
  Z"
/>
<path fill="#ad45b0" fill-opacity="0.592" d="
  M 40.47 167.77
  C 37.84 167.79 36.86 164.02 37.27 162.07
  Q 38.56 155.97 39.65 149.87
  Q 39.78 149.12 40.28 149.11
  Q 40.77 149.11 40.92 149.86
  Q 42.13 155.93 43.54 162.01
  C 43.99 163.94 43.09 167.74 40.47 167.77
  Z"
/>
<path fill="#833eae" fill-opacity="0.996" d="
  M 59.10 156.85
  Q 58.75 161.65 60.70 166.33
  A 2.03 1.95 -62.3 0 1 60.84 166.81
  L 61.63 171.86
  A 6.82 5.97 -78.2 0 1 61.71 172.81
  Q 61.81 179.10 62.27 180.45
  C 64.01 185.49 66.20 189.53 64.05 193.29
  C 54.65 187.43 60.67 175.49 58.46 167.32
  Q 57.16 162.50 56.66 157.58
  A 0.73 0.72 -15.5 0 1 57.08 156.85
  Q 58.02 156.40 59.10 156.85
  Z"
/>
<path fill="#833eae" fill-opacity="0.996" d="
  M 73.83 176.09
  A 1.89 1.89 0.0 0 1 70.69 174.42
  L 71.57 168.34
  A 0.59 0.59 0.0 0 1 72.64 168.08
  Q 73.85 169.77 74.78 173.58
  A 1.66 1.63 -38.2 0 1 74.63 174.75
  Q 73.95 175.99 73.83 176.09
  Z"
/>
</svg>
