<?xml version="1.0" encoding="UTF-8" standalone="no"?>
<!DOCTYPE svg PUBLIC "-//W3C//DTD SVG 1.1//EN" "http://www.w3.org/Graphics/SVG/1.1/DTD/svg11.dtd">
<svg xmlns="http://www.w3.org/2000/svg" version="1.1" viewBox="0.00 0.00 188.00 169.00">
<g stroke-width="2.00" fill="none" stroke-linecap="butt">
<path stroke="#d9dbaf" vector-effect="non-scaling-stroke" d="
  M 43.05 2.36
  Q 43.23 2.84 41.97 2.99"
/>
<path stroke="#c7c088" vector-effect="non-scaling-stroke" d="
  M 48.82 20.19
  Q 45.65 11.61 40.72 3.94"
/>
<path stroke="#ededbc" vector-effect="non-scaling-stroke" d="
  M 87.74 3.10
  C 80.26 7.84 73.13 11.64 72.51 21.27
  A 0.45 0.45 0.0 0 0 72.98 21.76
  Q 89.77 21.32 105.89 26.19"
/>
<path stroke="#e3e4b8" stroke-opacity="0.996" vector-effect="non-scaling-stroke" d="
  M 105.89 26.19
  C 112.42 30.61 117.51 36.22 118.09 44.48"
/>
<path stroke="#d3dcb5" stroke-opacity="0.996" vector-effect="non-scaling-stroke" d="
  M 118.09 44.48
  L 118.12 51.44
  A 0.23 0.23 0.0 0 1 117.89 51.67
  L 117.88 51.67
  A 0.25 0.22 84.5 0 1 117.65 51.45
  L 116.24 40.27"
/>
<path stroke="#c8cba1" stroke-opacity="0.996" vector-effect="non-scaling-stroke" d="
  M 116.24 40.27
  Q 116.15 39.36 115.87 38.86"
/>
<path stroke="#ededbc" vector-effect="non-scaling-stroke" d="
  M 115.87 38.86
  C 112.00 29.90 105.81 26.76 96.43 25.79
  C 86.89 24.81 74.18 20.44 70.82 33.87
  Q 70.22 36.24 69.10 39.72
  Q 68.73 40.88 67.81 41.32
  Q 67.61 41.42 67.59 42.06
  A 0.32 0.32 0.0 0 1 67.05 42.29
  L 63.68 39.14
  A 0.61 0.61 0.0 0 0 62.74 39.27
  Q 58.13 46.88 58.03 55.35
  Q 57.94 63.59 64.92 66.34
  Q 71.48 68.92 75.50 70.42
  A 2.08 2.07 -58.5 0 0 77.77 69.87
  C 80.93 66.39 84.82 61.04 82.02 56.32
  A 0.57 0.56 -27.8 0 0 81.30 56.10
  Q 78.82 57.27 75.85 56.96"
/>
<path stroke="#b6af7a" stroke-opacity="0.996" vector-effect="non-scaling-stroke" d="
  M 83.66 50.02
  L 85.31 48.54"
/>
<path stroke="#beb881" vector-effect="non-scaling-stroke" d="
  M 85.31 48.54
  L 83.68 50.98
  A 0.24 0.24 0.0 0 0 83.98 51.33
  Q 84.46 51.11 84.76 50.35
  A 0.17 0.04 20.4 0 1 84.92 50.37
  Q 84.96 50.38 84.99 50.36
  A 0.08 0.06 -78.7 0 1 85.05 50.48
  Q 84.26 51.50 83.46 52.51"
/>
<path stroke="#c8cba1" stroke-opacity="0.996" vector-effect="non-scaling-stroke" d="
  M 83.46 52.51
  L 83.09 52.67
  A 0.37 0.37 0.0 0 0 83.17 53.37
  L 83.76 53.48"
/>
<path stroke="#ebe0a8" stroke-opacity="0.996" vector-effect="non-scaling-stroke" d="
  M 83.76 53.48
  Q 83.67 53.77 83.74 54.04
  A 0.53 0.52 79.3 0 0 84.29 54.42
  Q 86.18 54.26 88.21 52.93
  A 0.95 0.94 -16.6 0 0 88.64 52.14
  L 88.67 48.06
  A 0.22 0.22 0.0 0 0 88.25 47.97
  Q 86.72 51.38 83.76 53.48"
/>
<path stroke="#c8cba1" stroke-opacity="0.996" vector-effect="non-scaling-stroke" d="
  M 83.76 53.48
  C 87.74 49.80 88.85 44.22 89.66 38.73"
/>
<path stroke="#beb881" vector-effect="non-scaling-stroke" d="
  M 89.66 38.73
  L 91.95 35.71"
/>
<path stroke="#ededbc" vector-effect="non-scaling-stroke" d="
  M 91.95 35.71
  L 92.19 35.83
  A 0.46 0.46 0.0 0 1 92.20 36.66
  L 91.93 36.79
  A 0.30 0.30 0.0 0 0 91.88 37.31
  Q 92.28 37.61 92.30 38.07
  Q 92.32 38.47 92.10 38.85
  Q 90.31 42.14 89.47 45.68"
/>
<path stroke="#ebe0a8" stroke-opacity="0.996" vector-effect="non-scaling-stroke" d="
  M 89.47 45.68
  L 88.94 52.95
  A 1.00 1.00 0.0 0 0 89.29 53.79
  L 92.88 56.83
  A 0.19 0.19 0.0 0 1 92.75 57.17
  L 89.04 56.98"
/>
<path stroke="#d3dcb5" stroke-opacity="0.996" vector-effect="non-scaling-stroke" d="
  M 89.04 56.98
  L 88.85 57.15
  A 0.32 0.32 0.0 0 0 88.92 57.67
  Q 89.14 57.78 89.41 57.80"
/>
<path stroke="#c8cba1" stroke-opacity="0.996" vector-effect="non-scaling-stroke" d="
  M 89.41 57.80
  Q 86.49 58.86 86.28 62.88"
/>
<path stroke="#93a785" stroke-opacity="0.996" vector-effect="non-scaling-stroke" d="
  M 86.28 62.88
  Q 84.78 63.49 85.27 64.85"
/>
<path stroke="#c2cfad" stroke-opacity="0.996" vector-effect="non-scaling-stroke" d="
  M 82.85 73.42
  L 75.04 76.88
  A 1.40 1.38 57.0 0 1 73.44 76.53
  L 68.42 70.97
  A 1.07 1.06 62.5 0 0 67.39 70.64
  L 54.01 73.61
  A 0.69 0.69 0.0 0 1 53.18 73.05
  L 52.25 67.46"
/>
<path stroke="#c8cba1" stroke-opacity="0.996" vector-effect="non-scaling-stroke" d="
  M 52.25 67.46
  L 54.82 47.31"
/>
<path stroke="#c8cba1" stroke-opacity="0.996" vector-effect="non-scaling-stroke" d="
  M 54.82 47.31
  Q 55.66 46.16 55.67 45.01
  A 0.15 0.15 0.0 0 0 55.38 44.94
  Q 54.81 46.03 54.82 47.31"
/>
<path stroke="#c8cba1" stroke-opacity="0.996" vector-effect="non-scaling-stroke" d="
  M 54.82 47.31
  Q 54.52 46.60 54.52 45.72"
/>
<path stroke="#b2c4a6" stroke-opacity="0.996" vector-effect="non-scaling-stroke" d="
  M 54.52 45.72
  L 54.79 44.55"
/>
<path stroke="#c8cba1" stroke-opacity="0.996" vector-effect="non-scaling-stroke" d="
  M 54.79 44.55
  C 55.70 42.56 57.01 40.70 57.68 38.68
  Q 62.40 24.32 66.20 17.46
  Q 68.93 12.55 76.83 5.94"
/>
<path stroke="#a2b59b" vector-effect="non-scaling-stroke" d="
  M 175.82 70.75
  Q 180.55 70.86 181.86 65.24
  Q 182.26 63.49 182.53 61.27"
/>
<path stroke="#b8ceb4" stroke-opacity="0.996" vector-effect="non-scaling-stroke" d="
  M 185.75 64.49
  C 185.06 72.41 184.01 78.15 177.05 82.27
  C 167.98 87.65 155.85 86.32 146.39 83.33
  Q 145.52 83.05 136.38 79.34
  C 131.52 77.37 125.94 77.18 120.66 76.26
  Q 117.06 75.64 115.63 73.85
  C 113.21 70.81 111.49 67.94 107.89 65.70"
/>
<path stroke="#becaa8" stroke-opacity="0.996" vector-effect="non-scaling-stroke" d="
  M 107.89 65.70
  Q 102.68 63.87 95.92 59.80
  Q 93.41 58.29 89.41 57.80"
/>
<path stroke="#e1dfaf" stroke-opacity="0.996" vector-effect="non-scaling-stroke" d="
  M 89.04 56.98
  Q 93.64 57.59 97.36 60.30"
/>
<path stroke="#d3dcb5" stroke-opacity="0.996" vector-effect="non-scaling-stroke" d="
  M 97.36 60.30
  Q 99.93 62.08 103.22 62.62"
/>
<path stroke="#e1dfaf" stroke-opacity="0.996" vector-effect="non-scaling-stroke" d="
  M 103.22 62.62
  Q 105.14 63.14 107.03 61.35
  Q 108.56 59.91 107.43 56.97"
/>
<path stroke="#adbd9f" stroke-opacity="0.996" vector-effect="non-scaling-stroke" d="
  M 52.25 67.46
  Q 50.39 75.23 50.80 83.61"
/>
<path stroke="#9db299" stroke-opacity="0.996" vector-effect="non-scaling-stroke" d="
  M 54.52 45.72
  Q 50.31 57.36 48.30 67.28
  Q 46.65 75.38 50.80 83.61"
/>
<path stroke="#97b6a5" stroke-opacity="0.996" vector-effect="non-scaling-stroke" d="
  M 50.80 83.61
  Q 50.40 83.37 50.93 83.84"
/>
<path stroke="#90b7af" stroke-opacity="0.996" vector-effect="non-scaling-stroke" d="
  M 50.93 83.84
  L 50.73 91.00"
/>
<path stroke="#81afae" stroke-opacity="0.996" vector-effect="non-scaling-stroke" d="
  M 50.73 91.00
  C 49.51 93.80 50.19 98.80 50.51 101.19"
/>
<path stroke="#74a3a2" stroke-opacity="0.996" vector-effect="non-scaling-stroke" d="
  M 50.51 101.19
  L 46.45 91.96"
/>
<path stroke="#9db299" stroke-opacity="0.996" vector-effect="non-scaling-stroke" d="
  M 54.79 44.55
  Q 54.73 43.91 54.45 43.34"
/>
<path stroke="#a9a673" vector-effect="non-scaling-stroke" d="
  M 54.45 43.34
  C 56.65 31.32 60.42 21.14 67.79 11.45"
/>
<path stroke="#adbd9f" stroke-opacity="0.996" vector-effect="non-scaling-stroke" d="
  M 107.89 65.70
  Q 107.19 66.73 108.29 68.67
  C 108.92 69.79 108.88 70.56 108.55 71.70"
/>
<path stroke="#9db299" stroke-opacity="0.996" vector-effect="non-scaling-stroke" d="
  M 108.55 71.70
  L 104.71 68.29"
/>
<path stroke="#7f9578" stroke-opacity="0.996" vector-effect="non-scaling-stroke" d="
  M 104.71 68.29
  L 94.39 59.38
  A 1.83 1.82 73.0 0 0 93.66 58.99
  Q 90.68 58.18 88.70 59.96
  Q 88.01 60.57 86.28 62.88"
/>
<path stroke="#d9e4bf" stroke-opacity="0.996" vector-effect="non-scaling-stroke" d="
  M 151.22 66.20
  Q 151.15 70.53 151.43 74.82
  Q 151.49 75.70 149.94 77.43
  Q 148.95 78.53 147.17 78.40
  Q 143.14 78.10 142.51 77.93
  Q 130.94 74.88 125.99 73.42
  Q 119.17 71.41 117.57 65.66
  Q 116.99 63.58 117.74 57.21
  Q 118.49 50.83 118.09 44.48"
/>
<path stroke="#556965" stroke-opacity="0.996" vector-effect="non-scaling-stroke" d="
  M 84.08 85.00
  Q 84.06 85.56 84.49 85.64"
/>
<path stroke="#97b6a5" stroke-opacity="0.996" vector-effect="non-scaling-stroke" d="
  M 85.96 86.97
  L 86.19 91.97"
/>
<path stroke="#a0c2b6" stroke-opacity="0.996" vector-effect="non-scaling-stroke" d="
  M 86.19 91.97
  Q 84.54 94.44 82.20 96.26"
/>
<path stroke="#97b6a5" stroke-opacity="0.996" vector-effect="non-scaling-stroke" d="
  M 82.20 96.26
  Q 76.71 92.25 75.02 86.93
  C 72.86 80.15 72.14 76.65 68.92 72.48
  A 1.97 1.96 -23.5 0 0 67.03 71.74
  Q 62.03 72.59 59.59 77.25"
/>
<path stroke="#a0c2b6" stroke-opacity="0.996" vector-effect="non-scaling-stroke" d="
  M 59.59 77.25
  Q 56.92 82.96 50.93 83.84"
/>
<path stroke="#698e7d" stroke-opacity="0.996" vector-effect="non-scaling-stroke" d="
  M 104.71 68.29
  L 101.24 65.80"
/>
<path stroke="#4e796c" vector-effect="non-scaling-stroke" d="
  M 101.24 65.80
  Q 101.05 65.32 100.82 65.10
  A 0.08 0.08 0.0 0 0 100.69 65.19
  C 101.65 67.45 103.14 69.81 103.65 72.03
  Q 105.32 79.23 103.44 86.24
  A 0.83 0.82 1.7 0 1 102.80 86.84
  L 95.81 88.24"
/>
<path stroke="#698e7d" stroke-opacity="0.996" vector-effect="non-scaling-stroke" d="
  M 95.81 88.24
  Q 94.33 88.35 93.36 87.88"
/>
<path stroke="#fcf0b6" vector-effect="non-scaling-stroke" d="
  M 106.18 57.17
  C 104.01 63.66 94.71 56.76 91.68 54.17
  A 3.32 3.28 -74.7 0 1 90.59 52.23
  L 89.47 45.68"
/>
<path stroke="#becaa8" stroke-opacity="0.996" vector-effect="non-scaling-stroke" d="
  M 116.24 40.27
  Q 118.02 48.01 116.01 55.40
  A 0.97 0.95 87.8 0 1 115.41 56.06
  Q 111.87 57.41 108.00 56.79"
/>
<path stroke="#a29e6c" stroke-opacity="0.996" vector-effect="non-scaling-stroke" d="
  M 109.73 55.76
  C 115.71 52.11 115.09 45.38 113.50 39.54"
/>
<path stroke="#a9a673" vector-effect="non-scaling-stroke" d="
  M 113.50 39.54
  C 115.05 44.23 115.67 50.59 112.63 54.82
  A 0.14 0.14 0.0 0 0 112.66 55.01
  L 112.67 55.01
  A 0.23 0.22 -51.5 0 0 112.98 54.97
  Q 116.56 50.55 115.32 43.88
  Q 113.14 32.25 103.36 28.76
  A 3.51 3.45 56.8 0 0 102.54 28.58
  Q 100.63 28.43 97.39 28.37
  L 97.39 28.38
  Q 99.82 28.38 102.23 28.67
  A 0.22 0.22 0.0 0 1 102.42 28.90
  L 102.42 28.91
  A 0.23 0.23 0.0 0 1 102.25 29.01
  L 96.26 29.66
  A 1.66 1.65 -6.2 0 0 94.79 31.48
  L 95.21 35.41
  A 0.38 0.38 0.0 0 1 94.51 35.65
  Q 93.99 34.82 92.70 34.82
  A 1.01 1.00 15.7 0 0 91.87 35.28
  L 89.66 38.73"
/>
<path stroke="#a9a673" vector-effect="non-scaling-stroke" d="
  M 83.46 52.51
  Q 85.89 50.42 86.42 48.89
  Q 89.51 39.98 90.20 30.75
  A 0.71 0.71 0.0 0 0 89.76 30.05
  C 83.29 27.40 76.30 28.12 74.31 35.67"
/>
<path stroke="#a29e6c" stroke-opacity="0.996" vector-effect="non-scaling-stroke" d="
  M 74.31 35.67
  L 74.02 38.49"
/>
<path stroke="#d9dbaf" vector-effect="non-scaling-stroke" d="
  M 115.87 38.86
  C 110.62 28.21 101.41 25.55 90.30 25.93"
/>
<path stroke="#ededbc" vector-effect="non-scaling-stroke" d="
  M 90.30 25.93
  C 79.86 22.82 71.07 26.35 70.96 38.31"
/>
<path stroke="#d9dbaf" vector-effect="non-scaling-stroke" d="
  M 70.96 38.31
  L 70.79 43.80"
/>
<path stroke="#988b4d" vector-effect="non-scaling-stroke" d="
  M 85.31 48.54
  Q 88.38 40.63 89.10 32.30
  A 0.91 0.91 0.0 0 0 88.59 31.41
  Q 80.00 27.38 74.31 35.67"
/>
<path stroke="#ebe0a8" stroke-opacity="0.996" vector-effect="non-scaling-stroke" d="
  M 103.22 62.62
  Q 101.42 60.87 97.36 60.30"
/>
<path stroke="#f4f5c6" vector-effect="non-scaling-stroke" d="
  M 126.33 27.99
  Q 126.97 30.86 127.47 32.04
  C 130.81 39.81 133.07 47.79 137.61 54.55
  Q 141.07 59.71 142.15 61.63
  A 10.01 9.97 -60.4 0 1 143.42 66.27
  Q 143.53 71.34 145.49 76.62
  A 0.37 0.37 0.0 0 1 145.09 77.12
  C 136.93 76.01 128.07 72.42 122.38 66.07
  A 1.31 1.30 23.7 0 1 122.05 65.23
  Q 122.05 61.10 121.23 50.69
  Q 120.87 46.08 119.09 42.05
  Q 116.08 35.27 115.19 34.00
  C 106.35 21.43 91.90 22.50 79.82 15.88
  A 1.33 1.33 0.0 0 1 79.36 13.96
  Q 82.79 8.93 88.20 6.49
  A 0.14 0.14 0.0 0 0 88.12 6.22
  Q 78.81 8.02 75.87 16.59
  A 0.93 0.93 0.0 0 0 76.29 17.70
  C 80.18 19.90 84.19 20.81 89.07 21.68
  Q 97.72 23.21 105.89 26.19"
/>
<path stroke="#988b4d" vector-effect="non-scaling-stroke" d="
  M 113.50 39.54
  Q 110.52 34.77 105.23 31.90
  A 0.38 0.38 0.0 0 0 104.78 32.51
  C 109.57 37.13 113.42 43.06 111.47 50.31"
/>
<path stroke="#cfc98f" vector-effect="non-scaling-stroke" d="
  M 95.31 38.87
  Q 95.17 36.54 94.23 35.50
  Q 93.20 34.36 91.95 35.71"
/>
<path stroke="#97b6a5" stroke-opacity="0.996" vector-effect="non-scaling-stroke" d="
  M 186.93 74.65
  Q 183.64 80.12 179.49 83.50
  C 171.96 89.63 160.38 89.85 150.76 88.05
  C 141.82 86.37 134.99 78.79 124.90 80.95
  Q 122.78 81.41 117.19 83.53
  A 0.93 0.92 52.4 0 1 116.31 83.41
  C 112.45 80.54 110.80 76.39 108.55 71.70"
/>
<path stroke="#65acb9" stroke-opacity="0.996" vector-effect="non-scaling-stroke" d="
  M 64.12 95.64
  Q 61.39 100.80 63.29 106.63
  Q 67.16 118.42 78.42 122.83
  Q 83.64 124.87 88.86 126.91
  Q 93.91 128.89 91.76 133.09"
/>
<path stroke="#6ea7b2" stroke-opacity="0.996" vector-effect="non-scaling-stroke" d="
  M 91.76 133.09
  Q 75.20 133.35 63.14 121.87
  Q 54.08 113.24 50.51 101.19"
/>
<path stroke="#819d8c" vector-effect="non-scaling-stroke" d="
  M 49.73 56.53
  Q 45.33 66.66 45.84 77.54
  Q 46.17 84.75 46.45 91.96"
/>
<path stroke="#6f9490" vector-effect="non-scaling-stroke" d="
  M 46.45 91.96
  Q 46.09 91.36 45.65 91.05"
/>
<path stroke="#618986" vector-effect="non-scaling-stroke" d="
  M 45.65 91.05
  Q 45.09 88.59 43.72 87.16
  A 0.45 0.44 -48.5 0 0 43.04 87.21
  Q 42.00 88.62 41.81 91.01"
/>
<path stroke="#6d8373" vector-effect="non-scaling-stroke" d="
  M 41.81 91.01
  C 40.79 80.14 41.07 70.79 45.55 60.96"
/>
<path stroke="#4d6a70" stroke-opacity="0.996" vector-effect="non-scaling-stroke" d="
  M 62.94 80.07
  L 62.65 87.54"
/>
<path stroke="#89bbbf" stroke-opacity="0.996" vector-effect="non-scaling-stroke" d="
  M 62.65 87.54
  Q 57.16 93.22 58.60 103.01
  Q 59.47 108.99 61.46 114.34
  A 0.20 0.20 0.0 0 1 61.15 114.56
  C 54.09 108.75 51.16 99.92 50.73 91.00"
/>
<path stroke="#949f79" vector-effect="non-scaling-stroke" d="
  M 54.45 43.34
  Q 53.00 50.23 49.73 56.53"
/>
<path stroke="#8e9267" vector-effect="non-scaling-stroke" d="
  M 49.73 56.53
  L 52.30 45.54"
/>
<path stroke="#988b4d" vector-effect="non-scaling-stroke" d="
  M 52.30 45.54
  C 54.17 39.89 55.22 34.28 56.71 29.19
  C 57.97 24.87 60.49 20.71 62.47 16.41"
/>
<path stroke="#589fad" stroke-opacity="0.996" vector-effect="non-scaling-stroke" d="
  M 91.76 133.09
  Q 97.86 135.41 102.68 139.72"
/>
<path stroke="#759c92" stroke-opacity="0.996" vector-effect="non-scaling-stroke" d="
  M 185.63 81.65
  Q 175.93 92.73 159.91 92.88
  C 152.88 92.95 147.24 92.33 141.50 88.46
  Q 138.13 86.19 134.62 84.18
  C 129.68 81.36 124.05 82.04 123.36 88.86"
/>
<path stroke="#6ba8a9" stroke-opacity="0.996" vector-effect="non-scaling-stroke" d="
  M 123.36 88.86
  Q 123.23 88.69 123.07 89.31"
/>
<path stroke="#81afae" stroke-opacity="0.996" vector-effect="non-scaling-stroke" d="
  M 123.07 89.31
  Q 117.03 91.19 117.27 98.36"
/>
<path stroke="#74a3a2" stroke-opacity="0.996" vector-effect="non-scaling-stroke" d="
  M 117.27 98.36
  L 107.09 77.78"
/>
<path stroke="#90b7af" stroke-opacity="0.996" vector-effect="non-scaling-stroke" d="
  M 82.20 96.26
  Q 85.74 95.26 86.19 91.97"
/>
<path stroke="#679798" stroke-opacity="0.996" vector-effect="non-scaling-stroke" d="
  M 94.57 99.27
  Q 88.01 102.42 80.00 100.36"
/>
<path stroke="#629092" stroke-opacity="0.996" vector-effect="non-scaling-stroke" d="
  M 80.00 100.36
  L 76.13 96.61
  A 0.24 0.23 42.4 0 1 76.11 96.28
  L 76.12 96.28
  A 0.24 0.24 0.0 0 1 76.45 96.25
  L 80.59 99.40"
/>
<path stroke="#74a3a2" stroke-opacity="0.996" vector-effect="non-scaling-stroke" d="
  M 80.59 99.40
  Q 86.52 101.53 92.89 98.78
  A 0.39 0.39 0.0 0 0 92.78 98.04
  Q 92.10 97.95 91.10 98.12
  Q 85.55 99.09 79.95 98.29"
/>
<path stroke="#629092" stroke-opacity="0.996" vector-effect="non-scaling-stroke" d="
  M 79.95 98.29
  C 71.32 91.69 73.22 82.67 68.38 73.52
  A 0.98 0.96 79.1 0 0 67.64 73.01
  Q 65.53 72.79 63.36 73.52"
/>
<path stroke="#698e7d" stroke-opacity="0.996" vector-effect="non-scaling-stroke" d="
  M 63.36 73.52
  L 62.92 79.45"
/>
<path stroke="#90b7af" stroke-opacity="0.996" vector-effect="non-scaling-stroke" d="
  M 62.92 79.45
  L 59.59 77.25"
/>
<path stroke="#6c958c" vector-effect="non-scaling-stroke" d="
  M 101.24 65.80
  Q 105.38 71.03 107.09 77.78"
/>
<path stroke="#598d90" vector-effect="non-scaling-stroke" d="
  M 107.09 77.78
  L 107.02 91.94"
/>
<path stroke="#4c8186" vector-effect="non-scaling-stroke" d="
  M 107.02 91.94
  C 109.09 98.52 112.81 102.95 117.74 110.30"
/>
<path stroke="#487b80" vector-effect="non-scaling-stroke" d="
  M 117.74 110.30
  Q 118.33 111.61 119.30 112.62
  A 0.16 0.16 0.0 0 1 119.29 112.86
  L 119.28 112.87
  A 0.16 0.16 0.0 0 1 119.06 112.85
  L 107.41 98.96
  A 1.26 1.26 0.0 0 0 106.52 98.52
  C 102.80 98.32 97.54 100.74 94.02 102.17
  Q 90.96 103.42 84.89 103.62
  C 88.60 103.49 95.47 102.25 97.59 98.75"
/>
<path stroke="#4c8186" vector-effect="non-scaling-stroke" d="
  M 97.59 98.75
  L 94.57 99.27"
/>
<path stroke="#6c958c" vector-effect="non-scaling-stroke" d="
  M 94.57 99.27
  Q 99.43 93.54 95.81 88.24"
/>
<path stroke="#c8cba1" stroke-opacity="0.996" vector-effect="non-scaling-stroke" d="
  M 90.30 25.93
  Q 86.05 25.18 81.82 25.54
  C 74.74 26.14 72.85 31.77 70.96 38.31"
/>
<path stroke="#114048" stroke-opacity="0.996" vector-effect="non-scaling-stroke" d="
  M 64.08 82.54
  C 63.17 93.72 67.43 105.39 76.73 112.05"
/>
<path stroke="#093144" stroke-opacity="0.996" vector-effect="non-scaling-stroke" d="
  M 76.73 112.05
  C 81.97 115.40 86.36 115.74 91.78 117.06"
/>
<path stroke="#0f2837" stroke-opacity="0.996" vector-effect="non-scaling-stroke" d="
  M 91.78 117.06
  Q 105.01 121.24 110.08 134.49"
/>
<path stroke="#101f2b" vector-effect="non-scaling-stroke" d="
  M 110.08 134.49
  Q 113.24 141.73 114.02 149.54"
/>
<path stroke="#101f2b" vector-effect="non-scaling-stroke" d="
  M 112.77 148.65
  L 110.04 152.40"
/>
<path stroke="#244a59" stroke-opacity="0.996" vector-effect="non-scaling-stroke" d="
  M 110.04 152.40
  Q 109.07 144.20 106.71 136.73"
/>
<path stroke="#295b69" stroke-opacity="0.996" vector-effect="non-scaling-stroke" d="
  M 106.71 136.73
  C 104.18 129.62 98.70 122.00 91.54 119.24
  Q 88.71 118.15 87.18 117.82
  Q 74.02 115.01 67.33 103.43
  Q 66.13 101.37 64.12 95.64"
/>
<path stroke="#3e626f" stroke-opacity="0.996" vector-effect="non-scaling-stroke" d="
  M 64.12 95.64
  L 62.65 87.54"
/>
<path stroke="#527d7f" stroke-opacity="0.996" vector-effect="non-scaling-stroke" d="
  M 41.81 91.01
  Q 40.61 91.41 40.07 92.71"
/>
<path stroke="#497072" stroke-opacity="0.996" vector-effect="non-scaling-stroke" d="
  M 40.07 92.71
  Q 38.93 91.55 38.46 90.00"
/>
<path stroke="#446465" stroke-opacity="0.996" vector-effect="non-scaling-stroke" d="
  M 38.46 90.00
  C 38.62 82.07 38.96 74.37 41.83 67.56"
/>
<path stroke="#548f9c" stroke-opacity="0.996" vector-effect="non-scaling-stroke" d="
  M 45.65 91.05
  C 47.16 109.03 58.50 127.27 76.24 133.06
  Q 87.06 136.59 102.68 139.72"
/>
<path stroke="#4b94a3" stroke-opacity="0.996" vector-effect="non-scaling-stroke" d="
  M 102.68 139.72
  L 106.71 136.73"
/>
<path stroke="#3e7685" stroke-opacity="0.996" vector-effect="non-scaling-stroke" d="
  M 109.91 153.50
  Q 101.93 145.09 90.69 142.09
  C 76.12 138.20 61.18 133.11 52.36 120.04
  Q 46.99 112.07 45.70 108.49
  Q 42.85 100.59 40.07 92.71"
/>
<path stroke="#868960" vector-effect="non-scaling-stroke" d="
  M 52.30 45.54
  Q 51.45 47.64 50.68 49.74
  Q 50.56 50.07 50.24 49.90
  A 0.26 0.25 19.8 0 1 50.10 49.61
  L 52.63 39.98"
/>
<path stroke="#6b6944" stroke-opacity="0.996" vector-effect="non-scaling-stroke" d="
  M 52.63 39.98
  L 55.66 26.23"
/>
<path stroke="#616f5f" vector-effect="non-scaling-stroke" d="
  M 52.63 39.98
  L 45.55 60.96"
/>
<path stroke="#526357" stroke-opacity="0.996" vector-effect="non-scaling-stroke" d="
  M 45.55 60.96
  L 41.83 67.56"
/>
<path stroke="#395151" stroke-opacity="0.996" vector-effect="non-scaling-stroke" d="
  M 41.83 67.56
  Q 36.65 76.15 36.27 86.16
  Q 35.99 93.71 35.48 101.21"
/>
<path stroke="#314749" stroke-opacity="0.996" vector-effect="non-scaling-stroke" d="
  M 35.48 101.21
  Q 33.62 87.26 34.64 72.95"
/>
<path stroke="#357067" stroke-opacity="0.996" vector-effect="non-scaling-stroke" d="
  M 70.45 90.04
  L 64.08 82.54"
/>
<path stroke="#26413e" stroke-opacity="0.996" vector-effect="non-scaling-stroke" d="
  M 64.08 82.54
  Q 63.85 80.08 65.03 77.66
  A 0.13 0.13 0.0 0 0 64.97 77.48
  L 64.59 77.26
  A 0.34 0.34 0.0 0 0 64.10 77.42
  L 62.94 80.07"
/>
<path stroke="#719a8e" stroke-opacity="0.996" vector-effect="non-scaling-stroke" d="
  M 62.94 80.07
  Q 63.19 80.22 62.92 79.45"
/>
<path stroke="#547e7b" stroke-opacity="0.996" vector-effect="non-scaling-stroke" d="
  M 184.55 84.93
  Q 180.73 89.47 178.01 91.51
  C 171.75 96.18 161.92 96.97 154.02 96.35
  C 145.51 95.67 140.92 91.16 134.25 86.49
  C 130.58 83.92 124.71 83.53 124.31 89.57"
/>
<path stroke="#59989d" stroke-opacity="0.996" vector-effect="non-scaling-stroke" d="
  M 124.31 89.57
  L 123.36 88.86"
/>
<path stroke="#295b69" stroke-opacity="0.996" vector-effect="non-scaling-stroke" d="
  M 125.39 91.00
  Q 129.38 102.49 140.34 107.82
  Q 141.15 108.21 141.87 108.93
  Q 142.46 109.51 144.96 109.81
  Q 145.97 109.93 147.00 109.91"
/>
<path stroke="#6ea7b2" stroke-opacity="0.996" vector-effect="non-scaling-stroke" d="
  M 117.27 98.36
  C 121.39 108.99 128.09 116.59 136.99 124.09
  C 147.73 133.15 159.51 136.61 172.58 133.90
  Q 175.70 133.25 179.72 129.88
  A 0.45 0.45 0.0 0 0 179.87 129.45
  Q 179.86 129.36 179.86 129.30
  A 1.04 1.02 -20.2 0 1 180.14 128.71
  Q 183.21 125.44 184.50 121.03"
/>
<path stroke="#589fad" stroke-opacity="0.996" vector-effect="non-scaling-stroke" d="
  M 184.50 121.03
  L 186.22 116.20"
/>
<path stroke="#548f9c" stroke-opacity="0.996" vector-effect="non-scaling-stroke" d="
  M 186.92 120.50
  Q 182.67 135.90 168.47 137.90
  C 151.89 140.23 135.52 127.89 125.55 115.93
  Q 117.12 105.81 109.85 95.44
  Q 108.58 93.62 107.02 91.94"
/>
<path stroke="#65acb9" stroke-opacity="0.996" vector-effect="non-scaling-stroke" d="
  M 123.07 89.31
  C 124.93 98.98 127.94 107.16 134.91 112.66
  Q 141.23 117.65 152.17 124.66
  C 159.69 129.48 162.98 131.93 170.71 131.50
  Q 172.37 131.40 174.00 130.74
  Q 176.24 129.82 177.08 129.33
  Q 182.01 126.44 183.30 120.51
  A 0.96 0.95 -69.1 0 1 184.70 119.88
  Q 184.88 119.98 184.50 121.03"
/>
<path stroke="#4f8896" stroke-opacity="0.996" vector-effect="non-scaling-stroke" d="
  M 79.95 98.29
  L 80.59 99.40"
/>
<path stroke="#427c8c" stroke-opacity="0.996" vector-effect="non-scaling-stroke" d="
  M 80.00 100.36
  C 85.57 103.84 92.43 102.54 97.59 98.75"
/>
<path stroke="#427c8c" stroke-opacity="0.996" vector-effect="non-scaling-stroke" d="
  M 117.74 110.30
  C 125.84 121.09 134.40 130.87 146.49 137.27
  Q 158.86 143.82 170.46 141.70
  C 180.07 139.94 185.90 132.87 187.58 123.43"
/>
<path stroke="#366978" stroke-opacity="0.996" vector-effect="non-scaling-stroke" d="
  M 186.94 132.85
  C 181.01 144.41 171.04 148.04 158.67 145.92
  C 139.22 142.58 126.34 126.65 115.23 110.70
  Q 112.54 106.85 109.26 104.48
  C 102.61 99.69 96.42 104.70 89.00 104.76
  Q 84.17 104.80 79.57 103.20"
/>
<path stroke="#2f727b" stroke-opacity="0.996" vector-effect="non-scaling-stroke" d="
  M 79.57 103.20
  Q 73.08 97.77 70.45 90.04"
/>
<path stroke="#447371" stroke-opacity="0.996" vector-effect="non-scaling-stroke" d="
  M 70.45 90.04
  Q 70.12 86.98 69.97 80.65
  Q 69.81 74.45 63.36 73.52"
/>
<path stroke="#294a57" vector-effect="non-scaling-stroke" d="
  M 110.06 158.29
  L 109.91 153.50"
/>
<path stroke="#315764" vector-effect="non-scaling-stroke" d="
  M 109.91 153.50
  L 110.04 152.40"
/>
<path stroke="#28666e" stroke-opacity="0.996" vector-effect="non-scaling-stroke" d="
  M 79.57 103.20
  Q 85.84 106.85 93.85 106.83"
/>
<path stroke="#1e5760" stroke-opacity="0.996" vector-effect="non-scaling-stroke" d="
  M 93.85 106.83
  L 81.16 107.02"
/>
<path stroke="#18606d" stroke-opacity="0.996" vector-effect="non-scaling-stroke" d="
  M 81.16 107.02
  L 82.79 108.54
  A 0.15 0.15 0.0 0 1 82.80 108.75
  Q 82.72 108.84 82.68 108.99
  A 0.23 0.23 0.0 0 0 82.82 109.26
  Q 83.35 109.45 83.47 109.49
  A 0.04 0.01 29.9 0 1 83.51 109.53
  C 82.99 109.41 81.99 109.12 80.41 108.66
  A 0.21 0.20 -18.8 0 0 80.23 109.02
  L 86.83 113.62
  A 0.25 0.24 -21.8 0 1 86.64 114.06
  L 76.73 112.05"
/>
<path stroke="#1c3542" vector-effect="non-scaling-stroke" d="
  M 178.38 150.69
  C 164.63 155.67 149.54 154.70 137.34 146.13
  Q 128.57 139.97 122.42 132.33
  C 118.67 127.68 115.59 122.93 110.76 119.68
  A 0.17 0.17 0.0 0 0 110.50 119.89
  C 112.72 125.34 117.14 137.08 114.00 141.97
  A 0.32 0.31 -40.4 0 1 113.45 141.93
  L 110.08 134.49"
/>
<path stroke="#15485c" stroke-opacity="0.996" vector-effect="non-scaling-stroke" d="
  M 91.78 117.06
  Q 98.94 118.10 104.17 123.02
  A 0.10 0.10 0.0 0 0 104.33 122.91
  C 100.21 113.64 90.90 108.55 81.16 107.02"
/>
<path stroke="#305e6b" stroke-opacity="0.996" vector-effect="non-scaling-stroke" d="
  M 38.46 90.00
  Q 36.29 109.55 48.75 124.27
  C 56.42 133.33 68.48 141.37 81.09 143.89
  C 88.81 145.43 96.62 147.06 102.50 151.93
  C 104.99 153.99 107.35 157.93 109.86 160.73"
/>
<path stroke="#234956" stroke-opacity="0.996" vector-effect="non-scaling-stroke" d="
  M 109.86 160.73
  Q 108.64 161.49 107.89 160.40
  Q 101.18 150.66 90.68 148.60
  C 80.04 146.51 68.98 144.49 59.70 138.11
  Q 52.80 133.37 48.09 128.48
  C 40.94 121.05 37.60 111.52 35.48 101.21"
/>
<path stroke="#285463" stroke-opacity="0.996" vector-effect="non-scaling-stroke" d="
  M 109.86 160.73
  L 110.06 158.29"
/>
<path stroke="#1c3542" vector-effect="non-scaling-stroke" d="
  M 110.06 158.29
  L 110.36 163.58
  A 0.90 0.90 0.0 0 1 108.62 163.97
  Q 104.09 152.71 91.32 150.50
  C 80.07 148.56 74.01 148.21 66.61 144.41
  Q 56.15 139.04 47.45 130.40
  Q 42.02 125.01 38.34 116.71
  C 33.26 105.22 31.19 93.75 30.65 81.25"
/>
<path stroke="#376769" stroke-opacity="0.996" vector-effect="non-scaling-stroke" d="
  M 182.79 88.60
  Q 173.69 97.51 161.42 98.75
  Q 155.24 99.37 150.47 98.61
  C 143.58 97.51 140.18 94.06 134.26 88.76
  C 131.15 85.98 125.86 84.66 124.92 90.33"
/>
<path stroke="#4a8a91" stroke-opacity="0.996" vector-effect="non-scaling-stroke" d="
  M 124.92 90.33
  Q 124.18 90.14 124.31 89.57"
/>
<path stroke="#10474b" stroke-opacity="0.996" vector-effect="non-scaling-stroke" d="
  M 127.79 93.28
  Q 129.17 96.87 131.75 99.55"
/>
<path stroke="#163841" stroke-opacity="0.996" vector-effect="non-scaling-stroke" d="
  M 147.26 109.04
  Q 137.30 107.05 131.75 99.55"
/>
<path stroke="#246e6d" stroke-opacity="0.996" vector-effect="non-scaling-stroke" d="
  M 131.75 99.55
  C 136.71 103.77 145.07 108.82 151.80 107.38
  A 0.31 0.31 0.0 0 0 151.96 106.87
  Q 151.96 106.86 149.89 105.71
  Q 148.50 104.93 147.37 104.52
  Q 138.53 101.31 131.60 94.93
  Q 130.90 94.29 127.79 93.28"
/>
<path stroke="#163841" stroke-opacity="0.996" vector-effect="non-scaling-stroke" d="
  M 127.79 93.28
  L 126.61 90.20
  A 0.59 0.59 0.0 0 0 125.47 90.34
  L 125.39 91.00"
/>
<path stroke="#3c828b" stroke-opacity="0.996" vector-effect="non-scaling-stroke" d="
  M 125.39 91.00
  L 124.92 90.33"
/>
<path stroke="#254e5c" stroke-opacity="0.996" vector-effect="non-scaling-stroke" d="
  M 181.83 145.99
  C 177.06 148.09 171.96 150.79 167.10 151.50
  C 150.67 153.89 133.15 142.58 124.26 130.04
  C 121.11 125.60 116.98 119.48 113.48 114.01
  C 108.47 106.19 102.28 106.03 93.85 106.83"
/>
<path stroke="#c8c08f" vector-effect="non-scaling-stroke" d="
  M 43.96 28.99
  L 33.22 14.43"
/>
<path stroke="#c8c08f" vector-effect="non-scaling-stroke" d="
  M 37.31 36.67
  L 22.26 21.05"
/>
<path stroke="#c8c08f" vector-effect="non-scaling-stroke" d="
  M 30.57 47.16
  L 7.98 33.06"
/>
<path stroke="#ccbb7b" vector-effect="non-scaling-stroke" d="
  M 176.24 40.69
  Q 163.60 44.96 152.33 52.65"
/>
<path stroke="#cfc98f" vector-effect="non-scaling-stroke" d="
  M 181.35 54.00
  Q 181.31 54.13 181.25 54.24
  A 0.59 0.59 0.0 0 1 180.79 54.57
  Q 168.00 56.22 154.88 60.66"
/>
<path stroke="#cfc98f" vector-effect="non-scaling-stroke" d="
  M 13.44 55.27
  Q 13.57 55.65 14.04 55.64"
/>
<path stroke="#808775" vector-effect="non-scaling-stroke" d="
  M 14.04 55.64
  L 15.97 55.78"
/>
<path stroke="#808775" vector-effect="non-scaling-stroke" d="
  M 23.27 56.50
  Q 23.66 56.71 24.21 56.68"
/>
<path stroke="#cfc98f" vector-effect="non-scaling-stroke" d="
  M 26.65 59.74
  Q 14.39 58.88 5.37 58.81
  Q 2.08 58.79 0.99 56.41"
/>
<path stroke="#51533a" vector-effect="non-scaling-stroke" d="
  M 13.96 55.34
  L 14.04 55.64"
/>
<path stroke="#73724c" vector-effect="non-scaling-stroke" d="
  M 24.21 60.89
  L 18.73 60.90"
/>
<path stroke="#cfc98f" vector-effect="non-scaling-stroke" d="
  M 25.34 69.07
  L 10.97 71.30
  A 1.31 1.26 52.6 0 1 10.18 71.18
  Q 9.28 70.75 8.43 69.38"
/>
<path stroke="#c5b374" stroke-opacity="0.996" vector-effect="non-scaling-stroke" d="
  M 131.10 14.84
  Q 132.68 13.19 133.16 10.60"
/>
<path stroke="#c5b374" stroke-opacity="0.996" vector-effect="non-scaling-stroke" d="
  M 133.01 10.79
  Q 136.54 6.21 137.64 0.74"
/>
<path stroke="#fefedc" vector-effect="non-scaling-stroke" d="
  M 124.48 49.01
  C 124.37 54.37 124.08 62.53 126.69 66.82
  C 129.31 71.11 133.97 73.35 138.88 73.81
  A 0.44 0.44 0.0 0 0 139.30 73.14
  Q 137.05 69.42 133.67 65.08
  C 129.38 59.59 127.29 55.17 125.21 48.90
  A 0.37 0.37 0.0 0 0 124.48 49.01"
/>
<path stroke="#f1e8b2" stroke-opacity="0.996" vector-effect="non-scaling-stroke" d="
  M 119.4697 46.1321
  A 0.33 0.33 0.0 0 0 119.1295 45.8127
  L 119.0896 45.8139
  A 0.33 0.33 0.0 0 0 118.7701 46.1541
  L 119.1703 58.8879
  A 0.33 0.33 0.0 0 0 119.5105 59.2073
  L 119.5504 59.2061
  A 0.33 0.33 0.0 0 0 119.8699 58.8659
  L 119.4697 46.1321"
/>
<path stroke="#fffed2" vector-effect="non-scaling-stroke" d="
  M 62.33 51.22
  Q 61.48 52.02 61.28 53.45
  C 60.15 61.78 66.72 67.49 74.76 66.55
  Q 76.20 66.38 77.09 65.25
  A 1.90 1.81 30.1 0 0 76.27 62.42
  Q 71.76 60.55 70.25 59.63
  A 12.24 12.22 -0.7 0 1 66.37 55.85
  L 63.47 51.37
  A 0.75 0.74 52.1 0 0 62.33 51.22"
/>
<path stroke="#d8e7db" stroke-opacity="0.996" vector-effect="non-scaling-stroke" d="
  M 162.93 81.66
  A 0.75 0.75 0.0 0 0 162.71 83.12
  C 165.56 84.10 169.59 82.96 173.07 81.84
  C 177.33 80.48 179.80 77.33 182.43 73.70
  Q 184.89 70.32 184.77 65.12
  A 0.96 0.95 -81.0 0 0 184.14 64.25
  L 183.85 64.15
  A 0.62 0.61 11.5 0 0 183.03 64.69
  Q 182.25 77.42 170.17 81.00
  C 168.19 81.59 164.73 81.61 162.93 81.66"
/>
<path stroke="#d3e0cd" vector-effect="non-scaling-stroke" d="
  M 83.13 94.92
  L 78.51 90.14
  A 0.16 0.16 0.0 0 0 78.29 90.14
  L 78.22 90.20
  A 3.31 1.39 46.0 0 0 79.52 93.55
  L 79.76 93.79
  A 3.31 1.39 46.0 0 0 83.06 95.21
  L 83.12 95.14
  A 0.16 0.16 0.0 0 0 83.13 94.92"
/>
<path stroke="#90b7af" stroke-opacity="0.996" vector-effect="non-scaling-stroke" d="
  M 78.96 95.70
  Q 81.60 97.05 84.55 97.42
  A 0.11 0.10 -75.1 0 0 84.67 97.34
  A 0.21 0.19 15.7 0 0 84.52 97.11
  L 79.02 95.17
  A 0.05 0.04 -62.9 0 0 78.97 95.19
  L 78.87 95.48
  A 0.18 0.18 0.0 0 0 78.96 95.70"
/>
<path stroke="#8dbecc" stroke-opacity="0.996" vector-effect="non-scaling-stroke" d="
  M 67.88 122.81
  Q 76.92 131.22 88.72 130.68
  A 0.78 0.78 0.0 0 0 88.94 129.17
  L 68.40 121.95
  A 0.51 0.51 0.0 0 0 67.88 122.81"
/>
<path stroke="#b0d3dc" stroke-opacity="0.996" vector-effect="non-scaling-stroke" d="
  M 131.60 116.85
  L 138.58 122.88"
/>
<path stroke="#8dbecc" stroke-opacity="0.996" vector-effect="non-scaling-stroke" d="
  M 138.58 122.88
  Q 144.63 129.90 153.45 130.87
  A 0.86 0.85 -20.5 0 0 154.13 129.39
  C 149.18 124.88 143.50 121.31 137.52 117.18
  C 133.68 114.54 130.02 111.16 126.77 108.28
  A 0.86 0.86 0.0 0 0 125.46 109.37
  Q 127.94 113.50 131.60 116.85"
/>
<path stroke="#c3deea" stroke-opacity="0.996" vector-effect="non-scaling-stroke" d="
  M 138.58 122.88
  Q 141.69 125.18 145.17 126.39
  Q 145.78 126.60 146.11 125.91
  Q 146.20 125.73 146.13 125.46
  A 0.90 0.83 -80.9 0 0 145.83 125.01
  Q 142.57 122.48 141.86 121.89
  C 138.57 119.16 135.25 117.51 131.58 114.92
  A 0.45 0.45 0.0 0 0 130.87 115.23
  Q 130.79 115.88 131.60 116.85"
/>
</g>
<path fill="#f9e3a2" fill-opacity="0.996" d="
  M 138.13 0.00
  L 141.42 2.36
  A 0.51 0.51 0.0 0 1 141.57 3.01
  L 132.58 19.64
  A 0.78 0.78 0.0 0 1 131.36 19.84
  L 129.92 18.48
  A 0.98 0.97 -60.4 0 1 129.65 17.49
  Q 130.14 15.89 131.10 14.84
  Q 132.68 13.19 133.16 10.60
  Q 133.08 10.70 133.01 10.79
  Q 136.54 6.21 137.64 0.74
  Q 137.56 0.61 137.88 0.00
  Q 138.00 0.00 138.13 0.00
  Z"
/>
<path fill="#908245" fill-opacity="0.996" d="
  M 137.64 0.74
  Q 136.54 6.21 133.01 10.79
  L 137.64 0.74
  Z"
/>
<path fill="#b3b993" fill-opacity="0.996" d="
  M 43.05 2.36
  Q 43.23 2.84 41.97 2.99
  Q 42.41 2.49 43.05 2.36
  Z"
/>
<path fill="#fefdca" d="
  M 48.82 20.19
  Q 45.65 11.61 40.72 3.94
  L 41.97 2.99
  Q 43.23 2.84 43.05 2.36
  Q 43.19 2.33 43.34 2.34
  A 0.24 0.23 -11.4 0 1 43.53 2.46
  Q 46.86 9.33 50.45 16.16
  Q 51.23 17.65 50.74 18.54
  Q 50.23 19.45 48.82 20.19
  Z"
/>
<path fill="#dcdcae" fill-opacity="0.996" d="
  M 87.74 3.10
  C 80.26 7.84 73.13 11.64 72.51 21.27
  A 0.45 0.45 0.0 0 0 72.98 21.76
  Q 89.77 21.32 105.89 26.19
  C 112.42 30.61 117.51 36.22 118.09 44.48
  L 118.12 51.44
  A 0.23 0.23 0.0 0 1 117.89 51.67
  L 117.88 51.67
  A 0.25 0.22 84.5 0 1 117.65 51.45
  L 116.24 40.27
  Q 116.15 39.36 115.87 38.86
  C 112.00 29.90 105.81 26.76 96.43 25.79
  C 86.89 24.81 74.18 20.44 70.82 33.87
  Q 70.22 36.24 69.10 39.72
  Q 68.73 40.88 67.81 41.32
  Q 67.61 41.42 67.59 42.06
  A 0.32 0.32 0.0 0 1 67.05 42.29
  L 63.68 39.14
  A 0.61 0.61 0.0 0 0 62.74 39.27
  Q 58.13 46.88 58.03 55.35
  Q 57.94 63.59 64.92 66.34
  Q 71.48 68.92 75.50 70.42
  A 2.08 2.07 -58.5 0 0 77.77 69.87
  C 80.93 66.39 84.82 61.04 82.02 56.32
  A 0.57 0.56 -27.8 0 0 81.30 56.10
  Q 78.82 57.27 75.85 56.96
  Q 81.23 54.83 83.66 50.02
  L 85.31 48.54
  L 83.68 50.98
  A 0.24 0.24 0.0 0 0 83.98 51.33
  Q 84.46 51.11 84.76 50.35
  A 0.17 0.04 20.4 0 1 84.92 50.37
  Q 84.96 50.38 84.99 50.36
  A 0.08 0.06 -78.7 0 1 85.05 50.48
  Q 84.26 51.50 83.46 52.51
  L 83.09 52.67
  A 0.37 0.37 0.0 0 0 83.17 53.37
  L 83.76 53.48
  Q 83.67 53.77 83.74 54.04
  A 0.53 0.52 79.3 0 0 84.29 54.42
  Q 86.18 54.26 88.21 52.93
  A 0.95 0.94 -16.6 0 0 88.64 52.14
  L 88.67 48.06
  A 0.22 0.22 0.0 0 0 88.25 47.97
  Q 86.72 51.38 83.76 53.48
  C 87.74 49.80 88.85 44.22 89.66 38.73
  L 91.95 35.71
  L 92.19 35.83
  A 0.46 0.46 0.0 0 1 92.20 36.66
  L 91.93 36.79
  A 0.30 0.30 0.0 0 0 91.88 37.31
  Q 92.28 37.61 92.30 38.07
  Q 92.32 38.47 92.10 38.85
  Q 90.31 42.14 89.47 45.68
  L 88.94 52.95
  A 1.00 1.00 0.0 0 0 89.29 53.79
  L 92.88 56.83
  A 0.19 0.19 0.0 0 1 92.75 57.17
  L 89.04 56.98
  L 88.85 57.15
  A 0.32 0.32 0.0 0 0 88.92 57.67
  Q 89.14 57.78 89.41 57.80
  Q 86.49 58.86 86.28 62.88
  Q 84.78 63.49 85.27 64.85
  Q 82.62 68.59 82.85 73.42
  L 75.04 76.88
  A 1.40 1.38 57.0 0 1 73.44 76.53
  L 68.42 70.97
  A 1.07 1.06 62.5 0 0 67.39 70.64
  L 54.01 73.61
  A 0.69 0.69 0.0 0 1 53.18 73.05
  L 52.25 67.46
  L 54.82 47.31
  Q 55.66 46.16 55.67 45.01
  A 0.15 0.15 0.0 0 0 55.38 44.94
  Q 54.81 46.03 54.82 47.31
  Q 54.52 46.60 54.52 45.72
  L 54.79 44.55
  C 55.70 42.56 57.01 40.70 57.68 38.68
  Q 62.40 24.32 66.20 17.46
  Q 68.93 12.55 76.83 5.94
  Q 81.67 3.52 87.74 3.10
  Z"
/>
<path fill="#fefdca" d="
  M 126.33 27.99
  Q 126.97 30.86 127.47 32.04
  C 130.81 39.81 133.07 47.79 137.61 54.55
  Q 141.07 59.71 142.15 61.63
  A 10.01 9.97 -60.4 0 1 143.42 66.27
  Q 143.53 71.34 145.49 76.62
  A 0.37 0.37 0.0 0 1 145.09 77.12
  C 136.93 76.01 128.07 72.42 122.38 66.07
  A 1.31 1.30 23.7 0 1 122.05 65.23
  Q 122.05 61.10 121.23 50.69
  Q 120.87 46.08 119.09 42.05
  Q 116.08 35.27 115.19 34.00
  C 106.35 21.43 91.90 22.50 79.82 15.88
  A 1.33 1.33 0.0 0 1 79.36 13.96
  Q 82.79 8.93 88.20 6.49
  A 0.14 0.14 0.0 0 0 88.12 6.22
  Q 78.81 8.02 75.87 16.59
  A 0.93 0.93 0.0 0 0 76.29 17.70
  C 80.18 19.90 84.19 20.81 89.07 21.68
  Q 97.72 23.21 105.89 26.19
  Q 89.77 21.32 72.98 21.76
  A 0.45 0.45 0.0 0 1 72.51 21.27
  C 73.13 11.64 80.26 7.84 87.74 3.10
  C 104.74 1.82 119.24 12.94 126.33 27.99
  Z
  M 124.48 49.01
  C 124.37 54.37 124.08 62.53 126.69 66.82
  C 129.31 71.11 133.97 73.35 138.88 73.81
  A 0.44 0.44 0.0 0 0 139.30 73.14
  Q 137.05 69.42 133.67 65.08
  C 129.38 59.59 127.29 55.17 125.21 48.90
  A 0.37 0.37 0.0 0 0 124.48 49.01
  Z"
/>
<path fill="#908245" fill-opacity="0.996" d="
  M 40.72 3.94
  Q 45.65 11.61 48.82 20.19
  L 40.02 5.41
  A 0.66 0.62 -61.8 0 1 39.93 5.08
  Q 39.91 4.20 40.72 3.94
  Z"
/>
<path fill="#b3b993" fill-opacity="0.996" d="
  M 76.83 5.94
  Q 68.93 12.55 66.20 17.46
  Q 62.40 24.32 57.68 38.68
  C 57.01 40.70 55.70 42.56 54.79 44.55
  Q 54.73 43.91 54.45 43.34
  C 56.65 31.32 60.42 21.14 67.79 11.45
  Q 71.64 8.03 76.83 5.94
  Z"
/>
<path fill="#e9ecc1" fill-opacity="0.996" d="
  M 126.33 27.99
  Q 128.12 31.18 128.53 32.25
  C 133.63 45.61 139.40 57.95 151.22 66.20
  Q 151.15 70.53 151.43 74.82
  Q 151.49 75.70 149.94 77.43
  Q 148.95 78.53 147.17 78.40
  Q 143.14 78.10 142.51 77.93
  Q 130.94 74.88 125.99 73.42
  Q 119.17 71.41 117.57 65.66
  Q 116.99 63.58 117.74 57.21
  Q 118.49 50.83 118.09 44.48
  C 117.51 36.22 112.42 30.61 105.89 26.19
  Q 97.72 23.21 89.07 21.68
  C 84.19 20.81 80.18 19.90 76.29 17.70
  A 0.93 0.93 0.0 0 1 75.87 16.59
  Q 78.81 8.02 88.12 6.22
  A 0.14 0.14 0.0 0 1 88.20 6.49
  Q 82.79 8.93 79.36 13.96
  A 1.33 1.33 0.0 0 0 79.82 15.88
  C 91.90 22.50 106.35 21.43 115.19 34.00
  Q 116.08 35.27 119.09 42.05
  Q 120.87 46.08 121.23 50.69
  Q 122.05 61.10 122.05 65.23
  A 1.31 1.30 23.7 0 0 122.38 66.07
  C 128.07 72.42 136.93 76.01 145.09 77.12
  A 0.37 0.37 0.0 0 0 145.49 76.62
  Q 143.53 71.34 143.42 66.27
  A 10.01 9.97 -60.4 0 0 142.15 61.63
  Q 141.07 59.71 137.61 54.55
  C 133.07 47.79 130.81 39.81 127.47 32.04
  Q 126.97 30.86 126.33 27.99
  Z
  M 119.4697 46.1321
  A 0.33 0.33 0.0 0 0 119.1295 45.8127
  L 119.0896 45.8139
  A 0.33 0.33 0.0 0 0 118.7701 46.1541
  L 119.1703 58.8879
  A 0.33 0.33 0.0 0 0 119.5105 59.2073
  L 119.5504 59.2061
  A 0.33 0.33 0.0 0 0 119.8699 58.8659
  L 119.4697 46.1321
  Z"
/>
<path fill="#908245" fill-opacity="0.996" d="
  M 133.16 10.60
  Q 132.68 13.19 131.10 14.84
  Q 131.57 12.54 133.16 10.60
  Z"
/>
<path fill="#a09454" d="
  M 67.79 11.45
  C 60.42 21.14 56.65 31.32 54.45 43.34
  Q 53.00 50.23 49.73 56.53
  L 52.30 45.54
  C 54.17 39.89 55.22 34.28 56.71 29.19
  C 57.97 24.87 60.49 20.71 62.47 16.41
  L 67.79 11.45
  Z"
/>
<path fill="#f9e3a2" fill-opacity="0.996" d="
  M 148.27 12.38
  A 0.33 0.32 -47.1 0 1 148.77 12.36
  L 151.14 14.99
  A 0.63 0.63 0.0 0 1 151.15 15.82
  L 139.14 30.01
  A 0.53 0.52 43.3 0 1 138.35 30.03
  L 137.12 28.65
  A 1.30 1.29 -47.7 0 1 137.05 27.00
  L 148.27 12.38
  Z"
/>
<path fill="#fffed9" d="
  M 43.96 28.99
  L 33.22 14.43
  Q 33.78 13.16 34.31 12.74
  A 0.89 0.89 0.0 0 1 35.61 12.94
  Q 40.62 20.45 44.86 26.79
  Q 45.45 27.66 43.96 28.99
  Z"
/>
<path fill="#908245" fill-opacity="0.996" d="
  M 33.22 14.43
  L 43.96 28.99
  Q 43.71 29.70 43.01 29.81
  A 0.57 0.55 65.6 0 1 42.47 29.60
  L 32.11 15.78
  A 0.30 0.29 -60.7 0 1 32.05 15.55
  Q 32.15 14.71 33.22 14.43
  Z"
/>
<path fill="#908245" fill-opacity="0.996" d="
  M 62.47 16.41
  C 60.49 20.71 57.97 24.87 56.71 29.19
  C 55.22 34.28 54.17 39.89 52.30 45.54
  Q 51.45 47.64 50.68 49.74
  Q 50.56 50.07 50.24 49.90
  A 0.26 0.25 19.8 0 1 50.10 49.61
  L 52.63 39.98
  L 55.66 26.23
  Q 58.17 20.89 62.47 16.41
  Z"
/>
<path fill="#fffed9" d="
  M 37.31 36.67
  L 22.26 21.05
  L 24.19 18.48
  A 0.29 0.28 -47.4 0 1 24.63 18.46
  L 38.64 34.00
  A 0.75 0.74 43.8 0 1 38.67 34.97
  L 37.31 36.67
  Z"
/>
<path fill="#908245" fill-opacity="0.996" d="
  M 22.26 21.05
  L 37.31 36.67
  L 37.00 37.13
  A 0.66 0.66 0.0 0 1 36.01 37.24
  L 21.44 23.55
  A 0.97 0.97 0.0 0 1 21.14 22.69
  Q 21.30 21.64 22.26 21.05
  Z"
/>
<path fill="#f9e3a2" fill-opacity="0.996" d="
  M 144.09 37.24
  L 142.45 35.05
  A 0.60 0.60 0.0 0 1 142.50 34.28
  L 153.35 22.74
  A 0.60 0.60 0.0 0 1 154.27 22.79
  L 155.91 24.98
  A 0.60 0.60 0.0 0 1 155.86 25.75
  L 145.01 37.29
  A 0.60 0.60 0.0 0 1 144.09 37.24
  Z"
/>
<path fill="#fefdca" d="
  M 115.87 38.86
  C 110.62 28.21 101.41 25.55 90.30 25.93
  C 79.86 22.82 71.07 26.35 70.96 38.31
  L 70.79 43.80
  Q 70.02 45.89 69.49 48.07
  Q 68.88 50.58 69.36 52.45
  Q 70.58 57.27 75.85 56.96
  Q 78.82 57.27 81.30 56.10
  A 0.57 0.56 -27.8 0 1 82.02 56.32
  C 84.82 61.04 80.93 66.39 77.77 69.87
  A 2.08 2.07 -58.5 0 1 75.50 70.42
  Q 71.48 68.92 64.92 66.34
  Q 57.94 63.59 58.03 55.35
  Q 58.13 46.88 62.74 39.27
  A 0.61 0.61 0.0 0 1 63.68 39.14
  L 67.05 42.29
  A 0.32 0.32 0.0 0 0 67.59 42.06
  Q 67.61 41.42 67.81 41.32
  Q 68.73 40.88 69.10 39.72
  Q 70.22 36.24 70.82 33.87
  C 74.18 20.44 86.89 24.81 96.43 25.79
  C 105.81 26.76 112.00 29.90 115.87 38.86
  Z
  M 62.33 51.22
  Q 61.48 52.02 61.28 53.45
  C 60.15 61.78 66.72 67.49 74.76 66.55
  Q 76.20 66.38 77.09 65.25
  A 1.90 1.81 30.1 0 0 76.27 62.42
  Q 71.76 60.55 70.25 59.63
  A 12.24 12.22 -0.7 0 1 66.37 55.85
  L 63.47 51.37
  A 0.75 0.74 52.1 0 0 62.33 51.22
  Z"
/>
<path fill="#dcdcae" fill-opacity="0.996" d="
  M 90.30 25.93
  Q 86.05 25.18 81.82 25.54
  C 74.74 26.14 72.85 31.77 70.96 38.31
  C 71.07 26.35 79.86 22.82 90.30 25.93
  Z"
/>
<path fill="#f9e3a2" fill-opacity="0.996" d="
  M 166.66 25.05
  L 169.44 28.76
  A 0.60 0.60 0.0 0 1 169.32 29.60
  L 149.46 44.50
  A 0.60 0.60 0.0 0 1 148.62 44.38
  L 147.18 42.46
  A 0.60 0.60 0.0 0 1 147.26 41.65
  L 165.78 24.96
  A 0.60 0.60 0.0 0 1 166.66 25.05
  Z"
/>
<path fill="#b3b993" fill-opacity="0.996" d="
  M 90.30 25.93
  C 101.41 25.55 110.62 28.21 115.87 38.86
  Q 116.15 39.36 116.24 40.27
  Q 118.02 48.01 116.01 55.40
  A 0.97 0.95 87.8 0 1 115.41 56.06
  Q 111.87 57.41 108.00 56.79
  Q 108.87 56.55 109.73 55.76
  C 115.71 52.11 115.09 45.38 113.50 39.54
  C 115.05 44.23 115.67 50.59 112.63 54.82
  A 0.14 0.14 0.0 0 0 112.66 55.01
  L 112.67 55.01
  A 0.23 0.22 -51.5 0 0 112.98 54.97
  Q 116.56 50.55 115.32 43.88
  Q 113.14 32.25 103.36 28.76
  A 3.51 3.45 56.8 0 0 102.54 28.58
  Q 100.63 28.43 97.39 28.37
  L 97.39 28.38
  Q 99.82 28.38 102.23 28.67
  A 0.22 0.22 0.0 0 1 102.42 28.90
  L 102.42 28.91
  A 0.23 0.23 0.0 0 1 102.25 29.01
  L 96.26 29.66
  A 1.66 1.65 -6.2 0 0 94.79 31.48
  L 95.21 35.41
  A 0.38 0.38 0.0 0 1 94.51 35.65
  Q 93.99 34.82 92.70 34.82
  A 1.01 1.00 15.7 0 0 91.87 35.28
  L 89.66 38.73
  C 88.85 44.22 87.74 49.80 83.76 53.48
  L 83.17 53.37
  A 0.37 0.37 0.0 0 1 83.09 52.67
  L 83.46 52.51
  Q 85.89 50.42 86.42 48.89
  Q 89.51 39.98 90.20 30.75
  A 0.71 0.71 0.0 0 0 89.76 30.05
  C 83.29 27.40 76.30 28.12 74.31 35.67
  L 74.02 38.49
  L 70.79 43.80
  L 70.96 38.31
  C 72.85 31.77 74.74 26.14 81.82 25.54
  Q 86.05 25.18 90.30 25.93
  Z"
/>
<path fill="#464f43" fill-opacity="0.996" d="
  M 55.66 26.23
  L 52.63 39.98
  L 45.55 60.96
  L 41.83 67.56
  Q 36.65 76.15 36.27 86.16
  Q 35.99 93.71 35.48 101.21
  Q 33.62 87.26 34.64 72.95
  Q 42.92 57.60 44.85 52.07
  Q 48.48 41.68 52.77 31.55
  Q 53.93 28.80 55.66 26.23
  Z"
/>
<path fill="#a09454" d="
  M 83.46 52.51
  Q 84.26 51.50 85.05 50.48
  A 0.08 0.06 -78.7 0 0 84.99 50.36
  Q 84.96 50.38 84.92 50.37
  A 0.17 0.04 20.4 0 0 84.76 50.35
  Q 84.46 51.11 83.98 51.33
  A 0.24 0.24 0.0 0 1 83.68 50.98
  L 85.31 48.54
  Q 88.38 40.63 89.10 32.30
  A 0.91 0.91 0.0 0 0 88.59 31.41
  Q 80.00 27.38 74.31 35.67
  C 76.30 28.12 83.29 27.40 89.76 30.05
  A 0.71 0.71 0.0 0 1 90.20 30.75
  Q 89.51 39.98 86.42 48.89
  Q 85.89 50.42 83.46 52.51
  Z"
/>
<path fill="#a09454" d="
  M 113.50 39.54
  Q 110.52 34.77 105.23 31.90
  A 0.38 0.38 0.0 0 0 104.78 32.51
  C 109.57 37.13 113.42 43.06 111.47 50.31
  Q 110.96 42.42 105.35 37.16
  C 101.79 33.83 97.19 33.23 95.31 38.87
  Q 95.17 36.54 94.23 35.50
  Q 93.20 34.36 91.95 35.71
  L 89.66 38.73
  L 91.87 35.28
  A 1.01 1.00 15.7 0 1 92.70 34.82
  Q 93.99 34.82 94.51 35.65
  A 0.38 0.38 0.0 0 0 95.21 35.41
  L 94.79 31.48
  A 1.66 1.65 -6.2 0 1 96.26 29.66
  L 102.25 29.01
  A 0.23 0.23 0.0 0 0 102.42 28.91
  L 102.42 28.90
  A 0.22 0.22 0.0 0 0 102.23 28.67
  Q 99.82 28.38 97.39 28.38
  L 97.39 28.37
  Q 100.63 28.43 102.54 28.58
  A 3.51 3.45 56.8 0 1 103.36 28.76
  Q 113.14 32.25 115.32 43.88
  Q 116.56 50.55 112.98 54.97
  A 0.23 0.22 -51.5 0 1 112.67 55.01
  L 112.66 55.01
  A 0.14 0.14 0.0 0 1 112.63 54.82
  C 115.67 50.59 115.05 44.23 113.50 39.54
  Z"
/>
<path fill="#908245" fill-opacity="0.996" d="
  M 85.31 48.54
  L 83.66 50.02
  C 85.38 46.41 86.59 39.53 83.88 36.12
  C 80.68 32.12 76.53 36.06 74.02 38.49
  L 74.31 35.67
  Q 80.00 27.38 88.59 31.41
  A 0.91 0.91 0.0 0 1 89.10 32.30
  Q 88.38 40.63 85.31 48.54
  Z"
/>
<path fill="#fffed9" d="
  M 30.57 47.16
  L 7.98 33.06
  L 9.35 30.41
  A 0.76 0.76 0.0 0 1 10.46 30.14
  L 30.88 44.40
  A 1.04 1.03 -73.3 0 1 31.32 45.23
  Q 31.33 46.30 30.57 47.16
  Z"
/>
<path fill="#908245" fill-opacity="0.996" d="
  M 113.50 39.54
  C 115.09 45.38 115.71 52.11 109.73 55.76
  Q 111.47 53.55 111.47 50.31
  C 113.42 43.06 109.57 37.13 104.78 32.51
  A 0.38 0.38 0.0 0 1 105.23 31.90
  Q 110.52 34.77 113.50 39.54
  Z"
/>
<path fill="#908245" fill-opacity="0.996" d="
  M 7.98 33.06
  L 30.57 47.16
  Q 30.38 47.74 30.05 48.09
  A 0.69 0.68 36.6 0 1 29.21 48.21
  L 7.56 35.71
  A 0.95 0.95 0.0 0 1 7.20 34.41
  L 7.98 33.06
  Z"
/>
<path fill="#fefdca" d="
  M 95.31 38.87
  Q 94.00 48.35 101.37 54.86
  Q 103.28 56.55 106.18 57.17
  C 104.01 63.66 94.71 56.76 91.68 54.17
  A 3.32 3.28 -74.7 0 1 90.59 52.23
  L 89.47 45.68
  Q 90.31 42.14 92.10 38.85
  Q 92.32 38.47 92.30 38.07
  Q 92.28 37.61 91.88 37.31
  A 0.30 0.30 0.0 0 1 91.93 36.79
  L 92.20 36.66
  A 0.46 0.46 0.0 0 0 92.19 35.83
  L 91.95 35.71
  Q 93.20 34.36 94.23 35.50
  Q 95.17 36.54 95.31 38.87
  Z"
/>
<path fill="#f9e3a2" fill-opacity="0.996" d="
  M 176.24 40.69
  Q 163.60 44.96 152.33 52.65
  Q 151.04 49.72 152.41 48.92
  Q 163.14 42.67 173.81 36.32
  A 0.48 0.48 0.0 0 1 174.50 36.55
  L 176.24 40.69
  Z"
/>
<path fill="#7c8f7a" d="
  M 52.30 45.54
  L 49.73 56.53
  Q 45.33 66.66 45.84 77.54
  Q 46.17 84.75 46.45 91.96
  Q 46.09 91.36 45.65 91.05
  Q 45.09 88.59 43.72 87.16
  A 0.45 0.44 -48.5 0 0 43.04 87.21
  Q 42.00 88.62 41.81 91.01
  C 40.79 80.14 41.07 70.79 45.55 60.96
  L 52.63 39.98
  L 50.10 49.61
  A 0.26 0.25 19.8 0 0 50.24 49.90
  Q 50.56 50.07 50.68 49.74
  Q 51.45 47.64 52.30 45.54
  Z"
/>
<path fill="#c9dbbc" fill-opacity="0.996" d="
  M 118.09 44.48
  Q 118.49 50.83 117.74 57.21
  Q 116.99 63.58 117.57 65.66
  Q 119.17 71.41 125.99 73.42
  Q 130.94 74.88 142.51 77.93
  Q 143.14 78.10 147.17 78.40
  Q 148.95 78.53 149.94 77.43
  Q 151.49 75.70 151.43 74.82
  Q 151.15 70.53 151.22 66.20
  C 156.65 69.59 161.58 72.27 167.75 72.38
  Q 172.15 72.47 175.82 70.75
  Q 180.55 70.86 181.86 65.24
  Q 182.26 63.49 182.53 61.27
  Q 184.90 60.46 185.75 64.49
  C 185.06 72.41 184.01 78.15 177.05 82.27
  C 167.98 87.65 155.85 86.32 146.39 83.33
  Q 145.52 83.05 136.38 79.34
  C 131.52 77.37 125.94 77.18 120.66 76.26
  Q 117.06 75.64 115.63 73.85
  C 113.21 70.81 111.49 67.94 107.89 65.70
  Q 102.68 63.87 95.92 59.80
  Q 93.41 58.29 89.41 57.80
  Q 89.14 57.78 88.92 57.67
  A 0.32 0.32 0.0 0 1 88.85 57.15
  L 89.04 56.98
  Q 93.64 57.59 97.36 60.30
  Q 99.93 62.08 103.22 62.62
  Q 105.14 63.14 107.03 61.35
  Q 108.56 59.91 107.43 56.97
  Q 107.92 56.98 108.00 56.79
  Q 111.87 57.41 115.41 56.06
  A 0.97 0.95 87.8 0 0 116.01 55.40
  Q 118.02 48.01 116.24 40.27
  L 117.65 51.45
  A 0.25 0.22 84.5 0 0 117.88 51.67
  L 117.89 51.67
  A 0.23 0.23 0.0 0 0 118.12 51.44
  L 118.09 44.48
  Z
  M 162.93 81.66
  A 0.75 0.75 0.0 0 0 162.71 83.12
  C 165.56 84.10 169.59 82.96 173.07 81.84
  C 177.33 80.48 179.80 77.33 182.43 73.70
  Q 184.89 70.32 184.77 65.12
  A 0.96 0.95 -81.0 0 0 184.14 64.25
  L 183.85 64.15
  A 0.62 0.61 11.5 0 0 183.03 64.69
  Q 182.25 77.42 170.17 81.00
  C 168.19 81.59 164.73 81.61 162.93 81.66
  Z"
/>
<path fill="#a09454" d="
  M 152.33 52.65
  Q 163.60 44.96 176.24 40.69
  Q 176.39 41.00 176.29 41.48
  A 0.84 0.81 83.8 0 1 175.87 42.02
  Q 164.58 47.91 152.33 52.65
  Z"
/>
<path fill="#87ab9e" fill-opacity="0.996" d="
  M 54.79 44.55
  L 54.52 45.72
  Q 50.31 57.36 48.30 67.28
  Q 46.65 75.38 50.80 83.61
  Q 50.40 83.37 50.93 83.84
  L 50.73 91.00
  C 49.51 93.80 50.19 98.80 50.51 101.19
  L 46.45 91.96
  Q 46.17 84.75 45.84 77.54
  Q 45.33 66.66 49.73 56.53
  Q 53.00 50.23 54.45 43.34
  Q 54.73 43.91 54.79 44.55
  Z"
/>
<path fill="#b3b993" fill-opacity="0.996" d="
  M 54.82 47.31
  Q 54.81 46.03 55.38 44.94
  A 0.15 0.15 0.0 0 1 55.67 45.01
  Q 55.66 46.16 54.82 47.31
  Z"
/>
<path fill="#b3b993" fill-opacity="0.996" d="
  M 54.52 45.72
  Q 54.52 46.60 54.82 47.31
  L 52.25 67.46
  Q 50.39 75.23 50.80 83.61
  Q 46.65 75.38 48.30 67.28
  Q 50.31 57.36 54.52 45.72
  Z"
/>
<path fill="#f9e3a2" fill-opacity="0.996" d="
  M 89.47 45.68
  L 90.59 52.23
  A 3.32 3.28 -74.7 0 0 91.68 54.17
  C 94.71 56.76 104.01 63.66 106.18 57.17
  L 107.43 56.97
  Q 108.56 59.91 107.03 61.35
  Q 105.14 63.14 103.22 62.62
  Q 101.42 60.87 97.36 60.30
  Q 93.64 57.59 89.04 56.98
  L 92.75 57.17
  A 0.19 0.19 0.0 0 0 92.88 56.83
  L 89.29 53.79
  A 1.00 1.00 0.0 0 1 88.94 52.95
  L 89.47 45.68
  Z"
/>
<rect fill="#f9e3a2" fill-opacity="0.996" x="-0.35" y="-6.70" transform="translate(119.32,52.51) rotate(-1.8)" width="0.70" height="13.40" rx="0.33"/>
<path fill="#fffed9" d="
  M 62.33 51.22
  A 0.75 0.74 52.1 0 1 63.47 51.37
  L 66.37 55.85
  A 12.24 12.22 -0.7 0 0 70.25 59.63
  Q 71.76 60.55 76.27 62.42
  A 1.90 1.81 30.1 0 1 77.09 65.25
  Q 76.20 66.38 74.76 66.55
  C 66.72 67.49 60.15 61.78 61.28 53.45
  Q 61.48 52.02 62.33 51.22
  Z"
/>
<path fill="#f9e3a2" fill-opacity="0.996" d="
  M 83.76 53.48
  Q 86.72 51.38 88.25 47.97
  A 0.22 0.22 0.0 0 1 88.67 48.06
  L 88.64 52.14
  A 0.95 0.94 -16.6 0 1 88.21 52.93
  Q 86.18 54.26 84.29 54.42
  A 0.53 0.52 79.3 0 1 83.74 54.04
  Q 83.67 53.77 83.76 53.48
  Z"
/>
<path fill="#fefeee" d="
  M 124.48 49.01
  A 0.37 0.37 0.0 0 1 125.21 48.90
  C 127.29 55.17 129.38 59.59 133.67 65.08
  Q 137.05 69.42 139.30 73.14
  A 0.44 0.44 0.0 0 1 138.88 73.81
  C 133.97 73.35 129.31 71.11 126.69 66.82
  C 124.08 62.53 124.37 54.37 124.48 49.01
  Z"
/>
<path fill="#fefdca" d="
  M 181.35 54.00
  Q 181.31 54.13 181.25 54.24
  A 0.59 0.59 0.0 0 1 180.79 54.57
  Q 168.00 56.22 154.88 60.66
  L 155.15 57.89
  A 0.79 0.78 84.5 0 1 155.71 57.21
  L 180.06 50.15
  A 0.64 0.63 77.6 0 1 180.86 50.67
  L 181.35 54.00
  Z"
/>
<path fill="#fefdca" d="
  M 13.44 55.27
  Q 13.57 55.65 14.04 55.64
  L 15.97 55.78
  L 23.27 56.50
  Q 23.66 56.71 24.21 56.68
  L 26.29 57.11
  A 0.78 0.77 1.2 0 1 26.89 57.73
  Q 27.05 58.71 26.65 59.74
  Q 14.39 58.88 5.37 58.81
  Q 2.08 58.79 0.99 56.41
  Q -0.04 52.52 6.86 54.81
  A 2.98 2.93 -34.1 0 0 7.62 54.95
  L 13.44 55.27
  Z"
/>
<path fill="#a09454" d="
  M 154.88 60.66
  Q 168.00 56.22 180.79 54.57
  A 0.59 0.59 0.0 0 0 181.25 54.24
  Q 181.31 54.13 181.35 54.00
  L 181.61 54.74
  A 1.13 1.12 -16.8 0 1 180.82 56.21
  Q 167.71 59.43 154.88 60.66
  Z"
/>
<path fill="#a09454" d="
  M 13.96 55.34
  L 14.04 55.64
  Q 13.57 55.65 13.44 55.27
  Q 13.58 55.40 13.96 55.34
  Z"
/>
<path fill="#02111f" fill-opacity="0.996" d="
  M 15.97 55.78
  L 14.04 55.64
  L 13.96 55.34
  Q 15.00 55.36 15.97 55.78
  Z"
/>
<path fill="#02111f" fill-opacity="0.996" d="
  M 24.21 56.68
  Q 23.66 56.71 23.27 56.50
  L 24.21 56.68
  Z"
/>
<path fill="#a09454" d="
  M 26.65 59.74
  Q 26.72 60.23 26.57 60.54
  Q 26.42 60.85 25.91 60.90
  Q 25.07 60.98 24.21 60.89
  L 18.73 60.90
  L 1.24 60.61
  A 0.41 0.41 0.0 0 1 0.83 60.18
  L 0.99 56.41
  Q 2.08 58.79 5.37 58.81
  Q 14.39 58.88 26.65 59.74
  Z"
/>
<path fill="#b3b993" fill-opacity="0.996" d="
  M 107.89 65.70
  Q 107.19 66.73 108.29 68.67
  C 108.92 69.79 108.88 70.56 108.55 71.70
  L 104.71 68.29
  L 94.39 59.38
  A 1.83 1.82 73.0 0 0 93.66 58.99
  Q 90.68 58.18 88.70 59.96
  Q 88.01 60.57 86.28 62.88
  Q 86.49 58.86 89.41 57.80
  Q 93.41 58.29 95.92 59.80
  Q 102.68 63.87 107.89 65.70
  Z"
/>
<path fill="#4a715c" fill-opacity="0.996" d="
  M 104.71 68.29
  L 101.24 65.80
  Q 101.05 65.32 100.82 65.10
  A 0.08 0.08 0.0 0 0 100.69 65.19
  C 101.65 67.45 103.14 69.81 103.65 72.03
  Q 105.32 79.23 103.44 86.24
  A 0.83 0.82 1.7 0 1 102.80 86.84
  L 95.81 88.24
  Q 94.33 88.35 93.36 87.88
  Q 97.64 85.93 97.99 81.76
  Q 98.23 78.89 97.88 71.50
  Q 97.60 65.70 92.91 62.41
  A 2.54 2.48 -20.4 0 0 92.03 62.02
  Q 87.94 61.10 85.27 64.85
  Q 84.78 63.49 86.28 62.88
  Q 88.01 60.57 88.70 59.96
  Q 90.68 58.18 93.66 58.99
  A 1.83 1.82 73.0 0 1 94.39 59.38
  L 104.71 68.29
  Z"
/>
<path fill="#dcdcae" fill-opacity="0.996" d="
  M 103.22 62.62
  Q 99.93 62.08 97.36 60.30
  Q 101.42 60.87 103.22 62.62
  Z"
/>
<path fill="#464f43" fill-opacity="0.996" d="
  M 24.21 60.89
  L 18.73 60.90
  L 24.21 60.89
  Z"
/>
<path fill="#5d766b" fill-opacity="0.996" d="
  M 45.55 60.96
  C 41.07 70.79 40.79 80.14 41.81 91.01
  Q 40.61 91.41 40.07 92.71
  Q 38.93 91.55 38.46 90.00
  C 38.62 82.07 38.96 74.37 41.83 67.56
  L 45.55 60.96
  Z"
/>
<path fill="#7c8f7a" d="
  M 182.53 61.27
  Q 182.26 63.49 181.86 65.24
  Q 180.55 70.86 175.82 70.75
  Q 179.43 67.97 180.23 65.96
  Q 181.12 63.70 182.53 61.27
  Z"
/>
<path fill="#52807b" d="
  M 101.24 65.80
  Q 105.38 71.03 107.09 77.78
  L 107.02 91.94
  C 109.09 98.52 112.81 102.95 117.74 110.30
  Q 118.33 111.61 119.30 112.62
  A 0.16 0.16 0.0 0 1 119.29 112.86
  L 119.28 112.87
  A 0.16 0.16 0.0 0 1 119.06 112.85
  L 107.41 98.96
  A 1.26 1.26 0.0 0 0 106.52 98.52
  C 102.80 98.32 97.54 100.74 94.02 102.17
  Q 90.96 103.42 84.89 103.62
  C 88.60 103.49 95.47 102.25 97.59 98.75
  L 94.57 99.27
  Q 99.43 93.54 95.81 88.24
  L 102.80 86.84
  A 0.83 0.82 1.7 0 0 103.44 86.24
  Q 105.32 79.23 103.65 72.03
  C 103.14 69.81 101.65 67.45 100.69 65.19
  A 0.08 0.08 0.0 0 1 100.82 65.10
  Q 101.05 65.32 101.24 65.80
  Z"
/>
<path fill="#e6f3fa" fill-opacity="0.996" d="
  M 162.93 81.66
  C 164.73 81.61 168.19 81.59 170.17 81.00
  Q 182.25 77.42 183.03 64.69
  A 0.62 0.61 11.5 0 1 183.85 64.15
  L 184.14 64.25
  A 0.96 0.95 -81.0 0 1 184.77 65.12
  Q 184.89 70.32 182.43 73.70
  C 179.80 77.33 177.33 80.48 173.07 81.84
  C 169.59 82.96 165.56 84.10 162.71 83.12
  A 0.75 0.75 0.0 0 1 162.93 81.66
  Z"
/>
<path fill="#a7c1ab" fill-opacity="0.996" d="
  M 185.75 64.49
  Q 187.36 69.55 186.93 74.65
  Q 183.64 80.12 179.49 83.50
  C 171.96 89.63 160.38 89.85 150.76 88.05
  C 141.82 86.37 134.99 78.79 124.90 80.95
  Q 122.78 81.41 117.19 83.53
  A 0.93 0.92 52.4 0 1 116.31 83.41
  C 112.45 80.54 110.80 76.39 108.55 71.70
  C 108.88 70.56 108.92 69.79 108.29 68.67
  Q 107.19 66.73 107.89 65.70
  C 111.49 67.94 113.21 70.81 115.63 73.85
  Q 117.06 75.64 120.66 76.26
  C 125.94 77.18 131.52 77.37 136.38 79.34
  Q 145.52 83.05 146.39 83.33
  C 155.85 86.32 167.98 87.65 177.05 82.27
  C 184.01 78.15 185.06 72.41 185.75 64.49
  Z"
/>
<path fill="#87ab9e" fill-opacity="0.996" d="
  M 104.71 68.29
  L 108.55 71.70
  C 110.80 76.39 112.45 80.54 116.31 83.41
  A 0.93 0.92 52.4 0 0 117.19 83.53
  Q 122.78 81.41 124.90 80.95
  C 134.99 78.79 141.82 86.37 150.76 88.05
  C 160.38 89.85 171.96 89.63 179.49 83.50
  Q 183.64 80.12 186.93 74.65
  Q 186.87 78.49 185.63 81.65
  Q 175.93 92.73 159.91 92.88
  C 152.88 92.95 147.24 92.33 141.50 88.46
  Q 138.13 86.19 134.62 84.18
  C 129.68 81.36 124.05 82.04 123.36 88.86
  Q 123.23 88.69 123.07 89.31
  Q 117.03 91.19 117.27 98.36
  L 107.09 77.78
  Q 105.38 71.03 101.24 65.80
  L 104.71 68.29
  Z"
/>
<path fill="#fefdca" d="
  M 25.34 69.07
  L 10.97 71.30
  A 1.31 1.26 52.6 0 1 10.18 71.18
  Q 9.28 70.75 8.43 69.38
  L 23.77 66.05
  A 0.79 0.79 0.0 0 1 24.70 66.62
  L 25.34 69.07
  Z"
/>
<path fill="#2b525e" fill-opacity="0.996" d="
  M 41.83 67.56
  C 38.96 74.37 38.62 82.07 38.46 90.00
  Q 36.29 109.55 48.75 124.27
  C 56.42 133.33 68.48 141.37 81.09 143.89
  C 88.81 145.43 96.62 147.06 102.50 151.93
  C 104.99 153.99 107.35 157.93 109.86 160.73
  Q 108.64 161.49 107.89 160.40
  Q 101.18 150.66 90.68 148.60
  C 80.04 146.51 68.98 144.49 59.70 138.11
  Q 52.80 133.37 48.09 128.48
  C 40.94 121.05 37.60 111.52 35.48 101.21
  Q 35.99 93.71 36.27 86.16
  Q 36.65 76.15 41.83 67.56
  Z"
/>
<path fill="#a7c1ab" fill-opacity="0.996" d="
  M 52.25 67.46
  L 53.18 73.05
  A 0.69 0.69 0.0 0 0 54.01 73.61
  L 67.39 70.64
  A 1.07 1.06 62.5 0 1 68.42 70.97
  L 73.44 76.53
  A 1.40 1.38 57.0 0 0 75.04 76.88
  L 82.85 73.42
  C 82.80 76.90 82.24 81.96 84.08 85.00
  Q 84.06 85.56 84.49 85.64
  L 85.96 86.97
  L 86.19 91.97
  Q 84.54 94.44 82.20 96.26
  Q 76.71 92.25 75.02 86.93
  C 72.86 80.15 72.14 76.65 68.92 72.48
  A 1.97 1.96 -23.5 0 0 67.03 71.74
  Q 62.03 72.59 59.59 77.25
  Q 56.92 82.96 50.93 83.84
  Q 50.40 83.37 50.80 83.61
  Q 50.39 75.23 52.25 67.46
  Z
  M 83.13 94.92
  L 78.51 90.14
  A 0.16 0.16 0.0 0 0 78.29 90.14
  L 78.22 90.20
  A 3.31 1.39 46.0 0 0 79.52 93.55
  L 79.76 93.79
  A 3.31 1.39 46.0 0 0 83.06 95.21
  L 83.12 95.14
  A 0.16 0.16 0.0 0 0 83.13 94.92
  Z"
/>
<path fill="#a09454" d="
  M 25.34 69.07
  Q 17.92 72.05 10.00 73.65
  A 0.72 0.71 78.5 0 1 9.15 73.08
  L 8.43 69.38
  Q 9.28 70.75 10.18 71.18
  A 1.31 1.26 52.6 0 0 10.97 71.30
  L 25.34 69.07
  Z"
/>
<path fill="#87ab9e" fill-opacity="0.996" d="
  M 82.20 96.26
  Q 85.74 95.26 86.19 91.97
  L 85.96 86.97
  Q 89.35 89.23 93.36 87.88
  Q 94.33 88.35 95.81 88.24
  Q 99.43 93.54 94.57 99.27
  Q 88.01 102.42 80.00 100.36
  L 76.13 96.61
  A 0.24 0.23 42.4 0 1 76.11 96.28
  L 76.12 96.28
  A 0.24 0.24 0.0 0 1 76.45 96.25
  L 80.59 99.40
  Q 86.52 101.53 92.89 98.78
  A 0.39 0.39 0.0 0 0 92.78 98.04
  Q 92.10 97.95 91.10 98.12
  Q 85.55 99.09 79.95 98.29
  C 71.32 91.69 73.22 82.67 68.38 73.52
  A 0.98 0.96 79.1 0 0 67.64 73.01
  Q 65.53 72.79 63.36 73.52
  L 62.92 79.45
  L 59.59 77.25
  Q 62.03 72.59 67.03 71.74
  A 1.97 1.96 -23.5 0 1 68.92 72.48
  C 72.14 76.65 72.86 80.15 75.02 86.93
  Q 76.71 92.25 82.20 96.26
  Z
  M 78.96 95.70
  Q 81.60 97.05 84.55 97.42
  A 0.11 0.10 -75.1 0 0 84.67 97.34
  A 0.21 0.19 15.7 0 0 84.52 97.11
  L 79.02 95.17
  A 0.05 0.04 -62.9 0 0 78.97 95.19
  L 78.87 95.48
  A 0.18 0.18 0.0 0 0 78.96 95.70
  Z"
/>
<path fill="#3d7585" fill-opacity="0.996" d="
  M 79.95 98.29
  L 80.59 99.40
  L 76.45 96.25
  A 0.24 0.24 0.0 0 0 76.12 96.28
  L 76.11 96.28
  A 0.24 0.23 42.4 0 0 76.13 96.61
  L 80.00 100.36
  C 85.57 103.84 92.43 102.54 97.59 98.75
  C 95.47 102.25 88.60 103.49 84.89 103.62
  Q 90.96 103.42 94.02 102.17
  C 97.54 100.74 102.80 98.32 106.52 98.52
  A 1.26 1.26 0.0 0 1 107.41 98.96
  L 119.06 112.85
  A 0.16 0.16 0.0 0 0 119.28 112.87
  L 119.29 112.86
  A 0.16 0.16 0.0 0 0 119.30 112.62
  Q 118.33 111.61 117.74 110.30
  C 125.84 121.09 134.40 130.87 146.49 137.27
  Q 158.86 143.82 170.46 141.70
  C 180.07 139.94 185.90 132.87 187.58 123.43
  L 186.94 132.85
  C 181.01 144.41 171.04 148.04 158.67 145.92
  C 139.22 142.58 126.34 126.65 115.23 110.70
  Q 112.54 106.85 109.26 104.48
  C 102.61 99.69 96.42 104.70 89.00 104.76
  Q 84.17 104.80 79.57 103.20
  Q 73.08 97.77 70.45 90.04
  Q 70.12 86.98 69.97 80.65
  Q 69.81 74.45 63.36 73.52
  Q 65.53 72.79 67.64 73.01
  A 0.98 0.96 79.1 0 1 68.38 73.52
  C 73.22 82.67 71.32 91.69 79.95 98.29
  Z"
/>
<path fill="#1b3f4e" fill-opacity="0.996" d="
  M 34.64 72.95
  Q 33.62 87.26 35.48 101.21
  C 37.60 111.52 40.94 121.05 48.09 128.48
  Q 52.80 133.37 59.70 138.11
  C 68.98 144.49 80.04 146.51 90.68 148.60
  Q 101.18 150.66 107.89 160.40
  Q 108.64 161.49 109.86 160.73
  L 110.06 158.29
  L 110.36 163.58
  A 0.90 0.90 0.0 0 1 108.62 163.97
  Q 104.09 152.71 91.32 150.50
  C 80.07 148.56 74.01 148.21 66.61 144.41
  Q 56.15 139.04 47.45 130.40
  Q 42.02 125.01 38.34 116.71
  C 33.26 105.22 31.19 93.75 30.65 81.25
  L 34.64 72.95
  Z"
/>
<path fill="#4a715c" fill-opacity="0.996" d="
  M 70.45 90.04
  L 64.08 82.54
  Q 63.85 80.08 65.03 77.66
  A 0.13 0.13 0.0 0 0 64.97 77.48
  L 64.59 77.26
  A 0.34 0.34 0.0 0 0 64.10 77.42
  L 62.94 80.07
  Q 63.19 80.22 62.92 79.45
  L 63.36 73.52
  Q 69.81 74.45 69.97 80.65
  Q 70.12 86.98 70.45 90.04
  Z"
/>
<path fill="#98c2c0" fill-opacity="0.996" d="
  M 59.59 77.25
  L 62.92 79.45
  Q 63.19 80.22 62.94 80.07
  L 62.65 87.54
  Q 57.16 93.22 58.60 103.01
  Q 59.47 108.99 61.46 114.34
  A 0.20 0.20 0.0 0 1 61.15 114.56
  C 54.09 108.75 51.16 99.92 50.73 91.00
  L 50.93 83.84
  Q 56.92 82.96 59.59 77.25
  Z"
/>
<path fill="#02111f" fill-opacity="0.996" d="
  M 64.08 82.54
  C 63.17 93.72 67.43 105.39 76.73 112.05
  C 81.97 115.40 86.36 115.74 91.78 117.06
  Q 105.01 121.24 110.08 134.49
  Q 113.24 141.73 114.02 149.54
  Q 113.44 148.85 112.77 148.65
  L 110.04 152.40
  Q 109.07 144.20 106.71 136.73
  C 104.18 129.62 98.70 122.00 91.54 119.24
  Q 88.71 118.15 87.18 117.82
  Q 74.02 115.01 67.33 103.43
  Q 66.13 101.37 64.12 95.64
  L 62.65 87.54
  L 62.94 80.07
  L 64.10 77.42
  A 0.34 0.34 0.0 0 1 64.59 77.26
  L 64.97 77.48
  A 0.13 0.13 0.0 0 1 65.03 77.66
  Q 63.85 80.08 64.08 82.54
  Z"
/>
<path fill="#619aa6" fill-opacity="0.996" d="
  M 117.27 98.36
  C 121.39 108.99 128.09 116.59 136.99 124.09
  C 147.73 133.15 159.51 136.61 172.58 133.90
  Q 175.70 133.25 179.72 129.88
  A 0.45 0.45 0.0 0 0 179.87 129.45
  Q 179.86 129.36 179.86 129.30
  A 1.04 1.02 -20.2 0 1 180.14 128.71
  Q 183.21 125.44 184.50 121.03
  L 186.22 116.20
  Q 187.36 118.11 186.92 120.50
  Q 182.67 135.90 168.47 137.90
  C 151.89 140.23 135.52 127.89 125.55 115.93
  Q 117.12 105.81 109.85 95.44
  Q 108.58 93.62 107.02 91.94
  L 107.09 77.78
  L 117.27 98.36
  Z"
/>
<path fill="#1d2c36" d="
  M 30.65 81.25
  C 31.19 93.75 33.26 105.22 38.34 116.71
  Q 42.02 125.01 47.45 130.40
  Q 56.15 139.04 66.61 144.41
  C 74.01 148.21 80.07 148.56 91.32 150.50
  Q 104.09 152.71 108.62 163.97
  A 0.90 0.90 0.0 0 0 110.36 163.58
  L 110.06 158.29
  L 109.91 153.50
  L 110.04 152.40
  L 112.77 148.65
  Q 113.60 157.59 110.38 165.71
  A 2.00 1.99 29.5 0 1 107.31 166.56
  Q 106.63 166.04 105.39 164.35
  C 100.43 157.60 91.86 157.50 84.37 158.55
  Q 79.84 159.19 74.68 158.91
  A 5.04 4.95 -35.2 0 1 73.64 158.74
  L 71.01 158.05
  A 0.93 0.93 0.0 0 0 70.03 159.50
  Q 72.69 163.05 77.21 165.23
  A 1.83 1.77 37.3 0 1 77.67 168.21
  Q 76.96 168.81 75.75 168.84
  C 65.73 169.06 56.33 163.02 50.07 155.68
  Q 48.82 154.22 46.90 153.52
  Q 30.43 147.52 25.34 129.88
  Q 22.25 119.19 23.22 108.51
  Q 24.51 94.21 30.65 81.25
  Z"
/>
<path fill="#638c86" fill-opacity="0.996" d="
  M 185.63 81.65
  Q 185.37 83.53 184.55 84.93
  Q 180.73 89.47 178.01 91.51
  C 171.75 96.18 161.92 96.97 154.02 96.35
  C 145.51 95.67 140.92 91.16 134.25 86.49
  C 130.58 83.92 124.71 83.53 124.31 89.57
  L 123.36 88.86
  C 124.05 82.04 129.68 81.36 134.62 84.18
  Q 138.13 86.19 141.50 88.46
  C 147.24 92.33 152.88 92.95 159.91 92.88
  Q 175.93 92.73 185.63 81.65
  Z"
/>
<path fill="#206f71" fill-opacity="0.996" d="
  M 70.45 90.04
  Q 73.08 97.77 79.57 103.20
  Q 85.84 106.85 93.85 106.83
  L 81.16 107.02
  L 82.79 108.54
  A 0.15 0.15 0.0 0 1 82.80 108.75
  Q 82.72 108.84 82.68 108.99
  A 0.23 0.23 0.0 0 0 82.82 109.26
  Q 83.35 109.45 83.47 109.49
  A 0.04 0.01 29.9 0 1 83.51 109.53
  C 82.99 109.41 81.99 109.12 80.41 108.66
  A 0.21 0.20 -18.8 0 0 80.23 109.02
  L 86.83 113.62
  A 0.25 0.24 -21.8 0 1 86.64 114.06
  L 76.73 112.05
  C 67.43 105.39 63.17 93.72 64.08 82.54
  L 70.45 90.04
  Z"
/>
<path fill="#446f6f" fill-opacity="0.996" d="
  M 184.55 84.93
  L 182.79 88.60
  Q 173.69 97.51 161.42 98.75
  Q 155.24 99.37 150.47 98.61
  C 143.58 97.51 140.18 94.06 134.26 88.76
  C 131.15 85.98 125.86 84.66 124.92 90.33
  Q 124.18 90.14 124.31 89.57
  C 124.71 83.53 130.58 83.92 134.25 86.49
  C 140.92 91.16 145.51 95.67 154.02 96.35
  C 161.92 96.97 171.75 96.18 178.01 91.51
  Q 180.73 89.47 184.55 84.93
  Z"
/>
<path fill="#468392" fill-opacity="0.996" d="
  M 45.65 91.05
  C 47.16 109.03 58.50 127.27 76.24 133.06
  Q 87.06 136.59 102.68 139.72
  L 106.71 136.73
  Q 109.07 144.20 110.04 152.40
  L 109.91 153.50
  Q 101.93 145.09 90.69 142.09
  C 76.12 138.20 61.18 133.11 52.36 120.04
  Q 46.99 112.07 45.70 108.49
  Q 42.85 100.59 40.07 92.71
  Q 40.61 91.41 41.81 91.01
  Q 42.00 88.62 43.04 87.21
  A 0.45 0.44 -48.5 0 1 43.72 87.16
  Q 45.09 88.59 45.65 91.05
  Z"
/>
<path fill="#02111f" fill-opacity="0.996" d="
  M 84.49 85.64
  Q 84.06 85.56 84.08 85.00
  L 84.49 85.64
  Z"
/>
<path fill="#295f63" fill-opacity="0.996" d="
  M 182.79 88.60
  C 177.88 97.87 169.12 103.34 159.55 106.55
  Q 153.47 108.60 147.26 109.04
  Q 137.30 107.05 131.75 99.55
  C 136.71 103.77 145.07 108.82 151.80 107.38
  A 0.31 0.31 0.0 0 0 151.96 106.87
  Q 151.96 106.86 149.89 105.71
  Q 148.50 104.93 147.37 104.52
  Q 138.53 101.31 131.60 94.93
  Q 130.90 94.29 127.79 93.28
  L 126.61 90.20
  A 0.59 0.59 0.0 0 0 125.47 90.34
  L 125.39 91.00
  L 124.92 90.33
  C 125.86 84.66 131.15 85.98 134.26 88.76
  C 140.18 94.06 143.58 97.51 150.47 98.61
  Q 155.24 99.37 161.42 98.75
  Q 173.69 97.51 182.79 88.60
  Z"
/>
<path fill="#7ab3be" fill-opacity="0.996" d="
  M 62.65 87.54
  L 64.12 95.64
  Q 61.39 100.80 63.29 106.63
  Q 67.16 118.42 78.42 122.83
  Q 83.64 124.87 88.86 126.91
  Q 93.91 128.89 91.76 133.09
  Q 75.20 133.35 63.14 121.87
  Q 54.08 113.24 50.51 101.19
  C 50.19 98.80 49.51 93.80 50.73 91.00
  C 51.16 99.92 54.09 108.75 61.15 114.56
  A 0.20 0.20 0.0 0 0 61.46 114.34
  Q 59.47 108.99 58.60 103.01
  Q 57.16 93.22 62.65 87.54
  Z
  M 67.88 122.81
  Q 76.92 131.22 88.72 130.68
  A 0.78 0.78 0.0 0 0 88.94 129.17
  L 68.40 121.95
  A 0.51 0.51 0.0 0 0 67.88 122.81
  Z"
/>
<path fill="#7ab3be" fill-opacity="0.996" d="
  M 123.07 89.31
  C 124.93 98.98 127.94 107.16 134.91 112.66
  Q 141.23 117.65 152.17 124.66
  C 159.69 129.48 162.98 131.93 170.71 131.50
  Q 172.37 131.40 174.00 130.74
  Q 176.24 129.82 177.08 129.33
  Q 182.01 126.44 183.30 120.51
  A 0.96 0.95 -69.1 0 1 184.70 119.88
  Q 184.88 119.98 184.50 121.03
  Q 183.21 125.44 180.14 128.71
  A 1.04 1.02 -20.2 0 0 179.86 129.30
  Q 179.86 129.36 179.87 129.45
  A 0.45 0.45 0.0 0 1 179.72 129.88
  Q 175.70 133.25 172.58 133.90
  C 159.51 136.61 147.73 133.15 136.99 124.09
  C 128.09 116.59 121.39 108.99 117.27 98.36
  Q 117.03 91.19 123.07 89.31
  Z
  M 131.60 116.85
  L 138.58 122.88
  Q 144.63 129.90 153.45 130.87
  A 0.86 0.85 -20.5 0 0 154.13 129.39
  C 149.18 124.88 143.50 121.31 137.52 117.18
  C 133.68 114.54 130.02 111.16 126.77 108.28
  A 0.86 0.86 0.0 0 0 125.46 109.37
  Q 127.94 113.50 131.60 116.85
  Z"
/>
<path fill="#356978" fill-opacity="0.996" d="
  M 38.46 90.00
  Q 38.93 91.55 40.07 92.71
  Q 42.85 100.59 45.70 108.49
  Q 46.99 112.07 52.36 120.04
  C 61.18 133.11 76.12 138.20 90.69 142.09
  Q 101.93 145.09 109.91 153.50
  L 110.06 158.29
  L 109.86 160.73
  C 107.35 157.93 104.99 153.99 102.50 151.93
  C 96.62 147.06 88.81 145.43 81.09 143.89
  C 68.48 141.37 56.42 133.33 48.75 124.27
  Q 36.29 109.55 38.46 90.00
  Z"
/>
<path fill="#4fa4b3" fill-opacity="0.996" d="
  M 123.36 88.86
  L 124.31 89.57
  Q 124.18 90.14 124.92 90.33
  L 125.39 91.00
  Q 129.38 102.49 140.34 107.82
  Q 141.15 108.21 141.87 108.93
  Q 142.46 109.51 144.96 109.81
  Q 145.97 109.93 147.00 109.91
  Q 150.51 109.67 153.19 112.06
  C 157.45 115.84 162.23 122.60 169.33 123.30
  Q 178.70 124.23 182.62 114.38
  A 1.58 1.49 -67.1 0 1 184.65 113.48
  Q 185.95 114.07 186.22 116.20
  L 184.50 121.03
  Q 184.88 119.98 184.70 119.88
  A 0.96 0.95 -69.1 0 0 183.30 120.51
  Q 182.01 126.44 177.08 129.33
  Q 176.24 129.82 174.00 130.74
  Q 172.37 131.40 170.71 131.50
  C 162.98 131.93 159.69 129.48 152.17 124.66
  Q 141.23 117.65 134.91 112.66
  C 127.94 107.16 124.93 98.98 123.07 89.31
  Q 123.23 88.69 123.36 88.86
  Z"
/>
<path fill="#02111f" fill-opacity="0.996" d="
  M 127.79 93.28
  Q 129.17 96.87 131.75 99.55
  Q 137.30 107.05 147.26 109.04
  Q 146.62 109.04 147.00 109.91
  Q 145.97 109.93 144.96 109.81
  Q 142.46 109.51 141.87 108.93
  Q 141.15 108.21 140.34 107.82
  Q 129.38 102.49 125.39 91.00
  L 125.47 90.34
  A 0.59 0.59 0.0 0 1 126.61 90.20
  L 127.79 93.28
  Z"
/>
<path fill="#fefeee" d="
  M 83.13 94.92
  A 0.16 0.16 0.0 0 1 83.12 95.14
  L 83.06 95.21
  A 3.31 1.39 46.0 0 1 79.76 93.79
  L 79.52 93.55
  A 3.31 1.39 46.0 0 1 78.22 90.20
  L 78.29 90.14
  A 0.16 0.16 0.0 0 1 78.51 90.14
  L 83.13 94.92
  Z"
/>
<path fill="#619aa6" fill-opacity="0.996" d="
  M 46.45 91.96
  L 50.51 101.19
  Q 54.08 113.24 63.14 121.87
  Q 75.20 133.35 91.76 133.09
  Q 97.86 135.41 102.68 139.72
  Q 87.06 136.59 76.24 133.06
  C 58.50 127.27 47.16 109.03 45.65 91.05
  Q 46.09 91.36 46.45 91.96
  Z"
/>
<path fill="#468392" fill-opacity="0.996" d="
  M 186.92 120.50
  Q 187.65 121.80 187.58 123.43
  C 185.90 132.87 180.07 139.94 170.46 141.70
  Q 158.86 143.82 146.49 137.27
  C 134.40 130.87 125.84 121.09 117.74 110.30
  C 112.81 102.95 109.09 98.52 107.02 91.94
  Q 108.58 93.62 109.85 95.44
  Q 117.12 105.81 125.55 115.93
  C 135.52 127.89 151.89 140.23 168.47 137.90
  Q 182.67 135.90 186.92 120.50
  Z"
/>
<path fill="#98c2c0" fill-opacity="0.996" d="
  M 86.19 91.97
  Q 85.74 95.26 82.20 96.26
  Q 84.54 94.44 86.19 91.97
  Z"
/>
<path fill="#1e7c77" fill-opacity="0.996" d="
  M 131.75 99.55
  Q 129.17 96.87 127.79 93.28
  Q 130.90 94.29 131.60 94.93
  Q 138.53 101.31 147.37 104.52
  Q 148.50 104.93 149.89 105.71
  Q 151.96 106.86 151.96 106.87
  A 0.31 0.31 0.0 0 1 151.80 107.38
  C 145.07 108.82 136.71 103.77 131.75 99.55
  Z"
/>
<path fill="#98c2c0" fill-opacity="0.996" d="
  M 78.96 95.70
  A 0.18 0.18 0.0 0 1 78.87 95.48
  L 78.97 95.19
  A 0.05 0.04 -62.9 0 1 79.02 95.17
  L 84.52 97.11
  A 0.21 0.19 15.7 0 1 84.67 97.34
  A 0.11 0.10 -75.1 0 1 84.55 97.42
  Q 81.60 97.05 78.96 95.70
  Z"
/>
<path fill="#4fa4b3" fill-opacity="0.996" d="
  M 106.71 136.73
  L 102.68 139.72
  Q 97.86 135.41 91.76 133.09
  Q 93.91 128.89 88.86 126.91
  Q 83.64 124.87 78.42 122.83
  Q 67.16 118.42 63.29 106.63
  Q 61.39 100.80 64.12 95.64
  Q 66.13 101.37 67.33 103.43
  Q 74.02 115.01 87.18 117.82
  Q 88.71 118.15 91.54 119.24
  C 98.70 122.00 104.18 129.62 106.71 136.73
  Z"
/>
<path fill="#619aa6" fill-opacity="0.996" d="
  M 80.59 99.40
  L 79.95 98.29
  Q 85.55 99.09 91.10 98.12
  Q 92.10 97.95 92.78 98.04
  A 0.39 0.39 0.0 0 1 92.89 98.78
  Q 86.52 101.53 80.59 99.40
  Z"
/>
<path fill="#468392" fill-opacity="0.996" d="
  M 97.59 98.75
  C 92.43 102.54 85.57 103.84 80.00 100.36
  Q 88.01 102.42 94.57 99.27
  L 97.59 98.75
  Z"
/>
<path fill="#2f5c6a" fill-opacity="0.996" d="
  M 186.94 132.85
  Q 185.59 140.07 181.83 145.99
  C 177.06 148.09 171.96 150.79 167.10 151.50
  C 150.67 153.89 133.15 142.58 124.26 130.04
  C 121.11 125.60 116.98 119.48 113.48 114.01
  C 108.47 106.19 102.28 106.03 93.85 106.83
  Q 85.84 106.85 79.57 103.20
  Q 84.17 104.80 89.00 104.76
  C 96.42 104.70 102.61 99.69 109.26 104.48
  Q 112.54 106.85 115.23 110.70
  C 126.34 126.65 139.22 142.58 158.67 145.92
  C 171.04 148.04 181.01 144.41 186.94 132.85
  Z"
/>
<path fill="#1b3f4e" fill-opacity="0.996" d="
  M 181.83 145.99
  L 178.38 150.69
  C 164.63 155.67 149.54 154.70 137.34 146.13
  Q 128.57 139.97 122.42 132.33
  C 118.67 127.68 115.59 122.93 110.76 119.68
  A 0.17 0.17 0.0 0 0 110.50 119.89
  C 112.72 125.34 117.14 137.08 114.00 141.97
  A 0.32 0.31 -40.4 0 1 113.45 141.93
  L 110.08 134.49
  Q 105.01 121.24 91.78 117.06
  Q 98.94 118.10 104.17 123.02
  A 0.10 0.10 0.0 0 0 104.33 122.91
  C 100.21 113.64 90.90 108.55 81.16 107.02
  L 93.85 106.83
  C 102.28 106.03 108.47 106.19 113.48 114.01
  C 116.98 119.48 121.11 125.60 124.26 130.04
  C 133.15 142.58 150.67 153.89 167.10 151.50
  C 171.96 150.79 177.06 148.09 181.83 145.99
  Z"
/>
<path fill="#0f5169" fill-opacity="0.996" d="
  M 91.78 117.06
  C 86.36 115.74 81.97 115.40 76.73 112.05
  L 86.64 114.06
  A 0.25 0.24 -21.8 0 0 86.83 113.62
  L 80.23 109.02
  A 0.21 0.20 -18.8 0 1 80.41 108.66
  C 81.99 109.12 82.99 109.41 83.51 109.53
  A 0.04 0.01 29.9 0 0 83.47 109.49
  Q 83.35 109.45 82.82 109.26
  A 0.23 0.23 0.0 0 1 82.68 108.99
  Q 82.72 108.84 82.80 108.75
  A 0.15 0.15 0.0 0 0 82.79 108.54
  L 81.16 107.02
  C 90.90 108.55 100.21 113.64 104.33 122.91
  A 0.10 0.10 0.0 0 1 104.17 123.02
  Q 98.94 118.10 91.78 117.06
  Z"
/>
<path fill="#9fc8da" fill-opacity="0.996" d="
  M 138.58 122.88
  Q 141.69 125.18 145.17 126.39
  Q 145.78 126.60 146.11 125.91
  Q 146.20 125.73 146.13 125.46
  A 0.90 0.83 -80.9 0 0 145.83 125.01
  Q 142.57 122.48 141.86 121.89
  C 138.57 119.16 135.25 117.51 131.58 114.92
  A 0.45 0.45 0.0 0 0 130.87 115.23
  Q 130.79 115.88 131.60 116.85
  Q 127.94 113.50 125.46 109.37
  A 0.86 0.86 0.0 0 1 126.77 108.28
  C 130.02 111.16 133.68 114.54 137.52 117.18
  C 143.50 121.31 149.18 124.88 154.13 129.39
  A 0.86 0.85 -20.5 0 1 153.45 130.87
  Q 144.63 129.90 138.58 122.88
  Z"
/>
<path fill="#e6f3fa" fill-opacity="0.996" d="
  M 138.58 122.88
  L 131.60 116.85
  Q 130.79 115.88 130.87 115.23
  A 0.45 0.45 0.0 0 1 131.58 114.92
  C 135.25 117.51 138.57 119.16 141.86 121.89
  Q 142.57 122.48 145.83 125.01
  A 0.90 0.83 -80.9 0 1 146.13 125.46
  Q 146.20 125.73 146.11 125.91
  Q 145.78 126.60 145.17 126.39
  Q 141.69 125.18 138.58 122.88
  Z"
/>
<path fill="#1d2c36" d="
  M 178.38 150.69
  Q 165.87 165.14 146.01 163.95
  Q 137.45 163.44 131.48 161.05
  Q 121.46 157.03 114.02 149.54
  Q 113.24 141.73 110.08 134.49
  L 113.45 141.93
  A 0.32 0.31 -40.4 0 0 114.00 141.97
  C 117.14 137.08 112.72 125.34 110.50 119.89
  A 0.17 0.17 0.0 0 1 110.76 119.68
  C 115.59 122.93 118.67 127.68 122.42 132.33
  Q 128.57 139.97 137.34 146.13
  C 149.54 154.70 164.63 155.67 178.38 150.69
  Z"
/>
<path fill="#9fc8da" fill-opacity="0.996" d="
  M 67.88 122.81
  A 0.51 0.51 0.0 0 1 68.40 121.95
  L 88.94 129.17
  A 0.78 0.78 0.0 0 1 88.72 130.68
  Q 76.92 131.22 67.88 122.81
  Z"
/>
</svg>
