<?xml version="1.0" encoding="UTF-8" standalone="no"?>
<!DOCTYPE svg PUBLIC "-//W3C//DTD SVG 1.1//EN" "http://www.w3.org/Graphics/SVG/1.1/DTD/svg11.dtd">
<svg xmlns="http://www.w3.org/2000/svg" version="1.1" viewBox="0.00 0.00 191.00 193.00">
<g stroke-width="2.00" fill="none" stroke-linecap="butt">
<path stroke="#41d8f8" stroke-opacity="0.996" vector-effect="non-scaling-stroke" d="
  M 130.78 46.47
  Q 130.45 46.99 130.47 47.45"
/>
<path stroke="#48a1c8" stroke-opacity="0.996" vector-effect="non-scaling-stroke" d="
  M 120.53 53.56
  L 119.80 53.99"
/>
<path stroke="#48a1c8" stroke-opacity="0.996" vector-effect="non-scaling-stroke" d="
  M 111.04 59.31
  Q 110.16 60.17 110.03 59.65"
/>
<path stroke="#48a1c8" stroke-opacity="0.996" vector-effect="non-scaling-stroke" d="
  M 93.74 62.76
  L 93.19 63.56
  A 0.78 0.76 12.1 0 1 92.65 63.90
  Q 92.08 63.98 92.04 63.53"
/>
<path stroke="#307f9f" vector-effect="non-scaling-stroke" d="
  M 68.67 68.99
  Q 68.60 69.05 68.52 69.11"
/>
<path stroke="#53a5c5" stroke-opacity="0.996" vector-effect="non-scaling-stroke" d="
  M 68.52 69.11
  L 67.59 68.46"
/>
<path stroke="#216e8c" vector-effect="non-scaling-stroke" d="
  M 62.03 69.69
  Q 61.75 69.74 61.46 69.67"
/>
<path stroke="#5ab4c7" stroke-opacity="0.996" vector-effect="non-scaling-stroke" d="
  M 151.32 57.68
  Q 150.80 58.77 151.40 59.99"
/>
<path stroke="#82d3dc" vector-effect="non-scaling-stroke" d="
  M 151.40 59.99
  Q 145.25 59.91 139.81 59.83
  Q 137.73 59.80 136.78 59.28
  Q 135.05 58.32 134.75 56.89
  A 1.68 1.56 50.4 0 1 134.80 56.04
  L 135.65 53.54
  A 0.51 0.51 0.0 0 0 135.28 52.88
  Q 133.25 52.39 132.15 52.93
  A 1.07 1.06 -43.1 0 1 131.15 52.90
  L 130.32 52.43"
/>
<path stroke="#535f6b" vector-effect="non-scaling-stroke" d="
  M 68.52 69.11
  Q 68.17 69.42 68.58 71.03"
/>
<path stroke="#b4bdc3" stroke-opacity="0.996" vector-effect="non-scaling-stroke" d="
  M 68.58 71.03
  Q 57.95 72.75 46.90 72.40
  A 1.23 0.97 29.9 0 0 46.56 72.45
  L 45.34 72.87
  A 0.70 0.69 38.8 0 0 45.49 74.22
  Q 55.53 75.40 65.22 73.48"
/>
<path stroke="#606c78" stroke-opacity="0.996" vector-effect="non-scaling-stroke" d="
  M 65.22 73.48
  Q 60.21 77.26 53.28 76.94
  Q 42.74 76.45 27.59 76.65
  A 0.93 0.92 -17.2 0 1 26.80 76.24
  Q 25.75 74.66 25.48 72.33"
/>
<path stroke="#454e57" vector-effect="non-scaling-stroke" d="
  M 61.20 70.24
  Q 61.71 70.44 62.29 70.19"
/>
<path stroke="#90979d" vector-effect="non-scaling-stroke" d="
  M 68.60 70.52
  Q 68.59 70.78 68.58 71.03"
/>
<path stroke="#899cac" vector-effect="non-scaling-stroke" d="
  M 130.32 52.43
  Q 129.50 54.21 127.21 55.44
  Q 120.96 58.81 120.25 58.88
  A 0.87 0.86 -83.5 0 0 119.53 59.46
  Q 119.43 59.74 118.36 60.28
  A 0.33 0.33 0.0 0 0 118.48 60.90
  Q 122.55 61.18 127.46 59.99
  A 2.33 1.94 -25.2 0 1 127.78 59.95
  L 131.64 59.74
  A 3.23 3.05 49.8 0 1 132.69 59.86
  Q 142.17 62.63 151.40 59.99"
/>
<path stroke="#a9b9c6" stroke-opacity="0.996" vector-effect="non-scaling-stroke" d="
  M 153.08 63.56
  L 149.35 65.23
  A 1.37 1.35 -54.8 0 1 148.79 65.33
  L 135.86 64.59"
/>
<path stroke="#3a4a5a" vector-effect="non-scaling-stroke" d="
  M 135.86 64.59
  Q 124.24 63.26 115.96 63.89
  Q 114.83 63.97 115.22 64.93"
/>
<path stroke="#a9b9c6" stroke-opacity="0.996" vector-effect="non-scaling-stroke" d="
  M 115.22 64.93
  Q 101.52 66.12 87.75 65.83
  Q 86.14 65.80 84.99 66.44
  A 0.41 0.41 0.0 0 0 85.19 67.20
  L 102.05 67.26"
/>
<path stroke="#344455" vector-effect="non-scaling-stroke" d="
  M 102.05 67.26
  Q 101.78 67.58 101.56 67.67
  A 0.44 0.44 0.0 0 0 101.69 68.52
  L 109.06 68.86
  A 0.39 0.39 0.0 0 0 109.29 68.14
  L 107.81 67.23"
/>
<path stroke="#a9b9c6" stroke-opacity="0.996" vector-effect="non-scaling-stroke" d="
  M 107.81 67.23
  Q 112.23 66.28 115.74 66.71"
/>
<path stroke="#344455" vector-effect="non-scaling-stroke" d="
  M 115.74 66.71
  Q 118.44 68.29 121.75 67.77
  Q 129.45 66.57 134.65 66.94
  A 0.21 0.20 -82.8 0 1 134.84 67.19
  L 134.69 67.88
  A 0.05 0.05 0.0 0 1 134.64 67.92
  L 124.11 68.09
  A 5.27 5.23 34.3 0 0 122.48 68.39
  Q 120.53 69.09 120.00 69.05
  Q 115.55 68.76 110.40 69.54
  C 106.56 70.12 102.58 69.47 99.68 70.37
  C 96.00 71.50 91.12 70.42 87.35 71.81
  A 1.64 1.52 -53.0 0 1 86.80 71.91
  L 81.34 71.91
  A 0.54 0.47 -49.1 0 0 81.20 71.93
  Q 78.30 72.93 74.58 73.03
  A 2.69 2.62 -55.8 0 0 73.65 73.22
  L 65.12 76.57"
/>
<path stroke="#55687b" stroke-opacity="0.996" vector-effect="non-scaling-stroke" d="
  M 65.12 76.57
  Q 64.56 75.82 65.17 75.44
  Q 69.52 72.72 74.63 71.92"
/>
<path stroke="#3a4f64" vector-effect="non-scaling-stroke" d="
  M 74.63 71.92
  Q 79.69 70.06 85.31 70.88
  Q 85.44 70.90 85.65 70.75
  Q 86.07 70.46 85.87 70.22
  A 1.40 1.38 70.5 0 0 84.82 69.71
  L 79.70 69.58
  A 1.21 1.20 -58.4 0 0 79.08 69.73
  Q 76.85 70.95 74.22 70.99"
/>
<path stroke="#55687b" stroke-opacity="0.996" vector-effect="non-scaling-stroke" d="
  M 74.22 70.99
  Q 74.11 70.96 74.00 70.93"
/>
<path stroke="#a9b9c6" stroke-opacity="0.996" vector-effect="non-scaling-stroke" d="
  M 74.00 70.93
  Q 74.51 70.23 72.65 69.77
  A 1.01 1.00 -57.1 0 0 71.78 69.96
  Q 70.49 70.98 68.60 70.52"
/>
<path stroke="#485b6e" vector-effect="non-scaling-stroke" d="
  M 68.60 70.52
  Q 69.20 70.16 69.29 69.41"
/>
<path stroke="#9da5aa" stroke-opacity="0.996" vector-effect="non-scaling-stroke" d="
  M 74.00 70.93
  L 65.22 73.48"
/>
<path stroke="#455361" vector-effect="non-scaling-stroke" d="
  M 43.22 69.94
  L 42.02 69.98"
/>
<path stroke="#53a5c5" stroke-opacity="0.996" vector-effect="non-scaling-stroke" d="
  M 55.06 70.29
  Q 54.21 70.65 53.81 70.13"
/>
<path stroke="#606c78" stroke-opacity="0.996" vector-effect="non-scaling-stroke" d="
  M 63.42 78.62
  Q 63.44 85.26 67.24 88.28
  Q 72.68 92.59 80.78 93.23"
/>
<path stroke="#2e3b48" vector-effect="non-scaling-stroke" d="
  M 80.78 93.23
  Q 81.01 93.91 80.88 94.69"
/>
<path stroke="#3c4752" vector-effect="non-scaling-stroke" d="
  M 80.88 94.69
  L 80.88 97.86
  A 0.59 0.59 0.0 0 1 80.41 98.44
  C 75.68 99.41 70.44 96.19 66.73 93.72
  C 63.03 91.25 60.89 87.18 58.68 83.12"
/>
<path stroke="#28303a" vector-effect="non-scaling-stroke" d="
  M 58.68 83.12
  Q 61.01 80.70 62.88 77.10
  A 0.35 0.35 0.0 0 0 62.32 76.70
  C 60.01 79.10 52.83 78.79 49.84 78.21
  A 4.46 4.05 47.8 0 0 49.02 78.13
  Q 37.44 78.12 27.00 78.10
  Q 24.72 78.10 23.27 76.88"
/>
<path stroke="#d1d8db" vector-effect="non-scaling-stroke" d="
  M 152.96 63.97
  Q 153.05 64.58 153.48 64.49"
/>
<path stroke="#7c8185" vector-effect="non-scaling-stroke" d="
  M 153.48 64.49
  Q 153.64 65.77 152.67 66.02
  A 0.50 0.39 38.0 0 1 152.48 66.02
  Q 150.27 65.57 148.30 66.26
  A 3.07 2.96 34.0 0 1 147.39 66.42
  L 115.74 66.71"
/>
<path stroke="#7c8185" vector-effect="non-scaling-stroke" d="
  M 107.81 67.23
  L 102.05 67.26"
/>
<path stroke="#82868a" vector-effect="non-scaling-stroke" d="
  M 115.22 64.93
  L 135.86 64.59"
/>
<path stroke="#4a5a68" vector-effect="non-scaling-stroke" d="
  M 155.03 66.60
  L 148.86 66.87
  A 1.25 1.24 -59.4 0 0 148.33 67.01
  Q 145.92 68.26 142.95 67.82
  A 0.73 0.73 0.0 0 0 142.13 68.38
  Q 142.00 68.90 142.62 69.35
  A 0.95 0.94 24.0 0 1 142.99 70.30
  L 142.73 71.55"
/>
<path stroke="#5c656b" vector-effect="non-scaling-stroke" d="
  M 142.73 71.55
  L 142.46 71.35
  A 0.87 0.85 -72.6 0 1 142.14 70.72
  Q 142.05 69.22 140.64 68.00
  A 1.05 1.02 -25.2 0 0 139.91 67.75
  L 137.21 67.90"
/>
<path stroke="#45525e" vector-effect="non-scaling-stroke" d="
  M 137.21 67.90
  Q 131.70 69.26 125.83 68.89
  C 122.70 68.70 120.28 69.98 116.78 69.88
  Q 113.96 69.80 111.14 70.25"
/>
<path stroke="#38414a" vector-effect="non-scaling-stroke" d="
  M 111.14 70.25
  L 107.46 71.17"
/>
<path stroke="#3f4852" vector-effect="non-scaling-stroke" d="
  M 107.46 71.17
  Q 104.00 70.60 100.74 71.27
  Q 97.09 72.03 95.83 71.98
  Q 91.28 71.82 87.90 72.79
  A 5.57 5.27 -50.7 0 1 86.18 73.01
  Q 83.29 72.94 81.54 73.01
  Q 80.65 73.04 80.28 73.53
  Q 79.73 74.25 79.04 73.36
  A 0.66 0.66 0.0 0 0 77.99 73.38
  Q 77.85 73.56 75.27 73.90
  Q 69.47 74.67 63.42 78.62"
/>
<path stroke="#28303a" vector-effect="non-scaling-stroke" d="
  M 63.42 78.62
  Q 62.62 78.29 65.12 76.57"
/>
<path stroke="#2e3b48" vector-effect="non-scaling-stroke" d="
  M 74.63 71.92
  L 74.21 71.80
  A 0.31 0.31 0.0 0 1 74.02 71.34
  L 74.22 70.99"
/>
<path stroke="#1c242e" vector-effect="non-scaling-stroke" d="
  M 58.68 83.12
  L 60.33 87.87"
/>
<path stroke="#0d131a" vector-effect="non-scaling-stroke" d="
  M 59.96 103.91
  L 58.20 106.78
  A 1.04 1.03 38.1 0 0 58.36 108.06
  Q 61.43 111.09 65.27 113.14
  C 71.43 116.44 76.44 119.46 82.88 120.63
  Q 94.42 122.72 105.25 121.71"
/>
<path stroke="#0d131a" vector-effect="non-scaling-stroke" d="
  M 137.00 138.40
  Q 130.79 141.21 124.44 141.02"
/>
<path stroke="#1b6987" vector-effect="non-scaling-stroke" d="
  M 124.44 141.02
  Q 129.88 135.69 133.76 129.16
  A 0.21 0.20 -60.3 0 0 133.69 128.88
  L 133.68 128.87
  A 0.21 0.20 29.7 0 0 133.40 128.94
  Q 128.93 136.29 122.37 141.86"
/>
<path stroke="#0e1824" vector-effect="non-scaling-stroke" d="
  M 122.37 141.86
  L 118.72 137.40
  A 0.16 0.15 -34.1 0 0 118.52 137.37
  L 118.18 137.59
  A 0.39 0.38 56.3 0 0 118.08 138.12
  L 119.79 140.73
  A 0.68 0.68 0.0 0 1 119.17 141.78
  L 114.51 141.45
  A 0.74 0.74 0.0 0 0 113.71 142.13
  L 113.34 147.36
  A 1.17 1.16 -74.7 0 1 111.66 148.32
  L 97.69 141.36"
/>
<path stroke="#1e3a5d" vector-effect="non-scaling-stroke" d="
  M 97.69 141.36
  Q 107.64 139.59 113.79 134.54
  Q 115.10 133.47 121.07 127.13
  Q 121.32 126.87 121.42 126.87
  Q 121.94 126.88 121.87 126.44
  A 0.19 0.19 0.0 0 0 121.55 126.33
  L 118.34 129.30"
/>
<path stroke="#131e2b" vector-effect="non-scaling-stroke" d="
  M 118.34 129.30
  C 112.78 132.04 106.24 136.38 100.92 137.49
  Q 96.34 138.45 90.51 138.55
  Q 88.68 138.58 82.66 137.03
  C 80.75 136.54 78.49 136.49 76.41 136.31"
/>
<path stroke="#1e3a5d" vector-effect="non-scaling-stroke" d="
  M 76.41 136.31
  Q 75.93 135.91 75.34 135.93
  A 0.30 0.30 0.0 0 0 75.20 136.48
  Q 81.73 140.65 89.44 141.65"
/>
<path stroke="#0e1824" vector-effect="non-scaling-stroke" d="
  M 89.44 141.65
  Q 91.93 147.78 91.81 154.00"
/>
<path stroke="#1b6987" vector-effect="non-scaling-stroke" d="
  M 91.81 154.00
  Q 87.18 154.37 83.45 152.97"
/>
<path stroke="#1b6987" vector-effect="non-scaling-stroke" d="
  M 63.23 132.73
  L 68.86 126.14"
/>
<path stroke="#0e1824" vector-effect="non-scaling-stroke" d="
  M 68.86 126.14
  L 71.35 123.40
  A 0.22 0.22 0.0 0 0 71.11 123.05
  Q 70.20 123.41 69.49 124.22"
/>
<path stroke="#0d131a" vector-effect="non-scaling-stroke" d="
  M 69.49 124.22
  Q 66.13 126.37 63.77 126.62
  C 57.19 127.34 55.36 119.82 51.17 117.19
  Q 47.89 115.13 45.14 115.03
  Q 34.54 114.67 23.68 114.43"
/>
<path stroke="#28303a" vector-effect="non-scaling-stroke" d="
  M 23.07 82.59
  Q 24.21 83.42 25.65 82.75
  A 0.18 0.18 0.0 0 0 25.59 82.40
  L 23.22 82.20"
/>
<path stroke="#374352" vector-effect="non-scaling-stroke" d="
  M 81.69 82.34
  L 82.28 86.65"
/>
<path stroke="#222e3c" vector-effect="non-scaling-stroke" d="
  M 82.28 86.65
  L 82.23 94.08
  A 1.68 1.55 38.0 0 0 82.33 94.69
  Q 85.02 102.73 92.42 103.91
  Q 100.50 105.18 108.33 104.88
  A 9.62 9.55 54.3 0 1 112.20 105.53
  Q 117.28 107.50 122.78 108.02
  C 129.50 108.66 136.29 109.63 142.97 108.57
  A 0.65 0.64 87.2 0 0 143.51 107.97
  L 143.85 101.03"
/>
<path stroke="#374352" vector-effect="non-scaling-stroke" d="
  M 143.85 101.03
  L 144.02 97.31
  A 0.35 0.28 -65.3 0 0 143.98 97.15
  Q 143.83 96.85 143.54 96.99"
/>
<path stroke="#222e3c" vector-effect="non-scaling-stroke" d="
  M 143.54 96.99
  Q 143.77 96.58 143.68 96.29"
/>
<path stroke="#217395" vector-effect="non-scaling-stroke" d="
  M 143.68 96.29
  L 144.29 96.25"
/>
<path stroke="#217395" vector-effect="non-scaling-stroke" d="
  M 145.59 95.92
  Q 145.70 96.15 145.83 96.28
  Q 145.95 96.41 146.21 96.40
  Q 153.61 96.25 162.20 96.48"
/>
<path stroke="#2e3b48" vector-effect="non-scaling-stroke" d="
  M 162.20 96.48
  Q 160.55 97.81 157.50 97.97
  Q 153.17 98.20 148.30 98.08
  A 1.27 1.26 4.8 0 0 147.01 99.16
  Q 146.53 102.37 148.68 103.78
  Q 151.33 105.53 155.04 106.21
  Q 165.66 108.17 164.94 96.69"
/>
<path stroke="#217395" vector-effect="non-scaling-stroke" d="
  M 164.94 96.69
  L 164.83 93.99"
/>
<path stroke="#374352" vector-effect="non-scaling-stroke" d="
  M 164.87 92.71
  L 165.08 83.56"
/>
<path stroke="#0e1824" vector-effect="non-scaling-stroke" d="
  M 169.76 100.06
  L 169.64 106.40
  A 4.37 4.30 55.9 0 1 169.40 107.70
  Q 168.88 109.23 168.82 110.62"
/>
<path stroke="#24446c" vector-effect="non-scaling-stroke" d="
  M 162.81 119.52
  L 162.19 119.19
  A 0.52 0.51 -60.8 0 1 161.99 118.47
  L 162.69 117.26
  A 0.38 0.37 -61.0 0 0 162.55 116.75
  L 161.74 116.28
  A 0.18 0.17 -49.5 0 0 161.53 116.30
  Q 159.30 118.31 160.91 120.41"
/>
<path stroke="#0e1824" vector-effect="non-scaling-stroke" d="
  M 152.10 122.49
  Q 147.57 121.60 142.64 121.60
  Q 124.00 121.58 105.25 121.71"
/>
<path stroke="#141d29" vector-effect="non-scaling-stroke" d="
  M 105.25 121.71
  Q 96.94 119.55 88.37 118.74
  Q 79.41 117.90 76.57 117.03
  Q 66.95 114.09 61.27 106.66"
/>
<path stroke="#2e3b48" vector-effect="non-scaling-stroke" d="
  M 61.27 106.66
  Q 64.15 109.21 68.53 110.83
  Q 68.78 110.92 68.92 110.65
  A 0.04 0.03 -68.9 0 0 68.91 110.61
  L 63.01 107.46
  A 1.91 1.91 0.0 0 1 62.16 106.52
  Q 61.38 104.72 59.96 103.91"
/>
<path stroke="#0e1824" vector-effect="non-scaling-stroke" d="
  M 59.96 103.91
  L 60.74 97.11
  A 2.11 1.56 -50.6 0 0 60.76 96.72
  L 60.33 87.87"
/>
<path stroke="#222e3c" vector-effect="non-scaling-stroke" d="
  M 60.33 87.87
  Q 61.22 94.01 65.24 97.23
  Q 71.63 102.36 80.27 104.93
  A 0.47 0.47 0.0 0 0 80.86 104.58
  Q 81.90 99.67 80.88 94.69"
/>
<path stroke="#636f7a" vector-effect="non-scaling-stroke" d="
  M 80.66 87.70
  L 80.72 83.98
  A 2.66 2.61 -53.2 0 0 80.61 83.16
  Q 79.99 81.12 79.90 79.06"
/>
<path stroke="#606c78" stroke-opacity="0.996" vector-effect="non-scaling-stroke" d="
  M 107.92 71.69
  L 106.92 75.25"
/>
<path stroke="#94a0a9" vector-effect="non-scaling-stroke" d="
  M 106.92 75.25
  L 98.53 76.37
  A 15.87 15.86 -48.0 0 1 96.08 76.50
  L 85.93 76.30
  A 0.83 0.82 12.3 0 0 85.16 76.79
  Q 83.43 80.77 84.22 85.14
  A 1.52 1.51 2.1 0 0 85.34 86.34
  C 87.87 86.96 90.68 87.35 93.63 87.05
  Q 98.72 86.53 104.21 87.23
  Q 105.37 87.38 107.78 86.20"
/>
<path stroke="#3f4852" vector-effect="non-scaling-stroke" d="
  M 107.78 86.20
  L 108.21 86.55"
/>
<path stroke="#606c78" stroke-opacity="0.996" vector-effect="non-scaling-stroke" d="
  M 108.21 86.55
  Q 109.28 88.25 109.00 90.69"
/>
<path stroke="#4b5a69" stroke-opacity="0.996" vector-effect="non-scaling-stroke" d="
  M 109.00 90.69
  L 108.83 91.57"
/>
<path stroke="#697581" stroke-opacity="0.996" vector-effect="non-scaling-stroke" d="
  M 108.83 91.57
  Q 100.74 90.61 92.70 90.24
  Q 85.01 89.89 81.69 82.34"
/>
<path stroke="#455361" vector-effect="non-scaling-stroke" d="
  M 81.69 82.34
  L 81.27 75.10
  A 0.43 0.42 49.7 0 0 80.43 75.03
  Q 80.03 76.79 79.90 79.06"
/>
<path stroke="#94a0a9" vector-effect="non-scaling-stroke" d="
  M 79.90 79.06
  Q 76.68 79.66 74.12 81.71
  A 1.35 1.32 -16.6 0 0 73.62 82.61
  Q 73.46 83.97 74.18 85.45
  A 0.95 0.94 85.2 0 0 74.74 85.93
  L 80.66 87.70"
/>
<path stroke="#455361" vector-effect="non-scaling-stroke" d="
  M 80.66 87.70
  L 80.78 93.23"
/>
<path stroke="#7c8e9e" stroke-opacity="0.996" vector-effect="non-scaling-stroke" d="
  M 163.39 69.67
  Q 163.60 70.96 162.42 71.10
  Q 162.12 71.13 162.02 71.27
  Q 161.83 71.52 161.92 71.92
  A 0.33 0.32 -23.1 0 0 162.42 72.12
  Q 162.88 71.81 163.04 71.17
  A 0.32 0.32 0.0 0 1 163.61 71.07
  Q 164.18 71.86 164.29 72.47
  A 1.20 1.20 0.0 0 0 164.62 73.09
  Q 168.61 76.98 167.68 82.92
  A 0.34 0.34 0.0 0 1 167.24 83.19
  L 167.15 83.17
  A 0.27 0.27 0.0 0 1 166.97 82.85
  Q 167.82 79.16 166.83 77.64
  Q 165.02 74.85 164.18 76.86"
/>
<path stroke="#516476" vector-effect="non-scaling-stroke" d="
  M 164.18 76.86
  Q 163.25 79.21 164.63 80.09
  A 1.09 1.09 0.0 0 1 165.12 80.83
  Q 165.34 82.18 165.08 83.56"
/>
<path stroke="#748697" stroke-opacity="0.996" vector-effect="non-scaling-stroke" d="
  M 165.08 83.56
  C 164.46 82.75 163.84 81.78 163.64 80.80
  A 0.14 0.14 0.0 0 0 163.38 80.78
  L 162.38 83.43
  A 2.38 2.38 0.0 0 1 160.15 84.97
  L 150.87 84.97
  A 1.07 1.07 0.0 0 1 150.00 84.52
  L 144.34 76.24"
/>
<path stroke="#576c7f" stroke-opacity="0.996" vector-effect="non-scaling-stroke" d="
  M 144.34 76.24
  Q 144.12 75.30 144.12 73.01
  Q 144.12 72.09 143.32 72.12"
/>
<path stroke="#a0b2be" vector-effect="non-scaling-stroke" d="
  M 143.32 72.12
  Q 142.86 71.93 142.73 71.55"
/>
<path stroke="#596570" stroke-opacity="0.996" vector-effect="non-scaling-stroke" d="
  M 143.56 86.09
  Q 130.82 87.83 117.68 86.76
  Q 112.96 86.38 109.55 83.19
  A 1.08 1.06 21.5 0 1 109.20 82.40
  L 109.20 80.20
  A 0.64 0.63 -75.9 0 0 108.87 79.64
  Q 108.00 79.16 108.10 77.75
  Q 108.32 74.74 107.92 71.69"
/>
<path stroke="#707d88" stroke-opacity="0.996" vector-effect="non-scaling-stroke" d="
  M 107.92 71.69
  Q 107.69 71.25 107.46 71.17"
/>
<path stroke="#687682" vector-effect="non-scaling-stroke" d="
  M 143.32 72.12
  Q 142.52 74.35 142.94 75.50
  Q 144.12 78.70 143.69 81.95"
/>
<path stroke="#9baab5" vector-effect="non-scaling-stroke" d="
  M 143.69 81.95
  Q 140.12 83.59 137.65 83.61
  Q 130.11 83.66 114.73 83.71
  A 3.54 3.54 0.0 0 1 111.17 80.17
  L 111.17 78.07
  A 3.58 3.57 -2.0 0 1 114.50 74.51
  Q 117.37 74.32 135.05 72.18
  C 136.83 71.97 139.28 72.06 140.87 72.22
  A 0.33 0.33 0.0 0 1 141.16 72.51
  Q 141.19 72.76 141.40 72.81
  A 0.27 0.27 0.0 0 0 141.70 72.40
  Q 140.02 69.87 137.21 67.90"
/>
<path stroke="#526475" stroke-opacity="0.996" vector-effect="non-scaling-stroke" d="
  M 143.69 81.95
  L 143.84 84.03"
/>
<path stroke="#677684" stroke-opacity="0.996" vector-effect="non-scaling-stroke" d="
  M 143.84 84.03
  Q 143.45 84.74 143.56 86.09"
/>
<path stroke="#778794" stroke-opacity="0.996" vector-effect="non-scaling-stroke" d="
  M 143.56 86.09
  L 113.45 85.28
  A 0.94 0.94 0.0 0 1 112.68 84.85
  Q 108.16 77.89 111.14 70.25"
/>
<path stroke="#141d29" vector-effect="non-scaling-stroke" d="
  M 69.49 124.22
  Q 68.54 125.16 68.39 126.10"
/>
<path stroke="#216e8c" vector-effect="non-scaling-stroke" d="
  M 68.39 126.10
  L 61.85 132.22"
/>
<path stroke="#216e8c" vector-effect="non-scaling-stroke" d="
  M 48.69 121.61
  Q 47.16 120.89 46.60 118.16
  Q 46.55 117.93 46.34 117.89
  A 0.18 0.18 0.0 0 0 46.14 118.11
  L 46.82 120.94"
/>
<path stroke="#2e363f" vector-effect="non-scaling-stroke" d="
  M 133.56 144.40
  Q 133.70 143.96 133.34 144.02
  A 0.18 0.15 10.5 0 0 133.22 144.09
  Q 132.89 144.46 132.80 144.94"
/>
<path stroke="#217395" vector-effect="non-scaling-stroke" d="
  M 68.39 126.10
  L 68.86 126.14"
/>
<path stroke="#217395" vector-effect="non-scaling-stroke" d="
  M 91.81 154.00
  Q 109.53 154.23 122.37 141.86"
/>
<path stroke="#216e8c" vector-effect="non-scaling-stroke" d="
  M 124.44 141.02
  L 120.93 144.60
  A 2.33 1.80 -78.8 0 1 120.70 144.80
  Q 114.46 149.41 108.85 151.84
  Q 99.50 155.90 88.52 154.69
  Q 85.86 154.40 83.74 154.42"
/>
<path stroke="#3296d0" stroke-opacity="0.996" vector-effect="non-scaling-stroke" d="
  M 59.06 140.56
  L 56.15 137.31"
/>
<path stroke="#2e363f" vector-effect="non-scaling-stroke" d="
  M 59.96 103.91
  L 61.27 106.66"
/>
<path stroke="#24446c" vector-effect="non-scaling-stroke" d="
  M 97.69 141.36
  L 89.44 141.65"
/>
<path stroke="#2a4c74" stroke-opacity="0.996" vector-effect="non-scaling-stroke" d="
  M 76.41 136.31
  Q 80.62 139.25 85.77 139.97
  Q 87.51 140.22 89.09 140.75
  A 2.72 2.62 53.6 0 0 89.97 140.90
  Q 97.35 140.95 102.69 139.41
  Q 111.92 136.75 118.34 129.30"
/>
<path stroke="#307f9f" vector-effect="non-scaling-stroke" d="
  M 109.86 96.35
  L 143.68 96.29"
/>
<path stroke="#454f5c" vector-effect="non-scaling-stroke" d="
  M 143.54 96.99
  Q 140.30 97.85 138.69 97.91
  Q 125.41 98.44 112.00 97.81
  A 0.49 0.49 0.0 0 0 111.57 98.57
  C 115.28 104.04 122.38 103.82 128.34 104.03
  C 135.04 104.27 139.27 104.73 143.85 101.03"
/>
<path stroke="#4595b6" stroke-opacity="0.996" vector-effect="non-scaling-stroke" d="
  M 109.39 94.11
  Q 108.77 95.93 109.86 96.35"
/>
<path stroke="#454f5c" vector-effect="non-scaling-stroke" d="
  M 109.86 96.35
  Q 101.93 95.03 93.91 94.06
  Q 88.98 93.47 86.95 92.15
  Q 84.04 90.26 82.28 86.65"
/>
<path stroke="#3c8dac" stroke-opacity="0.996" vector-effect="non-scaling-stroke" d="
  M 164.94 96.69
  Q 162.69 96.01 162.20 96.48"
/>
<path stroke="#3d4b5a" stroke-opacity="0.996" vector-effect="non-scaling-stroke" d="
  M 144.34 76.24
  Q 145.23 80.68 145.37 85.12
  Q 145.44 87.31 146.12 87.54
  Q 151.47 89.34 157.14 89.74
  Q 160.65 89.98 164.87 92.71"
/>
<path stroke="#19293a" vector-effect="non-scaling-stroke" d="
  M 164.87 92.71
  L 164.83 93.99"
/>
<path stroke="#277b9e" stroke-opacity="0.996" vector-effect="non-scaling-stroke" d="
  M 164.83 93.99
  L 146.04 94.14
  A 0.39 0.37 20.1 0 0 145.76 94.26
  Q 145.30 94.73 145.59 95.92"
/>
<path stroke="#19293a" vector-effect="non-scaling-stroke" d="
  M 145.59 95.92
  Q 145.00 96.73 144.46 96.76
  Q 144.23 96.78 144.17 96.59
  Q 144.11 96.41 144.29 96.25"
/>
<path stroke="#277b9e" stroke-opacity="0.996" vector-effect="non-scaling-stroke" d="
  M 144.29 96.25
  Q 144.91 95.46 144.64 94.65
  A 0.75 0.75 0.0 0 0 143.93 94.14
  L 109.39 94.11"
/>
<path stroke="#3d4b5a" stroke-opacity="0.996" vector-effect="non-scaling-stroke" d="
  M 109.39 94.11
  Q 108.98 94.16 108.80 93.59
  A 0.88 0.83 -43.5 0 1 108.83 93.01
  Q 109.25 92.05 108.83 91.57"
/>
<path stroke="#398e9d" stroke-opacity="0.996" vector-effect="non-scaling-stroke" d="
  M 144.51 93.24
  Q 145.52 88.82 144.72 85.62"
/>
<path stroke="#38414a" vector-effect="non-scaling-stroke" d="
  M 171.54 87.38
  Q 171.53 87.41 171.51 87.44"
/>
<path stroke="#3e464f" vector-effect="non-scaling-stroke" d="
  M 168.15 75.22
  Q 167.56 76.14 168.79 77.78
  A 1.98 1.96 28.3 0 1 169.17 79.03
  L 168.98 83.00
  A 1.56 1.39 41.6 0 0 169.02 83.34
  L 170.07 87.27"
/>
<path stroke="#38414a" vector-effect="non-scaling-stroke" d="
  M 170.07 87.27
  L 169.76 100.06"
/>
<path stroke="#3e4b59" vector-effect="non-scaling-stroke" d="
  M 169.76 100.06
  Q 167.86 99.54 166.50 98.37
  A 0.91 0.89 19.7 0 1 166.20 97.75
  L 165.73 81.03
  A 0.74 0.72 -72.4 0 0 165.45 80.47
  Q 165.42 80.44 165.37 80.38
  A 1.05 1.03 -64.0 0 1 165.13 79.66
  Q 165.23 78.17 164.18 76.86"
/>
<path stroke="#344251" stroke-opacity="0.996" vector-effect="non-scaling-stroke" d="
  M 143.84 84.03
  Q 143.88 85.55 144.72 85.62"
/>
<path stroke="#4ea0ab" stroke-opacity="0.996" vector-effect="non-scaling-stroke" d="
  M 144.72 85.62
  Q 143.29 87.80 144.51 93.24"
/>
<path stroke="#344251" stroke-opacity="0.996" vector-effect="non-scaling-stroke" d="
  M 144.51 93.24
  Q 141.23 90.35 136.42 90.20
  Q 119.30 89.65 109.00 90.69"
/>
<path stroke="#28303a" vector-effect="non-scaling-stroke" d="
  M 108.21 86.55
  Q 109.78 84.42 108.53 80.74
  A 0.22 0.22 0.0 0 0 108.11 80.76
  L 107.85 81.79"
/>
<path stroke="#7d8890" vector-effect="non-scaling-stroke" d="
  M 107.85 81.79
  Q 107.89 80.04 107.08 78.51
  A 1.61 1.61 0.0 0 1 106.91 77.79
  L 106.92 75.25"
/>
<path stroke="#5c656b" vector-effect="non-scaling-stroke" d="
  M 107.85 81.79
  L 107.78 86.20"
/>
<path stroke="#0d131a" vector-effect="non-scaling-stroke" d="
  M 189.99 96.03
  Q 180.31 92.54 171.51 87.44"
/>
<path stroke="#3e464f" vector-effect="non-scaling-stroke" d="
  M 171.51 87.44
  Q 172.17 87.96 172.66 87.89
  A 0.33 0.33 0.0 0 0 172.74 87.26
  Q 172.18 87.04 171.54 87.38"
/>
<path stroke="#0d131a" vector-effect="non-scaling-stroke" d="
  M 171.54 87.38
  L 170.07 87.27"
/>
<path stroke="#3296d0" stroke-opacity="0.996" vector-effect="non-scaling-stroke" d="
  M 80.85 49.04
  Q 81.01 50.04 81.46 50.80
  A 0.27 0.27 0.0 0 0 81.95 50.76
  Q 82.34 49.71 81.38 48.68"
/>
<path stroke="#41d8f8" stroke-opacity="0.996" vector-effect="non-scaling-stroke" d="
  M 138.10 53.57
  A 0.48 0.48 0.0 0 0 137.32 53.01
  Q 136.80 53.61 136.96 54.50
  A 0.30 0.29 -35.2 0 0 137.51 54.59
  L 138.10 53.57"
/>
<path stroke="#a2f0f6" stroke-opacity="0.996" vector-effect="non-scaling-stroke" d="
  M 143.98 53.50
  Q 143.77 54.05 142.77 54.24
  A 0.90 0.89 3.2 0 0 142.08 54.85
  Q 141.94 55.27 142.27 56.94
  A 0.79 0.78 0.1 0 0 142.90 57.56
  Q 145.55 58.06 146.90 56.52
  A 1.33 1.25 46.1 0 0 146.88 54.85
  Q 146.47 54.35 144.57 53.29
  A 0.41 0.41 0.0 0 0 143.98 53.50"
/>
<path stroke="#44a9cf" stroke-opacity="0.996" vector-effect="non-scaling-stroke" d="
  M 138.82 57.41
  Q 138.81 57.34 137.48 55.80
  A 0.33 0.33 0.0 0 0 136.91 56.08
  Q 137.08 56.91 138.37 57.74
  A 0.30 0.30 0.0 0 0 138.82 57.41"
/>
<path stroke="#c0ced8" stroke-opacity="0.996" vector-effect="non-scaling-stroke" d="
  M 156.82 72.49
  L 148.29 74.03
  A 0.80 0.79 -7.8 0 0 147.63 74.89
  L 148.08 79.61
  A 1.04 1.02 -80.2 0 0 148.67 80.46
  Q 153.05 82.51 158.20 82.60
  A 3.12 3.12 0.0 0 0 161.33 78.92
  L 160.66 75.16
  A 3.31 3.31 0.0 0 0 156.82 72.49"
/>
<path stroke="#6287b1" stroke-opacity="0.996" vector-effect="non-scaling-stroke" d="
  M 162.94 73.69
  Q 162.60 74.03 163.04 74.50
  Q 164.51 76.04 164.89 75.66
  Q 165.28 75.28 163.74 73.80
  Q 163.28 73.35 162.94 73.69"
/>
<path stroke="#d1d8db" vector-effect="non-scaling-stroke" d="
  M 141.18 75.99
  A 1.89 1.89 0.0 0 0 139.14 74.44
  L 113.60 76.84
  A 1.89 1.89 0.0 0 0 111.89 78.90
  L 112.01 80.20
  A 1.89 1.89 0.0 0 0 113.89 81.92
  L 139.99 81.92
  A 1.89 1.89 0.0 0 0 141.85 79.69
  L 141.18 75.99"
/>
<path stroke="#626a70" vector-effect="non-scaling-stroke" d="
  M 185.5216 80.9799
  A 2.64 0.95 100.0 0 0 186.9156 78.5450
  A 2.64 0.95 100.0 0 0 186.4384 75.7801
  A 2.64 0.95 100.0 0 0 185.0444 78.2150
  A 2.64 0.95 100.0 0 0 185.5216 80.9799"
/>
<path stroke="#505f6d" vector-effect="non-scaling-stroke" d="
  M 180.68 80.92
  A 0.39 0.34 69.4 0 0 180.89 80.35
  Q 180.72 80.04 180.34 80.09
  A 0.43 0.39 63.0 0 0 180.15 80.80
  Q 180.31 80.97 180.68 80.92"
/>
<path stroke="#626a70" vector-effect="non-scaling-stroke" d="
  M 176.07 84.34
  Q 176.19 84.50 176.20 84.51
  A 0.70 0.70 0.0 0 0 177.24 83.84
  L 176.99 80.89
  A 0.39 0.38 -38.7 0 0 176.24 80.81
  L 175.77 82.25
  A 0.65 0.64 -59.3 0 1 174.72 82.52
  Q 174.47 82.32 173.90 82.20
  Q 173.01 82.02 173.19 83.22
  Q 173.28 83.83 174.14 84.41
  A 0.63 0.63 0.0 0 0 174.98 84.28
  Q 175.14 84.06 175.48 84.05
  A 0.71 0.71 0.0 0 1 176.07 84.34"
/>
<path stroke="#626a70" vector-effect="non-scaling-stroke" d="
  M 180.83 82.32
  L 179.84 82.97
  A 0.53 0.53 0.0 0 1 179.02 82.44
  Q 179.08 82.11 179.32 81.69
  A 0.51 0.51 0.0 0 0 178.96 80.92
  L 178.72 80.88
  A 0.63 0.63 0.0 0 0 178.00 81.41
  Q 177.81 82.68 179.12 83.70
  A 0.59 0.59 0.0 0 0 179.70 83.77
  Q 181.43 83.02 181.15 82.41
  A 0.22 0.22 0.0 0 0 180.83 82.32"
/>
<path stroke="#626a70" vector-effect="non-scaling-stroke" d="
  M 171.94 85.13
  Q 172.33 84.95 172.35 84.94
  A 0.45 0.44 -37.1 0 0 172.44 84.29
  Q 171.42 83.03 171.04 83.20
  Q 170.66 83.38 170.97 84.98
  A 0.45 0.44 -13.2 0 0 171.53 85.32
  Q 171.55 85.31 171.94 85.13"
/>
<path stroke="#24446c" vector-effect="non-scaling-stroke" d="
  M 83.26 104.05
  Q 83.14 104.46 82.96 109.83
  A 2.12 2.12 0.0 0 1 82.50 111.06
  C 81.68 112.08 82.28 113.32 81.72 114.06
  Q 81.32 114.60 81.32 114.77
  A 0.27 0.26 -27.2 0 0 81.80 114.92
  Q 83.10 113.10 82.92 111.65
  A 2.06 1.96 -38.9 0 1 83.05 110.67
  Q 84.36 107.41 83.65 104.07
  A 0.20 0.20 0.0 0 0 83.26 104.05"
/>
<path stroke="#24446c" vector-effect="non-scaling-stroke" d="
  M 72.29 111.46
  Q 71.87 111.16 71.51 111.18
  A 0.24 0.23 -29.6 0 0 71.39 111.61
  Q 71.57 111.73 72.13 111.84
  A 0.21 0.21 0.0 0 0 72.29 111.46"
/>
<path stroke="#2e3b48" vector-effect="non-scaling-stroke" d="
  M 74.43 112.82
  A 0.24 0.24 0.0 0 0 74.62 112.43
  Q 74.44 112.22 74.06 112.10
  A 0.27 0.26 -17.8 0 0 73.82 112.56
  Q 74.14 112.80 74.43 112.82"
/>
<path stroke="#24446c" vector-effect="non-scaling-stroke" d="
  M 140.02 117.45
  A 0.20 0.20 0.0 0 0 140.27 117.75
  Q 141.82 117.03 141.76 115.51
  A 0.15 0.14 -27.5 0 0 141.50 115.43
  L 140.02 117.45"
/>
<path stroke="#2e3b48" vector-effect="non-scaling-stroke" d="
  M 156.0992 117.6778
  A 5.03 0.29 1.0 0 0 151.0751 117.3000
  A 5.03 0.29 1.0 0 0 146.0408 117.5022
  A 5.03 0.29 1.0 0 0 151.0649 117.8800
  A 5.03 0.29 1.0 0 0 156.0992 117.6778"
/>
<path stroke="#d1d8db" vector-effect="non-scaling-stroke" d="
  M 106.84 82.61
  L 106.36 78.98
  A 0.93 0.93 0.0 0 0 105.32 78.18
  L 105.13 78.20
  A 3.42 2.61 -7.5 0 0 102.08 81.24
  L 102.12 81.54
  A 3.42 2.61 -7.5 0 0 105.85 83.68
  L 106.04 83.65
  A 0.93 0.93 0.0 0 0 106.84 82.61"
/>
<path stroke="#d1d8db" vector-effect="non-scaling-stroke" d="
  M 96.64 83.35
  L 96.64 80.45
  A 0.88 0.88 0.0 0 0 95.76 79.57
  L 95.08 79.57
  A 9.40 2.24 0.1 0 0 85.68 81.79
  L 85.68 81.97
  A 9.40 2.24 0.1 0 0 95.08 84.23
  L 95.76 84.23
  A 0.88 0.88 0.0 0 0 96.64 83.35"
/>
<path stroke="#28303a" vector-effect="non-scaling-stroke" d="
  M 60.62 79.07
  Q 59.25 80.07 59.09 80.48
  A 0.41 0.41 0.0 0 0 59.80 80.87
  L 60.90 79.35
  A 0.20 0.20 0.0 0 0 60.62 79.07"
/>
<path stroke="#303943" vector-effect="non-scaling-stroke" d="
  M 33.5391 80.4163
  A 3.69 0.44 -1.3 0 0 29.8400 80.0601
  A 3.69 0.44 -1.3 0 0 26.1609 80.5837
  A 3.69 0.44 -1.3 0 0 29.8600 80.9399
  A 3.69 0.44 -1.3 0 0 33.5391 80.4163"
/>
<path stroke="#3f4852" vector-effect="non-scaling-stroke" d="
  M 58.2093 81.4639
  A 1.29 0.69 -7.4 0 0 56.8411 80.9457
  A 1.29 0.69 -7.4 0 0 55.6507 81.7961
  A 1.29 0.69 -7.4 0 0 57.0189 82.3143
  A 1.29 0.69 -7.4 0 0 58.2093 81.4639"
/>
<path stroke="#0e1824" vector-effect="non-scaling-stroke" d="
  M 8.02 86.18
  L 7.96 87.96
  A 0.70 0.70 0.0 0 0 8.64 88.68
  L 12.72 88.82
  A 1.70 1.55 1.9 0 0 14.47 87.33
  L 14.47 87.25
  A 1.70 1.55 1.9 0 0 12.82 85.64
  L 8.74 85.51
  A 0.70 0.70 0.0 0 0 8.02 86.18"
/>
<path stroke="#38414a" vector-effect="non-scaling-stroke" d="
  M 56.65 87.31
  Q 57.61 86.85 57.23 86.14
  A 0.46 0.45 75.6 0 0 56.83 85.90
  L 35.75 85.90
  A 0.55 0.55 0.0 0 0 35.60 86.98
  Q 37.61 87.53 39.95 87.61"
/>
<path stroke="#0e1824" vector-effect="non-scaling-stroke" d="
  M 39.95 87.61
  L 18.68 87.95
  A 0.31 0.31 0.0 0 1 18.58 87.35
  Q 24.43 85.34 31.62 86.00
  A 0.03 0.03 0.0 0 0 31.66 85.97
  L 31.66 85.71
  A 0.32 0.32 0.0 0 0 31.35 85.39
  L 19.43 85.15
  A 1.63 1.63 0.0 0 0 17.78 86.89
  L 17.80 87.13
  A 1.76 1.76 0.0 0 0 19.66 88.81
  Q 34.44 88.00 50.15 88.58
  Q 51.78 88.64 56.65 87.31"
/>
<path stroke="#3e4b59" vector-effect="non-scaling-stroke" d="
  M 39.95 87.61
  Q 48.40 88.20 56.65 87.31"
/>
<path stroke="#3f4852" vector-effect="non-scaling-stroke" d="
  M 56.08 99.63
  A 0.53 0.53 0.0 0 0 55.55 99.10
  L 35.69 99.10
  A 0.53 0.53 0.0 0 0 35.16 99.63
  L 35.16 99.87
  A 0.53 0.53 0.0 0 0 35.69 100.40
  L 55.55 100.40
  A 0.53 0.53 0.0 0 0 56.08 99.87
  L 56.08 99.63"
/>
<path stroke="#1c242e" vector-effect="non-scaling-stroke" d="
  M 14.1689 100.4453
  A 0.54 0.54 0.0 0 0 13.6177 99.9167
  L 8.5188 100.0235
  A 0.54 0.54 0.0 0 0 7.9903 100.5747
  L 7.9911 100.6147
  A 0.54 0.54 0.0 0 0 8.5423 101.1433
  L 13.6412 101.0365
  A 0.54 0.54 0.0 0 0 14.1697 100.4853
  L 14.1689 100.4453"
/>
<path stroke="#1e3a5d" vector-effect="non-scaling-stroke" d="
  M 134.0684 128.0371
  A 0.68 0.35 130.5 0 0 134.7761 127.7473
  A 0.68 0.35 130.5 0 0 134.9516 127.0029
  A 0.68 0.35 130.5 0 0 134.2439 127.2927
  A 0.68 0.35 130.5 0 0 134.0684 128.0371"
/>
<path stroke="#243f62" vector-effect="non-scaling-stroke" d="
  M 45.8129 117.1266
  A 1.05 0.42 75.5 0 0 45.9566 116.0048
  A 1.05 0.42 75.5 0 0 45.2871 115.0934
  A 1.05 0.42 75.5 0 0 45.1434 116.2152
  A 1.05 0.42 75.5 0 0 45.8129 117.1266"
/>
<path stroke="#217395" vector-effect="non-scaling-stroke" d="
  M 115.5630 145.5850
  A 1.90 1.29 99.3 0 0 117.1430 143.9185
  A 1.90 1.29 99.3 0 0 116.1770 141.8350
  A 1.90 1.29 99.3 0 0 114.5970 143.5015
  A 1.90 1.29 99.3 0 0 115.5630 145.5850"
/>
<path stroke="#4b5863" vector-effect="non-scaling-stroke" d="
  M 108.16 155.04
  Q 105.95 154.48 105.60 156.04
  Q 105.47 156.60 105.17 156.76
  Q 104.59 157.06 104.46 157.27
  A 0.40 0.40 0.0 0 0 105.07 157.77
  Q 106.65 156.26 108.20 155.56
  A 0.28 0.28 0.0 0 0 108.16 155.04"
/>
<path stroke="#222933" vector-effect="non-scaling-stroke" d="
  M 83.15 172.29
  Q 83.21 172.69 83.51 172.75
  C 84.02 172.85 84.11 172.30 83.85 172.01
  A 0.41 0.38 20.8 0 0 83.15 172.29"
/>
<path stroke="#4b5863" vector-effect="non-scaling-stroke" d="
  M 80.34 175.80
  A 0.71 0.51 19.2 0 0 81.37 175.49
  Q 81.36 175.35 80.97 175.04
  Q 80.58 174.75 80.28 175.12
  Q 79.92 175.55 80.34 175.80"
/>
<path stroke="#2e363f" vector-effect="non-scaling-stroke" d="
  M 87.3259 179.8839
  A 1.02 0.52 48.5 0 0 87.0395 178.7754
  A 1.02 0.52 48.5 0 0 85.9741 178.3561
  A 1.02 0.52 48.5 0 0 86.2605 179.4646
  A 1.02 0.52 48.5 0 0 87.3259 179.8839"
/>
<path stroke="#505f6d" vector-effect="non-scaling-stroke" d="
  M 104.95 185.55
  A 0.40 0.40 0.0 0 0 104.55 185.15
  A 0.40 0.40 0.0 0 0 104.15 185.55
  A 0.40 0.40 0.0 0 0 104.55 185.95
  A 0.40 0.40 0.0 0 0 104.95 185.55"
/>
<path stroke="#2e363f" vector-effect="non-scaling-stroke" d="
  M 106.1595 189.3196
  A 0.35 0.35 0.0 0 0 105.8077 188.9714
  L 75.7881 189.1286
  A 0.35 0.35 0.0 0 0 75.4399 189.4804
  L 75.4405 189.5804
  A 0.35 0.35 0.0 0 0 75.7923 189.9286
  L 105.8119 189.7714
  A 0.35 0.35 0.0 0 0 106.1601 189.4196
  L 106.1595 189.3196"
/>
</g>
<path fill="#2fc5f9" fill-opacity="0.996" d="
  M 130.78 46.47
  Q 130.45 46.99 130.47 47.45
  L 121.57 36.97
  A 1.37 1.37 0.0 0 0 119.50 36.96
  L 112.90 44.56
  A 0.85 0.85 0.0 0 0 113.04 45.81
  Q 117.53 49.08 120.53 53.56
  L 119.80 53.99
  Q 114.06 47.34 108.69 44.07
  Q 102.92 40.56 94.31 39.42
  A 0.54 0.54 0.0 0 0 93.70 39.95
  L 93.70 46.38
  A 0.60 0.59 87.8 0 0 94.34 46.98
  Q 97.36 46.76 101.31 48.38
  A 0.69 0.68 -72.2 0 1 101.72 49.19
  Q 101.53 49.97 100.97 50.62
  A 0.82 0.82 0.0 0 0 101.20 51.88
  Q 106.69 54.82 111.04 59.31
  Q 110.16 60.17 110.03 59.65
  Q 106.01 55.80 100.78 53.07
  A 1.40 1.39 29.4 0 1 100.23 51.11
  Q 100.63 50.46 100.54 50.21
  A 1.36 1.35 87.4 0 0 99.60 49.34
  L 94.32 47.95
  A 0.39 0.38 7.1 0 0 93.84 48.32
  L 93.74 62.76
  L 93.19 63.56
  A 0.78 0.76 12.1 0 1 92.65 63.90
  Q 92.08 63.98 92.04 63.53
  L 91.97 48.67
  A 0.68 0.67 84.6 0 0 91.18 48.01
  L 83.85 49.33
  A 0.92 0.91 79.7 0 0 83.11 50.40
  L 83.60 53.17
  A 0.37 0.36 -16.1 0 1 83.37 53.58
  L 82.00 54.12
  A 0.40 0.38 67.8 0 1 81.50 53.90
  L 77.25 43.08
  A 1.10 1.09 -27.3 0 0 75.63 42.57
  L 73.58 43.92
  A 0.89 0.88 -34.5 0 0 73.34 45.18
  Q 77.49 51.05 78.86 54.70
  Q 79.29 55.85 77.99 56.64
  A 0.68 0.68 0.0 0 0 77.77 57.59
  L 80.40 61.58
  A 0.35 0.35 0.0 0 1 79.91 62.06
  Q 77.99 60.72 76.94 58.25
  A 0.38 0.38 0.0 0 0 76.32 58.13
  Q 71.50 62.86 68.67 68.99
  Q 68.60 69.05 68.52 69.11
  L 67.59 68.46
  Q 70.43 61.86 75.77 56.80
  A 0.32 0.32 0.0 0 0 75.79 56.36
  L 73.31 53.37
  A 0.19 0.18 -39.8 0 0 73.04 53.35
  Q 70.54 55.66 69.82 56.56
  Q 65.00 62.64 62.03 69.69
  Q 61.75 69.74 61.46 69.67
  Q 64.94 60.04 72.23 52.55
  A 0.82 0.82 0.0 0 0 72.33 51.53
  L 69.18 46.74
  A 0.37 0.36 -33.0 0 1 69.29 46.24
  L 69.88 45.85
  A 0.09 0.08 56.4 0 1 70.00 45.88
  L 76.52 55.80
  A 0.43 0.43 0.0 0 0 77.20 55.84
  L 77.71 55.26
  A 0.74 0.73 -36.4 0 0 77.83 54.49
  Q 75.42 48.98 72.34 45.47
  A 2.27 2.22 83.6 0 0 71.79 45.02
  L 70.90 44.51
  A 2.26 2.22 85.7 0 1 70.25 43.94
  L 64.25 35.98
  A 0.80 0.80 0.0 0 0 63.08 35.87
  Q 54.55 43.60 48.86 53.65
  A 0.21 0.21 0.0 0 1 48.57 53.73
  L 48.56 53.73
  A 0.24 0.23 30.3 0 1 48.47 53.41
  Q 54.25 43.10 62.47 35.35
  A 1.15 1.15 0.0 0 0 62.65 33.88
  L 59.84 29.61
  A 0.79 0.79 0.0 0 0 58.63 29.47
  Q 50.43 37.45 48.89 39.65
  Q 47.39 41.79 46.28 42.83
  A 0.38 0.38 0.0 0 1 45.68 42.38
  Q 46.81 40.10 48.12 38.61
  Q 55.89 29.83 59.07 27.57
  Q 63.45 24.46 66.44 22.71
  Q 78.00 15.95 91.02 16.00
  A 1.14 1.14 0.0 0 0 92.17 14.86
  L 92.17 0.53
  A 0.31 0.30 15.3 0 1 92.63 0.27
  L 93.28 0.65
  A 0.18 0.18 0.0 0 1 93.38 0.81
  L 93.38 15.14
  A 1.01 1.01 0.0 0 0 94.34 16.15
  C 105.61 16.61 114.54 21.62 124.31 29.03
  A 0.56 0.55 39.4 0 0 125.06 28.96
  L 136.21 16.13
  A 0.17 0.16 41.5 0 1 136.45 16.12
  L 136.65 16.30
  A 0.38 0.38 0.0 0 1 136.72 16.80
  Q 134.67 19.80 131.98 22.37
  A 4.94 4.92 -5.6 0 0 131.23 23.28
  Q 129.26 26.34 125.91 29.72
  A 0.60 0.60 0.0 0 0 125.92 30.57
  Q 126.90 31.50 126.96 32.37
  A 0.37 0.36 11.9 0 1 126.43 32.71
  Q 125.76 32.38 125.07 31.45
  A 0.59 0.59 0.0 0 0 124.16 31.41
  L 121.59 34.37
  A 0.72 0.71 42.3 0 0 121.64 35.35
  Q 126.96 40.33 130.78 46.47
  Z
  M 60.43 29.56
  L 63.41 33.16
  A 0.95 0.94 -38.7 0 0 64.71 33.30
  Q 71.15 28.26 77.85 25.45
  Q 83.54 23.06 91.58 22.88
  A 0.45 0.45 0.0 0 0 92.02 22.43
  L 92.02 17.95
  A 0.60 0.59 -0.5 0 0 91.41 17.36
  Q 79.65 17.65 70.51 22.00
  Q 68.66 22.88 60.65 28.08
  A 1.01 1.00 53.7 0 0 60.43 29.56
  Z
  M 93.96 22.96
  Q 96.62 22.78 101.47 24.10
  Q 112.05 26.99 119.50 33.66
  A 1.25 1.24 -48.4 0 0 121.26 33.55
  L 122.98 31.56
  A 1.39 1.38 -49.4 0 0 122.83 29.58
  Q 112.91 21.31 100.46 18.29
  Q 98.47 17.81 93.94 17.76
  A 0.43 0.43 0.0 0 0 93.51 18.19
  L 93.51 22.54
  A 0.43 0.42 -1.3 0 0 93.96 22.96
  Z
  M 80.85 49.04
  Q 81.01 50.04 81.46 50.80
  A 0.27 0.27 0.0 0 0 81.95 50.76
  Q 82.34 49.71 81.38 48.68
  L 79.80 40.95
  A 0.85 0.85 0.0 0 1 80.32 39.99
  Q 85.88 37.82 91.11 37.97
  A 0.86 0.86 0.0 0 0 91.99 37.11
  L 91.99 24.82
  A 0.43 0.42 88.1 0 0 91.54 24.39
  Q 84.53 24.74 78.22 26.76
  C 73.43 28.30 69.39 31.19 64.80 34.29
  A 0.78 0.78 0.0 0 0 64.64 35.43
  L 71.41 43.58
  A 0.70 0.70 0.0 0 0 72.33 43.72
  L 76.90 40.71
  A 0.58 0.58 0.0 0 1 77.76 40.99
  L 80.85 49.04
  Z
  M 94.27 38.20
  L 95.52 38.09
  A 5.93 5.92 49.0 0 1 97.36 38.22
  Q 104.98 39.94 111.18 44.27
  A 0.80 0.80 0.0 0 0 112.24 44.14
  L 119.12 36.23
  A 0.91 0.91 0.0 0 0 119.03 34.94
  Q 108.56 25.87 94.37 24.46
  A 0.54 0.54 0.0 0 0 93.78 25.00
  L 93.78 37.75
  A 0.45 0.45 0.0 0 0 94.27 38.20
  Z
  M 83.55 48.35
  L 86.98 47.20
  A 2.55 2.33 32.3 0 1 87.71 47.07
  L 90.92 46.95
  A 1.11 1.11 0.0 0 0 91.99 45.84
  L 91.99 40.11
  A 0.69 0.68 -2.7 0 0 91.24 39.43
  L 84.39 40.07
  A 0.93 0.91 20.1 0 0 83.84 40.32
  Q 83.11 41.01 82.27 40.88
  A 0.73 0.73 0.0 0 0 81.45 41.73
  L 82.53 47.74
  A 0.79 0.78 75.7 0 0 83.55 48.35
  Z"
/>
<rect fill="#3567a6" fill-opacity="0.996" x="-0.46" y="-7.45" transform="translate(53.79,21.31) rotate(-37.9)" width="0.92" height="14.90" rx="0.44"/>
<path fill="#52ebf7" fill-opacity="0.996" d="
  M 151.32 57.68
  Q 150.80 58.77 151.40 59.99
  Q 145.25 59.91 139.81 59.83
  Q 137.73 59.80 136.78 59.28
  Q 135.05 58.32 134.75 56.89
  A 1.68 1.56 50.4 0 1 134.80 56.04
  L 135.65 53.54
  A 0.51 0.51 0.0 0 0 135.28 52.88
  Q 133.25 52.39 132.15 52.93
  A 1.07 1.06 -43.1 0 1 131.15 52.90
  L 130.32 52.43
  Q 131.56 52.20 132.19 51.67
  A 0.79 0.79 0.0 0 0 132.42 50.82
  Q 131.81 49.02 130.47 47.45
  Q 130.45 46.99 130.78 46.47
  Q 132.45 48.21 133.41 50.42
  A 1.01 1.01 0.0 0 0 134.71 50.96
  L 136.22 50.37
  A 1.00 0.97 -52.9 0 1 136.61 50.31
  L 148.34 51.15
  A 2.15 2.15 0.0 0 1 150.33 53.19
  Q 150.45 55.53 151.32 57.68
  Z
  M 138.10 53.57
  A 0.48 0.48 0.0 0 0 137.32 53.01
  Q 136.80 53.61 136.96 54.50
  A 0.30 0.29 -35.2 0 0 137.51 54.59
  L 138.10 53.57
  Z
  M 143.98 53.50
  Q 143.77 54.05 142.77 54.24
  A 0.90 0.89 3.2 0 0 142.08 54.85
  Q 141.94 55.27 142.27 56.94
  A 0.79 0.78 0.1 0 0 142.90 57.56
  Q 145.55 58.06 146.90 56.52
  A 1.33 1.25 46.1 0 0 146.88 54.85
  Q 146.47 54.35 144.57 53.29
  A 0.41 0.41 0.0 0 0 143.98 53.50
  Z
  M 138.82 57.41
  Q 138.81 57.34 137.48 55.80
  A 0.33 0.33 0.0 0 0 136.91 56.08
  Q 137.08 56.91 138.37 57.74
  A 0.30 0.30 0.0 0 0 138.82 57.41
  Z"
/>
<path fill="#3567a6" fill-opacity="0.996" d="
  M 80.85 49.04
  Q 81.06 49.01 81.38 48.68
  Q 82.34 49.71 81.95 50.76
  A 0.27 0.27 0.0 0 1 81.46 50.80
  Q 81.01 50.04 80.85 49.04
  Z"
/>
<path fill="#2fc5f9" fill-opacity="0.996" d="
  M 55.06 70.29
  Q 54.21 70.65 53.81 70.13
  Q 57.60 58.44 65.76 49.25
  A 0.35 0.35 0.0 0 1 66.26 49.22
  L 70.39 52.80
  A 0.41 0.41 0.0 0 1 70.43 53.38
  L 70.20 53.65
  A 0.33 0.33 0.0 0 1 69.74 53.68
  L 66.95 51.25
  A 1.09 1.08 -48.6 0 0 65.42 51.35
  Q 58.18 59.46 55.06 70.29
  Z"
/>
<path fill="#617c96" fill-opacity="0.996" d="
  M 130.32 52.43
  Q 129.50 54.21 127.21 55.44
  Q 120.96 58.81 120.25 58.88
  A 0.87 0.86 -83.5 0 0 119.53 59.46
  Q 119.43 59.74 118.36 60.28
  A 0.33 0.33 0.0 0 0 118.48 60.90
  Q 122.55 61.18 127.46 59.99
  A 2.33 1.94 -25.2 0 1 127.78 59.95
  L 131.64 59.74
  A 3.23 3.05 49.8 0 1 132.69 59.86
  Q 142.17 62.63 151.40 59.99
  Q 150.80 58.77 151.32 57.68
  Q 152.70 60.54 153.08 63.56
  L 149.35 65.23
  A 1.37 1.35 -54.8 0 1 148.79 65.33
  L 135.86 64.59
  Q 124.24 63.26 115.96 63.89
  Q 114.83 63.97 115.22 64.93
  Q 101.52 66.12 87.75 65.83
  Q 86.14 65.80 84.99 66.44
  A 0.41 0.41 0.0 0 0 85.19 67.20
  L 102.05 67.26
  Q 101.78 67.58 101.56 67.67
  A 0.44 0.44 0.0 0 0 101.69 68.52
  L 109.06 68.86
  A 0.39 0.39 0.0 0 0 109.29 68.14
  L 107.81 67.23
  Q 112.23 66.28 115.74 66.71
  Q 118.44 68.29 121.75 67.77
  Q 129.45 66.57 134.65 66.94
  A 0.21 0.20 -82.8 0 1 134.84 67.19
  L 134.69 67.88
  A 0.05 0.05 0.0 0 1 134.64 67.92
  L 124.11 68.09
  A 5.27 5.23 34.3 0 0 122.48 68.39
  Q 120.53 69.09 120.00 69.05
  Q 115.55 68.76 110.40 69.54
  C 106.56 70.12 102.58 69.47 99.68 70.37
  C 96.00 71.50 91.12 70.42 87.35 71.81
  A 1.64 1.52 -53.0 0 1 86.80 71.91
  L 81.34 71.91
  A 0.54 0.47 -49.1 0 0 81.20 71.93
  Q 78.30 72.93 74.58 73.03
  A 2.69 2.62 -55.8 0 0 73.65 73.22
  L 65.12 76.57
  Q 64.56 75.82 65.17 75.44
  Q 69.52 72.72 74.63 71.92
  Q 79.69 70.06 85.31 70.88
  Q 85.44 70.90 85.65 70.75
  Q 86.07 70.46 85.87 70.22
  A 1.40 1.38 70.5 0 0 84.82 69.71
  L 79.70 69.58
  A 1.21 1.20 -58.4 0 0 79.08 69.73
  Q 76.85 70.95 74.22 70.99
  Q 74.11 70.96 74.00 70.93
  Q 74.51 70.23 72.65 69.77
  A 1.01 1.00 -57.1 0 0 71.78 69.96
  Q 70.49 70.98 68.60 70.52
  Q 69.20 70.16 69.29 69.41
  Q 74.67 68.79 76.24 67.94
  Q 80.14 65.83 84.33 64.27
  A 2.51 2.37 -56.1 0 1 84.86 64.15
  L 92.04 63.53
  Q 92.08 63.98 92.65 63.90
  A 0.78 0.76 12.1 0 0 93.19 63.56
  L 93.74 62.76
  Q 93.62 63.38 94.15 63.35
  Q 98.15 63.14 102.23 62.96
  A 2.11 2.04 28.4 0 0 103.16 62.70
  Q 103.71 62.40 104.23 62.11
  Q 106.25 60.99 107.37 61.10
  Q 109.04 61.26 110.03 59.65
  Q 110.16 60.17 111.04 59.31
  C 113.87 58.58 118.48 56.68 119.80 53.99
  L 120.53 53.56
  Q 121.94 56.01 124.18 54.91
  Q 127.09 53.49 130.32 52.43
  Z"
/>
<path fill="#b1bcc1" d="
  M 151.40 59.99
  Q 142.17 62.63 132.69 59.86
  A 3.23 3.05 49.8 0 0 131.64 59.74
  L 127.78 59.95
  A 2.33 1.94 -25.2 0 0 127.46 59.99
  Q 122.55 61.18 118.48 60.90
  A 0.33 0.33 0.0 0 1 118.36 60.28
  Q 119.43 59.74 119.53 59.46
  A 0.87 0.86 -83.5 0 1 120.25 58.88
  Q 120.96 58.81 127.21 55.44
  Q 129.50 54.21 130.32 52.43
  L 131.15 52.90
  A 1.07 1.06 -43.1 0 0 132.15 52.93
  Q 133.25 52.39 135.28 52.88
  A 0.51 0.51 0.0 0 1 135.65 53.54
  L 134.80 56.04
  A 1.68 1.56 50.4 0 0 134.75 56.89
  Q 135.05 58.32 136.78 59.28
  Q 137.73 59.80 139.81 59.83
  Q 145.25 59.91 151.40 59.99
  Z"
/>
<path fill="#2fc5f9" fill-opacity="0.996" d="
  M 138.10 53.57
  L 137.51 54.59
  A 0.30 0.29 -35.2 0 1 136.96 54.50
  Q 136.80 53.61 137.32 53.01
  A 0.48 0.48 0.0 0 1 138.10 53.57
  Z"
/>
<path fill="#f1f5f5" fill-opacity="0.996" d="
  M 144.57 53.29
  Q 146.47 54.35 146.88 54.85
  A 1.33 1.25 46.1 0 1 146.90 56.52
  Q 145.55 58.06 142.90 57.56
  A 0.79 0.78 0.1 0 1 142.27 56.94
  Q 141.94 55.27 142.08 54.85
  A 0.90 0.89 3.2 0 1 142.77 54.24
  Q 143.77 54.05 143.98 53.50
  A 0.41 0.41 0.0 0 1 144.57 53.29
  Z"
/>
<path fill="#3567a6" fill-opacity="0.996" d="
  M 138.37 57.74
  Q 137.08 56.91 136.91 56.08
  A 0.33 0.33 0.0 0 1 137.48 55.80
  Q 138.81 57.34 138.82 57.41
  A 0.30 0.30 0.0 0 1 138.37 57.74
  Z"
/>
<path fill="#142232" d="
  M 43.22 69.94
  L 42.02 69.98
  L 45.87 58.37
  Q 45.87 58.35 45.87 58.37
  Q 44.69 63.79 42.86 69.03
  Q 42.75 69.36 43.22 69.94
  Z"
/>
<path fill="#f1f5f5" fill-opacity="0.996" d="
  M 153.08 63.56
  Q 152.91 63.38 152.96 63.97
  Q 153.05 64.58 153.48 64.49
  Q 153.64 65.77 152.67 66.02
  A 0.50 0.39 38.0 0 1 152.48 66.02
  Q 150.27 65.57 148.30 66.26
  A 3.07 2.96 34.0 0 1 147.39 66.42
  L 115.74 66.71
  Q 112.23 66.28 107.81 67.23
  L 102.05 67.26
  L 85.19 67.20
  A 0.41 0.41 0.0 0 1 84.99 66.44
  Q 86.14 65.80 87.75 65.83
  Q 101.52 66.12 115.22 64.93
  L 135.86 64.59
  L 148.79 65.33
  A 1.37 1.35 -54.8 0 0 149.35 65.23
  L 153.08 63.56
  Z"
/>
<path fill="#13181f" d="
  M 135.86 64.59
  L 115.22 64.93
  Q 114.83 63.97 115.96 63.89
  Q 124.24 63.26 135.86 64.59
  Z"
/>
<path fill="#b1bcc1" d="
  M 153.48 64.49
  Q 153.05 64.58 152.96 63.97
  Q 153.30 64.12 153.48 64.49
  Z"
/>
<path fill="#070d15" d="
  M 155.03 66.60
  L 148.86 66.87
  A 1.25 1.24 -59.4 0 0 148.33 67.01
  Q 145.92 68.26 142.95 67.82
  A 0.73 0.73 0.0 0 0 142.13 68.38
  Q 142.00 68.90 142.62 69.35
  A 0.95 0.94 24.0 0 1 142.99 70.30
  L 142.73 71.55
  L 142.46 71.35
  A 0.87 0.85 -72.6 0 1 142.14 70.72
  Q 142.05 69.22 140.64 68.00
  A 1.05 1.02 -25.2 0 0 139.91 67.75
  L 137.21 67.90
  Q 131.70 69.26 125.83 68.89
  C 122.70 68.70 120.28 69.98 116.78 69.88
  Q 113.96 69.80 111.14 70.25
  L 107.46 71.17
  Q 104.00 70.60 100.74 71.27
  Q 97.09 72.03 95.83 71.98
  Q 91.28 71.82 87.90 72.79
  A 5.57 5.27 -50.7 0 1 86.18 73.01
  Q 83.29 72.94 81.54 73.01
  Q 80.65 73.04 80.28 73.53
  Q 79.73 74.25 79.04 73.36
  A 0.66 0.66 0.0 0 0 77.99 73.38
  Q 77.85 73.56 75.27 73.90
  Q 69.47 74.67 63.42 78.62
  Q 62.62 78.29 65.12 76.57
  L 73.65 73.22
  A 2.69 2.62 -55.8 0 1 74.58 73.03
  Q 78.30 72.93 81.20 71.93
  A 0.54 0.47 -49.1 0 1 81.34 71.91
  L 86.80 71.91
  A 1.64 1.52 -53.0 0 0 87.35 71.81
  C 91.12 70.42 96.00 71.50 99.68 70.37
  C 102.58 69.47 106.56 70.12 110.40 69.54
  Q 115.55 68.76 120.00 69.05
  Q 120.53 69.09 122.48 68.39
  A 5.27 5.23 34.3 0 1 124.11 68.09
  L 134.64 67.92
  A 0.05 0.05 0.0 0 0 134.69 67.88
  L 134.84 67.19
  A 0.21 0.20 -82.8 0 0 134.65 66.94
  Q 129.45 66.57 121.75 67.77
  Q 118.44 68.29 115.74 66.71
  L 147.39 66.42
  A 3.07 2.96 34.0 0 0 148.30 66.26
  Q 150.27 65.57 152.48 66.02
  A 0.50 0.39 38.0 0 0 152.67 66.02
  Q 153.64 65.77 153.48 64.49
  Q 153.93 65.89 155.03 66.60
  Z"
/>
<path fill="#8ea7bb" fill-opacity="0.996" d="
  M 163.39 69.67
  Q 163.60 70.96 162.42 71.10
  Q 162.12 71.13 162.02 71.27
  Q 161.83 71.52 161.92 71.92
  A 0.33 0.32 -23.1 0 0 162.42 72.12
  Q 162.88 71.81 163.04 71.17
  A 0.32 0.32 0.0 0 1 163.61 71.07
  Q 164.18 71.86 164.29 72.47
  A 1.20 1.20 0.0 0 0 164.62 73.09
  Q 168.61 76.98 167.68 82.92
  A 0.34 0.34 0.0 0 1 167.24 83.19
  L 167.15 83.17
  A 0.27 0.27 0.0 0 1 166.97 82.85
  Q 167.82 79.16 166.83 77.64
  Q 165.02 74.85 164.18 76.86
  Q 163.25 79.21 164.63 80.09
  A 1.09 1.09 0.0 0 1 165.12 80.83
  Q 165.34 82.18 165.08 83.56
  C 164.46 82.75 163.84 81.78 163.64 80.80
  A 0.14 0.14 0.0 0 0 163.38 80.78
  L 162.38 83.43
  A 2.38 2.38 0.0 0 1 160.15 84.97
  L 150.87 84.97
  A 1.07 1.07 0.0 0 1 150.00 84.52
  L 144.34 76.24
  Q 144.12 75.30 144.12 73.01
  Q 144.12 72.09 143.32 72.12
  Q 142.86 71.93 142.73 71.55
  L 142.99 70.30
  A 0.95 0.94 24.0 0 0 142.62 69.35
  Q 142.00 68.90 142.13 68.38
  A 0.73 0.73 0.0 0 1 142.95 67.82
  Q 145.92 68.26 148.33 67.01
  A 1.25 1.24 -59.4 0 1 148.86 66.87
  L 155.03 66.60
  Q 159.48 67.04 163.39 69.67
  Z
  M 156.82 72.49
  L 148.29 74.03
  A 0.80 0.79 -7.8 0 0 147.63 74.89
  L 148.08 79.61
  A 1.04 1.02 -80.2 0 0 148.67 80.46
  Q 153.05 82.51 158.20 82.60
  A 3.12 3.12 0.0 0 0 161.33 78.92
  L 160.66 75.16
  A 3.31 3.31 0.0 0 0 156.82 72.49
  Z
  M 162.94 73.69
  Q 162.60 74.03 163.04 74.50
  Q 164.51 76.04 164.89 75.66
  Q 165.28 75.28 163.74 73.80
  Q 163.28 73.35 162.94 73.69
  Z"
/>
<path fill="#070d15" d="
  M 107.81 67.23
  L 109.29 68.14
  A 0.39 0.39 0.0 0 1 109.06 68.86
  L 101.69 68.52
  A 0.44 0.44 0.0 0 1 101.56 67.67
  Q 101.78 67.58 102.05 67.26
  L 107.81 67.23
  Z"
/>
<path fill="#b1bcc1" d="
  M 142.73 71.55
  Q 142.86 71.93 143.32 72.12
  Q 142.52 74.35 142.94 75.50
  Q 144.12 78.70 143.69 81.95
  Q 140.12 83.59 137.65 83.61
  Q 130.11 83.66 114.73 83.71
  A 3.54 3.54 0.0 0 1 111.17 80.17
  L 111.17 78.07
  A 3.58 3.57 -2.0 0 1 114.50 74.51
  Q 117.37 74.32 135.05 72.18
  C 136.83 71.97 139.28 72.06 140.87 72.22
  A 0.33 0.33 0.0 0 1 141.16 72.51
  Q 141.19 72.76 141.40 72.81
  A 0.27 0.27 0.0 0 0 141.70 72.40
  Q 140.02 69.87 137.21 67.90
  L 139.91 67.75
  A 1.05 1.02 -25.2 0 1 140.64 68.00
  Q 142.05 69.22 142.14 70.72
  A 0.87 0.85 -72.6 0 0 142.46 71.35
  L 142.73 71.55
  Z
  M 141.18 75.99
  A 1.89 1.89 0.0 0 0 139.14 74.44
  L 113.60 76.84
  A 1.89 1.89 0.0 0 0 111.89 78.90
  L 112.01 80.20
  A 1.89 1.89 0.0 0 0 113.89 81.92
  L 139.99 81.92
  A 1.89 1.89 0.0 0 0 141.85 79.69
  L 141.18 75.99
  Z"
/>
<path fill="#8498a8" fill-opacity="0.996" d="
  M 137.21 67.90
  Q 140.02 69.87 141.70 72.40
  A 0.27 0.27 0.0 0 1 141.40 72.81
  Q 141.19 72.76 141.16 72.51
  A 0.33 0.33 0.0 0 0 140.87 72.22
  C 139.28 72.06 136.83 71.97 135.05 72.18
  Q 117.37 74.32 114.50 74.51
  A 3.58 3.57 -2.0 0 0 111.17 78.07
  L 111.17 80.17
  A 3.54 3.54 0.0 0 0 114.73 83.71
  Q 130.11 83.66 137.65 83.61
  Q 140.12 83.59 143.69 81.95
  L 143.84 84.03
  Q 143.45 84.74 143.56 86.09
  L 113.45 85.28
  A 0.94 0.94 0.0 0 1 112.68 84.85
  Q 108.16 77.89 111.14 70.25
  Q 113.96 69.80 116.78 69.88
  C 120.28 69.98 122.70 68.70 125.83 68.89
  Q 131.70 69.26 137.21 67.90
  Z"
/>
<path fill="#778490" fill-opacity="0.996" d="
  M 67.59 68.46
  L 68.52 69.11
  Q 68.17 69.42 68.58 71.03
  Q 57.95 72.75 46.90 72.40
  A 1.23 0.97 29.9 0 0 46.56 72.45
  L 45.34 72.87
  A 0.70 0.69 38.8 0 0 45.49 74.22
  Q 55.53 75.40 65.22 73.48
  Q 60.21 77.26 53.28 76.94
  Q 42.74 76.45 27.59 76.65
  A 0.93 0.92 -17.2 0 1 26.80 76.24
  Q 25.75 74.66 25.48 72.33
  Q 27.87 69.34 31.00 69.60
  Q 36.12 70.01 42.02 69.98
  L 43.22 69.94
  L 53.81 70.13
  Q 54.21 70.65 55.06 70.29
  L 61.20 70.24
  Q 61.71 70.44 62.29 70.19
  L 66.34 69.95
  A 0.89 0.88 -78.3 0 0 67.08 69.46
  L 67.59 68.46
  Z"
/>
<path fill="#303a46" d="
  M 68.67 68.99
  Q 69.03 69.33 69.29 69.41
  Q 69.20 70.16 68.60 70.52
  Q 68.59 70.78 68.58 71.03
  Q 68.17 69.42 68.52 69.11
  Q 68.60 69.05 68.67 68.99
  Z"
/>
<path fill="#f1f5f5" fill-opacity="0.996" d="
  M 74.00 70.93
  L 65.22 73.48
  Q 55.53 75.40 45.49 74.22
  A 0.70 0.69 38.8 0 1 45.34 72.87
  L 46.56 72.45
  A 1.23 0.97 29.9 0 1 46.90 72.40
  Q 57.95 72.75 68.58 71.03
  Q 68.59 70.78 68.60 70.52
  Q 70.49 70.98 71.78 69.96
  A 1.01 1.00 -57.1 0 1 72.65 69.77
  Q 74.51 70.23 74.00 70.93
  Z"
/>
<path fill="#142232" d="
  M 74.63 71.92
  L 74.21 71.80
  A 0.31 0.31 0.0 0 1 74.02 71.34
  L 74.22 70.99
  Q 76.85 70.95 79.08 69.73
  A 1.21 1.20 -58.4 0 1 79.70 69.58
  L 84.82 69.71
  A 1.40 1.38 70.5 0 1 85.87 70.22
  Q 86.07 70.46 85.65 70.75
  Q 85.44 70.90 85.31 70.88
  Q 79.69 70.06 74.63 71.92
  Z"
/>
<path fill="#13181f" d="
  M 62.03 69.69
  L 62.29 70.19
  Q 61.71 70.44 61.20 70.24
  L 61.46 69.67
  Q 61.75 69.74 62.03 69.69
  Z"
/>
<path fill="#697580" fill-opacity="0.996" d="
  M 168.15 75.22
  Q 167.56 76.14 168.79 77.78
  A 1.98 1.96 28.3 0 1 169.17 79.03
  L 168.98 83.00
  A 1.56 1.39 41.6 0 0 169.02 83.34
  L 170.07 87.27
  L 169.76 100.06
  Q 167.86 99.54 166.50 98.37
  A 0.91 0.89 19.7 0 1 166.20 97.75
  L 165.73 81.03
  A 0.74 0.72 -72.4 0 0 165.45 80.47
  Q 165.42 80.44 165.37 80.38
  A 1.05 1.03 -64.0 0 1 165.13 79.66
  Q 165.23 78.17 164.18 76.86
  Q 165.02 74.85 166.83 77.64
  Q 167.82 79.16 166.97 82.85
  A 0.27 0.27 0.0 0 0 167.15 83.17
  L 167.24 83.19
  A 0.34 0.34 0.0 0 0 167.68 82.92
  Q 168.61 76.98 164.62 73.09
  A 1.20 1.20 0.0 0 1 164.29 72.47
  Q 164.18 71.86 163.61 71.07
  A 0.32 0.32 0.0 0 0 163.04 71.17
  Q 162.88 71.81 162.42 72.12
  A 0.33 0.32 -23.1 0 1 161.92 71.92
  Q 161.83 71.52 162.02 71.27
  Q 162.12 71.13 162.42 71.10
  Q 163.60 70.96 163.39 69.67
  C 165.76 70.70 166.88 72.94 168.15 75.22
  Z"
/>
<path fill="#13181f" d="
  M 189.99 96.03
  Q 180.31 92.54 171.51 87.44
  Q 172.17 87.96 172.66 87.89
  A 0.33 0.33 0.0 0 0 172.74 87.26
  Q 172.18 87.04 171.54 87.38
  L 170.07 87.27
  L 169.02 83.34
  A 1.56 1.39 41.6 0 1 168.98 83.00
  L 169.17 79.03
  A 1.98 1.96 28.3 0 0 168.79 77.78
  Q 167.56 76.14 168.15 75.22
  L 173.49 72.53
  A 3.28 3.25 25.3 0 1 174.31 72.24
  C 180.91 70.84 184.21 70.05 187.81 70.03
  A 2.06 2.06 0.0 0 1 189.88 72.08
  L 189.99 96.03
  Z
  M 185.5216 80.9799
  A 2.64 0.95 100.0 0 0 186.9156 78.5450
  A 2.64 0.95 100.0 0 0 186.4384 75.7801
  A 2.64 0.95 100.0 0 0 185.0444 78.2150
  A 2.64 0.95 100.0 0 0 185.5216 80.9799
  Z
  M 180.68 80.92
  A 0.39 0.34 69.4 0 0 180.89 80.35
  Q 180.72 80.04 180.34 80.09
  A 0.43 0.39 63.0 0 0 180.15 80.80
  Q 180.31 80.97 180.68 80.92
  Z
  M 176.07 84.34
  Q 176.19 84.50 176.20 84.51
  A 0.70 0.70 0.0 0 0 177.24 83.84
  L 176.99 80.89
  A 0.39 0.38 -38.7 0 0 176.24 80.81
  L 175.77 82.25
  A 0.65 0.64 -59.3 0 1 174.72 82.52
  Q 174.47 82.32 173.90 82.20
  Q 173.01 82.02 173.19 83.22
  Q 173.28 83.83 174.14 84.41
  A 0.63 0.63 0.0 0 0 174.98 84.28
  Q 175.14 84.06 175.48 84.05
  A 0.71 0.71 0.0 0 1 176.07 84.34
  Z
  M 180.83 82.32
  L 179.84 82.97
  A 0.53 0.53 0.0 0 1 179.02 82.44
  Q 179.08 82.11 179.32 81.69
  A 0.51 0.51 0.0 0 0 178.96 80.92
  L 178.72 80.88
  A 0.63 0.63 0.0 0 0 178.00 81.41
  Q 177.81 82.68 179.12 83.70
  A 0.59 0.59 0.0 0 0 179.70 83.77
  Q 181.43 83.02 181.15 82.41
  A 0.22 0.22 0.0 0 0 180.83 82.32
  Z
  M 171.94 85.13
  Q 172.33 84.95 172.35 84.94
  A 0.45 0.44 -37.1 0 0 172.44 84.29
  Q 171.42 83.03 171.04 83.20
  Q 170.66 83.38 170.97 84.98
  A 0.45 0.44 -13.2 0 0 171.53 85.32
  Q 171.55 85.31 171.94 85.13
  Z"
/>
<path fill="#697580" fill-opacity="0.996" d="
  M 111.14 70.25
  Q 108.16 77.89 112.68 84.85
  A 0.94 0.94 0.0 0 0 113.45 85.28
  L 143.56 86.09
  Q 130.82 87.83 117.68 86.76
  Q 112.96 86.38 109.55 83.19
  A 1.08 1.06 21.5 0 1 109.20 82.40
  L 109.20 80.20
  A 0.64 0.63 -75.9 0 0 108.87 79.64
  Q 108.00 79.16 108.10 77.75
  Q 108.32 74.74 107.92 71.69
  Q 107.69 71.25 107.46 71.17
  L 111.14 70.25
  Z"
/>
<path fill="#49545f" fill-opacity="0.996" d="
  M 74.00 70.93
  Q 74.11 70.96 74.22 70.99
  L 74.02 71.34
  A 0.31 0.31 0.0 0 0 74.21 71.80
  L 74.63 71.92
  Q 69.52 72.72 65.17 75.44
  Q 64.56 75.82 65.12 76.57
  Q 62.62 78.29 63.42 78.62
  Q 63.44 85.26 67.24 88.28
  Q 72.68 92.59 80.78 93.23
  Q 81.01 93.91 80.88 94.69
  L 80.88 97.86
  A 0.59 0.59 0.0 0 1 80.41 98.44
  C 75.68 99.41 70.44 96.19 66.73 93.72
  C 63.03 91.25 60.89 87.18 58.68 83.12
  Q 61.01 80.70 62.88 77.10
  A 0.35 0.35 0.0 0 0 62.32 76.70
  C 60.01 79.10 52.83 78.79 49.84 78.21
  A 4.46 4.05 47.8 0 0 49.02 78.13
  Q 37.44 78.12 27.00 78.10
  Q 24.72 78.10 23.27 76.88
  Q 23.89 74.26 25.48 72.33
  Q 25.75 74.66 26.80 76.24
  A 0.93 0.92 -17.2 0 0 27.59 76.65
  Q 42.74 76.45 53.28 76.94
  Q 60.21 77.26 65.22 73.48
  L 74.00 70.93
  Z"
/>
<path fill="#778490" fill-opacity="0.996" d="
  M 107.46 71.17
  Q 107.69 71.25 107.92 71.69
  L 106.92 75.25
  L 98.53 76.37
  A 15.87 15.86 -48.0 0 1 96.08 76.50
  L 85.93 76.30
  A 0.83 0.82 12.3 0 0 85.16 76.79
  Q 83.43 80.77 84.22 85.14
  A 1.52 1.51 2.1 0 0 85.34 86.34
  C 87.87 86.96 90.68 87.35 93.63 87.05
  Q 98.72 86.53 104.21 87.23
  Q 105.37 87.38 107.78 86.20
  L 108.21 86.55
  Q 109.28 88.25 109.00 90.69
  L 108.83 91.57
  Q 100.74 90.61 92.70 90.24
  Q 85.01 89.89 81.69 82.34
  L 81.27 75.10
  A 0.43 0.42 49.7 0 0 80.43 75.03
  Q 80.03 76.79 79.90 79.06
  Q 76.68 79.66 74.12 81.71
  A 1.35 1.32 -16.6 0 0 73.62 82.61
  Q 73.46 83.97 74.18 85.45
  A 0.95 0.94 85.2 0 0 74.74 85.93
  L 80.66 87.70
  L 80.78 93.23
  Q 72.68 92.59 67.24 88.28
  Q 63.44 85.26 63.42 78.62
  Q 69.47 74.67 75.27 73.90
  Q 77.85 73.56 77.99 73.38
  A 0.66 0.66 0.0 0 1 79.04 73.36
  Q 79.73 74.25 80.28 73.53
  Q 80.65 73.04 81.54 73.01
  Q 83.29 72.94 86.18 73.01
  A 5.57 5.27 -50.7 0 0 87.90 72.79
  Q 91.28 71.82 95.83 71.98
  Q 97.09 72.03 100.74 71.27
  Q 104.00 70.60 107.46 71.17
  Z"
/>
<path fill="#49545f" fill-opacity="0.996" d="
  M 143.56 86.09
  Q 143.45 84.74 143.84 84.03
  Q 143.88 85.55 144.72 85.62
  Q 143.29 87.80 144.51 93.24
  Q 141.23 90.35 136.42 90.20
  Q 119.30 89.65 109.00 90.69
  Q 109.28 88.25 108.21 86.55
  Q 109.78 84.42 108.53 80.74
  A 0.22 0.22 0.0 0 0 108.11 80.76
  L 107.85 81.79
  Q 107.89 80.04 107.08 78.51
  A 1.61 1.61 0.0 0 1 106.91 77.79
  L 106.92 75.25
  L 107.92 71.69
  Q 108.32 74.74 108.10 77.75
  Q 108.00 79.16 108.87 79.64
  A 0.64 0.63 -75.9 0 1 109.20 80.20
  L 109.20 82.40
  A 1.08 1.06 21.5 0 0 109.55 83.19
  Q 112.96 86.38 117.68 86.76
  Q 130.82 87.83 143.56 86.09
  Z"
/>
<path fill="#1f3042" fill-opacity="0.996" d="
  M 144.34 76.24
  Q 145.23 80.68 145.37 85.12
  Q 145.44 87.31 146.12 87.54
  Q 151.47 89.34 157.14 89.74
  Q 160.65 89.98 164.87 92.71
  L 164.83 93.99
  L 146.04 94.14
  A 0.39 0.37 20.1 0 0 145.76 94.26
  Q 145.30 94.73 145.59 95.92
  Q 145.00 96.73 144.46 96.76
  Q 144.23 96.78 144.17 96.59
  Q 144.11 96.41 144.29 96.25
  Q 144.91 95.46 144.64 94.65
  A 0.75 0.75 0.0 0 0 143.93 94.14
  L 109.39 94.11
  Q 108.98 94.16 108.80 93.59
  A 0.88 0.83 -43.5 0 1 108.83 93.01
  Q 109.25 92.05 108.83 91.57
  L 109.00 90.69
  Q 119.30 89.65 136.42 90.20
  Q 141.23 90.35 144.51 93.24
  Q 145.52 88.82 144.72 85.62
  Q 143.88 85.55 143.84 84.03
  L 143.69 81.95
  Q 144.12 78.70 142.94 75.50
  Q 142.52 74.35 143.32 72.12
  Q 144.12 72.09 144.12 73.01
  Q 144.12 75.30 144.34 76.24
  Z"
/>
<path fill="#f1f5f5" fill-opacity="0.996" d="
  M 156.82 72.49
  A 3.31 3.31 0.0 0 1 160.66 75.16
  L 161.33 78.92
  A 3.12 3.12 0.0 0 1 158.20 82.60
  Q 153.05 82.51 148.67 80.46
  A 1.04 1.02 -80.2 0 1 148.08 79.61
  L 147.63 74.89
  A 0.80 0.79 -7.8 0 1 148.29 74.03
  L 156.82 72.49
  Z"
/>
<path fill="#3567a6" fill-opacity="0.996" d="
  M 164.89 75.66
  Q 164.51 76.04 163.04 74.50
  Q 162.60 74.03 162.94 73.69
  Q 163.28 73.35 163.74 73.80
  Q 165.28 75.28 164.89 75.66
  Z"
/>
<path fill="#f1f5f5" fill-opacity="0.996" d="
  M 141.18 75.99
  L 141.85 79.69
  A 1.89 1.89 0.0 0 1 139.99 81.92
  L 113.89 81.92
  A 1.89 1.89 0.0 0 1 112.01 80.20
  L 111.89 78.90
  A 1.89 1.89 0.0 0 1 113.60 76.84
  L 139.14 74.44
  A 1.89 1.89 0.0 0 1 141.18 75.99
  Z"
/>
<path fill="#142232" d="
  M 81.69 82.34
  L 82.28 86.65
  L 82.23 94.08
  A 1.68 1.55 38.0 0 0 82.33 94.69
  Q 85.02 102.73 92.42 103.91
  Q 100.50 105.18 108.33 104.88
  A 9.62 9.55 54.3 0 1 112.20 105.53
  Q 117.28 107.50 122.78 108.02
  C 129.50 108.66 136.29 109.63 142.97 108.57
  A 0.65 0.64 87.2 0 0 143.51 107.97
  L 143.85 101.03
  L 144.02 97.31
  A 0.35 0.28 -65.3 0 0 143.98 97.15
  Q 143.83 96.85 143.54 96.99
  Q 143.77 96.58 143.68 96.29
  L 144.29 96.25
  Q 144.11 96.41 144.17 96.59
  Q 144.23 96.78 144.46 96.76
  Q 145.00 96.73 145.59 95.92
  Q 145.70 96.15 145.83 96.28
  Q 145.95 96.41 146.21 96.40
  Q 153.61 96.25 162.20 96.48
  Q 160.55 97.81 157.50 97.97
  Q 153.17 98.20 148.30 98.08
  A 1.27 1.26 4.8 0 0 147.01 99.16
  Q 146.53 102.37 148.68 103.78
  Q 151.33 105.53 155.04 106.21
  Q 165.66 108.17 164.94 96.69
  L 164.83 93.99
  L 164.87 92.71
  L 165.08 83.56
  Q 165.34 82.18 165.12 80.83
  A 1.09 1.09 0.0 0 0 164.63 80.09
  Q 163.25 79.21 164.18 76.86
  Q 165.23 78.17 165.13 79.66
  A 1.05 1.03 -64.0 0 0 165.37 80.38
  Q 165.42 80.44 165.45 80.47
  A 0.74 0.72 -72.4 0 1 165.73 81.03
  L 166.20 97.75
  A 0.91 0.89 19.7 0 0 166.50 98.37
  Q 167.86 99.54 169.76 100.06
  L 169.64 106.40
  A 4.37 4.30 55.9 0 1 169.40 107.70
  Q 168.88 109.23 168.82 110.62
  C 167.33 114.12 166.09 117.35 162.81 119.52
  L 162.19 119.19
  A 0.52 0.51 -60.8 0 1 161.99 118.47
  L 162.69 117.26
  A 0.38 0.37 -61.0 0 0 162.55 116.75
  L 161.74 116.28
  A 0.18 0.17 -49.5 0 0 161.53 116.30
  Q 159.30 118.31 160.91 120.41
  Q 156.77 122.28 152.10 122.49
  Q 147.57 121.60 142.64 121.60
  Q 124.00 121.58 105.25 121.71
  Q 96.94 119.55 88.37 118.74
  Q 79.41 117.90 76.57 117.03
  Q 66.95 114.09 61.27 106.66
  Q 64.15 109.21 68.53 110.83
  Q 68.78 110.92 68.92 110.65
  A 0.04 0.03 -68.9 0 0 68.91 110.61
  L 63.01 107.46
  A 1.91 1.91 0.0 0 1 62.16 106.52
  Q 61.38 104.72 59.96 103.91
  L 60.74 97.11
  A 2.11 1.56 -50.6 0 0 60.76 96.72
  L 60.33 87.87
  Q 61.22 94.01 65.24 97.23
  Q 71.63 102.36 80.27 104.93
  A 0.47 0.47 0.0 0 0 80.86 104.58
  Q 81.90 99.67 80.88 94.69
  Q 81.01 93.91 80.78 93.23
  L 80.66 87.70
  L 80.72 83.98
  A 2.66 2.61 -53.2 0 0 80.61 83.16
  Q 79.99 81.12 79.90 79.06
  Q 80.03 76.79 80.43 75.03
  A 0.43 0.42 49.7 0 1 81.27 75.10
  L 81.69 82.34
  Z
  M 83.26 104.05
  Q 83.14 104.46 82.96 109.83
  A 2.12 2.12 0.0 0 1 82.50 111.06
  C 81.68 112.08 82.28 113.32 81.72 114.06
  Q 81.32 114.60 81.32 114.77
  A 0.27 0.26 -27.2 0 0 81.80 114.92
  Q 83.10 113.10 82.92 111.65
  A 2.06 1.96 -38.9 0 1 83.05 110.67
  Q 84.36 107.41 83.65 104.07
  A 0.20 0.20 0.0 0 0 83.26 104.05
  Z
  M 72.29 111.46
  Q 71.87 111.16 71.51 111.18
  A 0.24 0.23 -29.6 0 0 71.39 111.61
  Q 71.57 111.73 72.13 111.84
  A 0.21 0.21 0.0 0 0 72.29 111.46
  Z
  M 74.43 112.82
  A 0.24 0.24 0.0 0 0 74.62 112.43
  Q 74.44 112.22 74.06 112.10
  A 0.27 0.26 -17.8 0 0 73.82 112.56
  Q 74.14 112.80 74.43 112.82
  Z
  M 140.02 117.45
  A 0.20 0.20 0.0 0 0 140.27 117.75
  Q 141.82 117.03 141.76 115.51
  A 0.15 0.14 -27.5 0 0 141.50 115.43
  L 140.02 117.45
  Z
  M 156.0992 117.6778
  A 5.03 0.29 1.0 0 0 151.0751 117.3000
  A 5.03 0.29 1.0 0 0 146.0408 117.5022
  A 5.03 0.29 1.0 0 0 151.0649 117.8800
  A 5.03 0.29 1.0 0 0 156.0992 117.6778
  Z"
/>
<path fill="#b1bcc1" d="
  M 106.92 75.25
  L 106.91 77.79
  A 1.61 1.61 0.0 0 0 107.08 78.51
  Q 107.89 80.04 107.85 81.79
  L 107.78 86.20
  Q 105.37 87.38 104.21 87.23
  Q 98.72 86.53 93.63 87.05
  C 90.68 87.35 87.87 86.96 85.34 86.34
  A 1.52 1.51 2.1 0 1 84.22 85.14
  Q 83.43 80.77 85.16 76.79
  A 0.83 0.82 12.3 0 1 85.93 76.30
  L 96.08 76.50
  A 15.87 15.86 -48.0 0 0 98.53 76.37
  L 106.92 75.25
  Z
  M 106.84 82.61
  L 106.36 78.98
  A 0.93 0.93 0.0 0 0 105.32 78.18
  L 105.13 78.20
  A 3.42 2.61 -7.5 0 0 102.08 81.24
  L 102.12 81.54
  A 3.42 2.61 -7.5 0 0 105.85 83.68
  L 106.04 83.65
  A 0.93 0.93 0.0 0 0 106.84 82.61
  Z
  M 96.64 83.35
  L 96.64 80.45
  A 0.88 0.88 0.0 0 0 95.76 79.57
  L 95.08 79.57
  A 9.40 2.24 0.1 0 0 85.68 81.79
  L 85.68 81.97
  A 9.40 2.24 0.1 0 0 95.08 84.23
  L 95.76 84.23
  A 0.88 0.88 0.0 0 0 96.64 83.35
  Z"
/>
<ellipse fill="#b1bcc1" cx="0.00" cy="0.00" transform="translate(185.98,78.38) rotate(100.0)" rx="2.64" ry="0.95"/>
<path fill="#5a6572" fill-opacity="0.996" d="
  M 165.08 83.56
  L 164.87 92.71
  Q 160.65 89.98 157.14 89.74
  Q 151.47 89.34 146.12 87.54
  Q 145.44 87.31 145.37 85.12
  Q 145.23 80.68 144.34 76.24
  L 150.00 84.52
  A 1.07 1.07 0.0 0 0 150.87 84.97
  L 160.15 84.97
  A 2.38 2.38 0.0 0 0 162.38 83.43
  L 163.38 80.78
  A 0.14 0.14 0.0 0 1 163.64 80.80
  C 163.84 81.78 164.46 82.75 165.08 83.56
  Z"
/>
<path fill="#070d15" d="
  M 58.68 83.12
  L 60.33 87.87
  L 60.76 96.72
  A 2.11 1.56 -50.6 0 1 60.74 97.11
  L 59.96 103.91
  L 58.20 106.78
  A 1.04 1.03 38.1 0 0 58.36 108.06
  Q 61.43 111.09 65.27 113.14
  C 71.43 116.44 76.44 119.46 82.88 120.63
  Q 94.42 122.72 105.25 121.71
  Q 124.00 121.58 142.64 121.60
  Q 147.57 121.60 152.10 122.49
  L 151.96 128.35
  A 4.75 4.53 -35.6 0 1 151.66 129.93
  Q 151.26 130.99 151.01 132.38
  C 150.51 135.13 148.23 136.96 145.31 135.81
  Q 144.46 135.47 142.66 132.59
  A 0.52 0.50 60.3 0 0 142.01 132.40
  C 140.12 133.36 138.47 136.82 137.00 138.40
  Q 130.79 141.21 124.44 141.02
  Q 129.88 135.69 133.76 129.16
  A 0.21 0.20 -60.3 0 0 133.69 128.88
  L 133.68 128.87
  A 0.21 0.20 29.7 0 0 133.40 128.94
  Q 128.93 136.29 122.37 141.86
  L 118.72 137.40
  A 0.16 0.15 -34.1 0 0 118.52 137.37
  L 118.18 137.59
  A 0.39 0.38 56.3 0 0 118.08 138.12
  L 119.79 140.73
  A 0.68 0.68 0.0 0 1 119.17 141.78
  L 114.51 141.45
  A 0.74 0.74 0.0 0 0 113.71 142.13
  L 113.34 147.36
  A 1.17 1.16 -74.7 0 1 111.66 148.32
  L 97.69 141.36
  Q 107.64 139.59 113.79 134.54
  Q 115.10 133.47 121.07 127.13
  Q 121.32 126.87 121.42 126.87
  Q 121.94 126.88 121.87 126.44
  A 0.19 0.19 0.0 0 0 121.55 126.33
  L 118.34 129.30
  C 112.78 132.04 106.24 136.38 100.92 137.49
  Q 96.34 138.45 90.51 138.55
  Q 88.68 138.58 82.66 137.03
  C 80.75 136.54 78.49 136.49 76.41 136.31
  Q 75.93 135.91 75.34 135.93
  A 0.30 0.30 0.0 0 0 75.20 136.48
  Q 81.73 140.65 89.44 141.65
  Q 91.93 147.78 91.81 154.00
  Q 87.18 154.37 83.45 152.97
  Q 82.91 146.81 78.01 143.50
  Q 70.42 138.38 63.23 132.73
  L 68.86 126.14
  L 71.35 123.40
  A 0.22 0.22 0.0 0 0 71.11 123.05
  Q 70.20 123.41 69.49 124.22
  Q 66.13 126.37 63.77 126.62
  C 57.19 127.34 55.36 119.82 51.17 117.19
  Q 47.89 115.13 45.14 115.03
  Q 34.54 114.67 23.68 114.43
  Q 22.73 112.82 22.57 110.49
  A 0.93 0.92 -12.8 0 1 23.16 109.56
  L 23.59 109.38
  A 0.41 0.41 0.0 0 0 23.44 108.58
  L 16.63 108.58
  A 0.95 0.94 78.8 0 1 15.76 107.99
  L 15.48 107.26
  A 0.64 0.64 0.0 0 0 14.77 106.86
  Q 13.98 106.99 7.82 106.88
  Q 6.83 106.87 6.24 106.00
  Q 5.17 104.45 2.36 105.06
  A 1.17 1.16 83.8 0 1 0.95 103.92
  L 0.95 100.57
  A 1.23 1.23 0.0 0 1 2.35 99.35
  L 4.89 99.70
  A 0.74 0.73 -65.7 0 0 5.54 99.45
  L 6.49 98.35
  A 1.12 1.10 20.6 0 1 7.32 97.98
  L 14.95 97.98
  A 0.28 0.27 -90.0 0 0 15.22 97.70
  L 15.22 94.22
  A 0.33 0.33 0.0 0 0 14.90 93.89
  L 8.00 93.89
  A 2.95 2.87 -30.5 0 1 6.65 93.56
  Q 6.34 93.40 5.76 92.50
  A 1.10 1.09 -15.8 0 0 4.83 91.99
  L 1.28 91.99
  A 0.59 0.59 0.0 0 1 0.69 91.40
  L 0.69 87.90
  A 1.00 1.00 0.0 0 1 1.23 87.01
  Q 2.90 86.15 4.12 86.72
  A 0.79 0.79 0.0 0 0 5.05 86.52
  L 6.31 85.08
  A 1.10 1.10 0.0 0 1 7.15 84.69
  L 14.88 84.69
  A 0.69 0.67 -74.1 0 0 15.46 84.36
  L 15.90 83.59
  A 1.13 1.13 0.0 0 1 16.81 83.02
  L 23.07 82.59
  Q 24.21 83.42 25.65 82.75
  A 0.18 0.18 0.0 0 0 25.59 82.40
  L 23.22 82.20
  Q 22.91 81.55 23.41 80.85
  A 0.59 0.59 0.0 0 0 23.14 79.96
  Q 22.96 79.89 22.89 79.85
  A 0.87 0.85 -63.5 0 1 22.56 78.82
  L 23.27 76.88
  Q 24.72 78.10 27.00 78.10
  Q 37.44 78.12 49.02 78.13
  A 4.46 4.05 47.8 0 1 49.84 78.21
  C 52.83 78.79 60.01 79.10 62.32 76.70
  A 0.35 0.35 0.0 0 1 62.88 77.10
  Q 61.01 80.70 58.68 83.12
  Z
  M 60.62 79.07
  Q 59.25 80.07 59.09 80.48
  A 0.41 0.41 0.0 0 0 59.80 80.87
  L 60.90 79.35
  A 0.20 0.20 0.0 0 0 60.62 79.07
  Z
  M 33.5391 80.4163
  A 3.69 0.44 -1.3 0 0 29.8400 80.0601
  A 3.69 0.44 -1.3 0 0 26.1609 80.5837
  A 3.69 0.44 -1.3 0 0 29.8600 80.9399
  A 3.69 0.44 -1.3 0 0 33.5391 80.4163
  Z
  M 58.2093 81.4639
  A 1.29 0.69 -7.4 0 0 56.8411 80.9457
  A 1.29 0.69 -7.4 0 0 55.6507 81.7961
  A 1.29 0.69 -7.4 0 0 57.0189 82.3143
  A 1.29 0.69 -7.4 0 0 58.2093 81.4639
  Z
  M 8.02 86.18
  L 7.96 87.96
  A 0.70 0.70 0.0 0 0 8.64 88.68
  L 12.72 88.82
  A 1.70 1.55 1.9 0 0 14.47 87.33
  L 14.47 87.25
  A 1.70 1.55 1.9 0 0 12.82 85.64
  L 8.74 85.51
  A 0.70 0.70 0.0 0 0 8.02 86.18
  Z
  M 56.65 87.31
  Q 57.61 86.85 57.23 86.14
  A 0.46 0.45 75.6 0 0 56.83 85.90
  L 35.75 85.90
  A 0.55 0.55 0.0 0 0 35.60 86.98
  Q 37.61 87.53 39.95 87.61
  L 18.68 87.95
  A 0.31 0.31 0.0 0 1 18.58 87.35
  Q 24.43 85.34 31.62 86.00
  A 0.03 0.03 0.0 0 0 31.66 85.97
  L 31.66 85.71
  A 0.32 0.32 0.0 0 0 31.35 85.39
  L 19.43 85.15
  A 1.63 1.63 0.0 0 0 17.78 86.89
  L 17.80 87.13
  A 1.76 1.76 0.0 0 0 19.66 88.81
  Q 34.44 88.00 50.15 88.58
  Q 51.78 88.64 56.65 87.31
  Z
  M 56.08 99.63
  A 0.53 0.53 0.0 0 0 55.55 99.10
  L 35.69 99.10
  A 0.53 0.53 0.0 0 0 35.16 99.63
  L 35.16 99.87
  A 0.53 0.53 0.0 0 0 35.69 100.40
  L 55.55 100.40
  A 0.53 0.53 0.0 0 0 56.08 99.87
  L 56.08 99.63
  Z
  M 14.1689 100.4453
  A 0.54 0.54 0.0 0 0 13.6177 99.9167
  L 8.5188 100.0235
  A 0.54 0.54 0.0 0 0 7.9903 100.5747
  L 7.9911 100.6147
  A 0.54 0.54 0.0 0 0 8.5423 101.1433
  L 13.6412 101.0365
  A 0.54 0.54 0.0 0 0 14.1697 100.4853
  L 14.1689 100.4453
  Z
  M 134.0684 128.0371
  A 0.68 0.35 130.5 0 0 134.7761 127.7473
  A 0.68 0.35 130.5 0 0 134.9516 127.0029
  A 0.68 0.35 130.5 0 0 134.2439 127.2927
  A 0.68 0.35 130.5 0 0 134.0684 128.0371
  Z"
/>
<path fill="#b1bcc1" d="
  M 79.90 79.06
  Q 79.99 81.12 80.61 83.16
  A 2.66 2.61 -53.2 0 1 80.72 83.98
  L 80.66 87.70
  L 74.74 85.93
  A 0.95 0.94 85.2 0 1 74.18 85.45
  Q 73.46 83.97 73.62 82.61
  A 1.35 1.32 -16.6 0 1 74.12 81.71
  Q 76.68 79.66 79.90 79.06
  Z"
/>
<path fill="#f1f5f5" fill-opacity="0.996" d="
  M 106.84 82.61
  A 0.93 0.93 0.0 0 1 106.04 83.65
  L 105.85 83.68
  A 3.42 2.61 -7.5 0 1 102.12 81.54
  L 102.08 81.24
  A 3.42 2.61 -7.5 0 1 105.13 78.20
  L 105.32 78.18
  A 0.93 0.93 0.0 0 1 106.36 78.98
  L 106.84 82.61
  Z"
/>
<path fill="#49545f" fill-opacity="0.996" d="
  M 60.90 79.35
  L 59.80 80.87
  A 0.41 0.41 0.0 0 1 59.09 80.48
  Q 59.25 80.07 60.62 79.07
  A 0.20 0.20 0.0 0 1 60.90 79.35
  Z"
/>
<path fill="#f1f5f5" fill-opacity="0.996" d="
  M 96.64 83.35
  A 0.88 0.88 0.0 0 1 95.76 84.23
  L 95.08 84.23
  A 9.40 2.24 0.1 0 1 85.68 81.97
  L 85.68 81.79
  A 9.40 2.24 0.1 0 1 95.08 79.57
  L 95.76 79.57
  A 0.88 0.88 0.0 0 1 96.64 80.45
  L 96.64 83.35
  Z"
/>
<ellipse fill="#5a6572" fill-opacity="0.996" cx="0.00" cy="0.00" transform="translate(29.85,80.50) rotate(-1.3)" rx="3.69" ry="0.44"/>
<path fill="#8ea7bb" fill-opacity="0.996" d="
  M 180.68 80.92
  Q 180.31 80.97 180.15 80.80
  A 0.43 0.39 63.0 0 1 180.34 80.09
  Q 180.72 80.04 180.89 80.35
  A 0.39 0.34 69.4 0 1 180.68 80.92
  Z"
/>
<path fill="#070d15" d="
  M 108.21 86.55
  L 107.78 86.20
  L 107.85 81.79
  L 108.11 80.76
  A 0.22 0.22 0.0 0 1 108.53 80.74
  Q 109.78 84.42 108.21 86.55
  Z"
/>
<path fill="#b1bcc1" d="
  M 175.48 84.05
  Q 175.14 84.06 174.98 84.28
  A 0.63 0.63 0.0 0 1 174.14 84.41
  Q 173.28 83.83 173.19 83.22
  Q 173.01 82.02 173.90 82.20
  Q 174.47 82.32 174.72 82.52
  A 0.65 0.64 -59.3 0 0 175.77 82.25
  L 176.24 80.81
  A 0.39 0.38 -38.7 0 1 176.99 80.89
  L 177.24 83.84
  A 0.70 0.70 0.0 0 1 176.20 84.51
  Q 176.19 84.50 176.07 84.34
  A 0.71 0.71 0.0 0 0 175.48 84.05
  Z"
/>
<ellipse fill="#778490" fill-opacity="0.996" cx="0.00" cy="0.00" transform="translate(56.93,81.63) rotate(-7.4)" rx="1.29" ry="0.69"/>
<path fill="#b1bcc1" d="
  M 181.15 82.41
  Q 181.43 83.02 179.70 83.77
  A 0.59 0.59 0.0 0 1 179.12 83.70
  Q 177.81 82.68 178.00 81.41
  A 0.63 0.63 0.0 0 1 178.72 80.88
  L 178.96 80.92
  A 0.51 0.51 0.0 0 1 179.32 81.69
  Q 179.08 82.11 179.02 82.44
  A 0.53 0.53 0.0 0 0 179.84 82.97
  L 180.83 82.32
  A 0.22 0.22 0.0 0 1 181.15 82.41
  Z"
/>
<path fill="#49545f" fill-opacity="0.996" d="
  M 23.07 82.59
  Q 23.15 82.39 23.22 82.20
  L 25.59 82.40
  A 0.18 0.18 0.0 0 1 25.65 82.75
  Q 24.21 83.42 23.07 82.59
  Z"
/>
<path fill="#5a6572" fill-opacity="0.996" d="
  M 108.83 91.57
  Q 109.25 92.05 108.83 93.01
  A 0.88 0.83 -43.5 0 0 108.80 93.59
  Q 108.98 94.16 109.39 94.11
  Q 108.77 95.93 109.86 96.35
  Q 101.93 95.03 93.91 94.06
  Q 88.98 93.47 86.95 92.15
  Q 84.04 90.26 82.28 86.65
  L 81.69 82.34
  Q 85.01 89.89 92.70 90.24
  Q 100.74 90.61 108.83 91.57
  Z"
/>
<path fill="#b1bcc1" d="
  M 171.94 85.13
  Q 171.55 85.31 171.53 85.32
  A 0.45 0.44 -13.2 0 1 170.97 84.98
  Q 170.66 83.38 171.04 83.20
  Q 171.42 83.03 172.44 84.29
  A 0.45 0.44 -37.1 0 1 172.35 84.94
  Q 172.33 84.95 171.94 85.13
  Z"
/>
<path fill="#303a46" d="
  M 80.88 94.69
  Q 81.90 99.67 80.86 104.58
  A 0.47 0.47 0.0 0 1 80.27 104.93
  Q 71.63 102.36 65.24 97.23
  Q 61.22 94.01 60.33 87.87
  L 58.68 83.12
  C 60.89 87.18 63.03 91.25 66.73 93.72
  C 70.44 96.19 75.68 99.41 80.41 98.44
  A 0.59 0.59 0.0 0 0 80.88 97.86
  L 80.88 94.69
  Z"
/>
<path fill="#142232" d="
  M 8.02 86.18
  A 0.70 0.70 0.0 0 1 8.74 85.51
  L 12.82 85.64
  A 1.70 1.55 1.9 0 1 14.47 87.25
  L 14.47 87.33
  A 1.70 1.55 1.9 0 1 12.72 88.82
  L 8.64 88.68
  A 0.70 0.70 0.0 0 1 7.96 87.96
  L 8.02 86.18
  Z"
/>
<path fill="#142232" d="
  M 39.95 87.61
  Q 48.40 88.20 56.65 87.31
  Q 51.78 88.64 50.15 88.58
  Q 34.44 88.00 19.66 88.81
  A 1.76 1.76 0.0 0 1 17.80 87.13
  L 17.78 86.89
  A 1.63 1.63 0.0 0 1 19.43 85.15
  L 31.35 85.39
  A 0.32 0.32 0.0 0 1 31.66 85.71
  L 31.66 85.97
  A 0.03 0.03 0.0 0 1 31.62 86.00
  Q 24.43 85.34 18.58 87.35
  A 0.31 0.31 0.0 0 0 18.68 87.95
  L 39.95 87.61
  Z"
/>
<path fill="#52ebf7" fill-opacity="0.996" d="
  M 144.72 85.62
  Q 145.52 88.82 144.51 93.24
  Q 143.29 87.80 144.72 85.62
  Z"
/>
<path fill="#697580" fill-opacity="0.996" d="
  M 56.65 87.31
  Q 48.40 88.20 39.95 87.61
  Q 37.61 87.53 35.60 86.98
  A 0.55 0.55 0.0 0 1 35.75 85.90
  L 56.83 85.90
  A 0.46 0.45 75.6 0 1 57.23 86.14
  Q 57.61 86.85 56.65 87.31
  Z"
/>
<path fill="#303a46" d="
  M 109.86 96.35
  L 143.68 96.29
  Q 143.77 96.58 143.54 96.99
  Q 140.30 97.85 138.69 97.91
  Q 125.41 98.44 112.00 97.81
  A 0.49 0.49 0.0 0 0 111.57 98.57
  C 115.28 104.04 122.38 103.82 128.34 104.03
  C 135.04 104.27 139.27 104.73 143.85 101.03
  L 143.51 107.97
  A 0.65 0.64 87.2 0 1 142.97 108.57
  C 136.29 109.63 129.50 108.66 122.78 108.02
  Q 117.28 107.50 112.20 105.53
  A 9.62 9.55 54.3 0 0 108.33 104.88
  Q 100.50 105.18 92.42 103.91
  Q 85.02 102.73 82.33 94.69
  A 1.68 1.55 38.0 0 1 82.23 94.08
  L 82.28 86.65
  Q 84.04 90.26 86.95 92.15
  Q 88.98 93.47 93.91 94.06
  Q 101.93 95.03 109.86 96.35
  Z"
/>
<path fill="#070d15" d="
  M 171.54 87.38
  Q 171.53 87.41 171.51 87.44
  Q 180.31 92.54 189.99 96.03
  L 190.05 113.58
  A 2.34 2.34 0.0 0 1 187.73 115.93
  Q 182.03 115.96 176.21 114.50
  Q 172.13 113.48 168.82 110.62
  Q 168.88 109.23 169.40 107.70
  A 4.37 4.30 55.9 0 0 169.64 106.40
  L 169.76 100.06
  L 170.07 87.27
  L 171.54 87.38
  Z"
/>
<path fill="#697580" fill-opacity="0.996" d="
  M 171.51 87.44
  Q 171.53 87.41 171.54 87.38
  Q 172.18 87.04 172.74 87.26
  A 0.33 0.33 0.0 0 1 172.66 87.89
  Q 172.17 87.96 171.51 87.44
  Z"
/>
<path fill="#2fc5f9" fill-opacity="0.996" d="
  M 144.29 96.25
  L 143.68 96.29
  L 109.86 96.35
  Q 108.77 95.93 109.39 94.11
  L 143.93 94.14
  A 0.75 0.75 0.0 0 1 144.64 94.65
  Q 144.91 95.46 144.29 96.25
  Z"
/>
<path fill="#2fc5f9" fill-opacity="0.996" d="
  M 164.83 93.99
  L 164.94 96.69
  Q 162.69 96.01 162.20 96.48
  Q 153.61 96.25 146.21 96.40
  Q 145.95 96.41 145.83 96.28
  Q 145.70 96.15 145.59 95.92
  Q 145.30 94.73 145.76 94.26
  A 0.39 0.37 20.1 0 1 146.04 94.14
  L 164.83 93.99
  Z"
/>
<path fill="#49545f" fill-opacity="0.996" d="
  M 164.94 96.69
  Q 165.66 108.17 155.04 106.21
  Q 151.33 105.53 148.68 103.78
  Q 146.53 102.37 147.01 99.16
  A 1.27 1.26 4.8 0 1 148.30 98.08
  Q 153.17 98.20 157.50 97.97
  Q 160.55 97.81 162.20 96.48
  Q 162.69 96.01 164.94 96.69
  Z"
/>
<path fill="#5a6572" fill-opacity="0.996" d="
  M 143.54 96.99
  Q 143.83 96.85 143.98 97.15
  A 0.35 0.28 -65.3 0 1 144.02 97.31
  L 143.85 101.03
  C 139.27 104.73 135.04 104.27 128.34 104.03
  C 122.38 103.82 115.28 104.04 111.57 98.57
  A 0.49 0.49 0.0 0 1 112.00 97.81
  Q 125.41 98.44 138.69 97.91
  Q 140.30 97.85 143.54 96.99
  Z"
/>
<rect fill="#778490" fill-opacity="0.996" x="35.16" y="99.10" width="20.92" height="1.30" rx="0.53"/>
<rect fill="#303a46" x="-3.09" y="-0.56" transform="translate(11.08,100.53) rotate(-1.2)" width="6.18" height="1.12" rx="0.54"/>
<path fill="#3567a6" fill-opacity="0.996" d="
  M 83.65 104.07
  Q 84.36 107.41 83.05 110.67
  A 2.06 1.96 -38.9 0 0 82.92 111.65
  Q 83.10 113.10 81.80 114.92
  A 0.27 0.26 -27.2 0 1 81.32 114.77
  Q 81.32 114.60 81.72 114.06
  C 82.28 113.32 81.68 112.08 82.50 111.06
  A 2.12 2.12 0.0 0 0 82.96 109.83
  Q 83.14 104.46 83.26 104.05
  A 0.20 0.20 0.0 0 1 83.65 104.07
  Z"
/>
<path fill="#13181f" d="
  M 59.96 103.91
  L 61.27 106.66
  Q 66.95 114.09 76.57 117.03
  Q 79.41 117.90 88.37 118.74
  Q 96.94 119.55 105.25 121.71
  Q 94.42 122.72 82.88 120.63
  C 76.44 119.46 71.43 116.44 65.27 113.14
  Q 61.43 111.09 58.36 108.06
  A 1.04 1.03 38.1 0 1 58.20 106.78
  L 59.96 103.91
  Z"
/>
<path fill="#49545f" fill-opacity="0.996" d="
  M 61.27 106.66
  L 59.96 103.91
  Q 61.38 104.72 62.16 106.52
  A 1.91 1.91 0.0 0 0 63.01 107.46
  L 68.91 110.61
  A 0.04 0.03 -68.9 0 1 68.92 110.65
  Q 68.78 110.92 68.53 110.83
  Q 64.15 109.21 61.27 106.66
  Z"
/>
<path fill="#3567a6" fill-opacity="0.996" d="
  M 72.13 111.84
  Q 71.57 111.73 71.39 111.61
  A 0.24 0.23 -29.6 0 1 71.51 111.18
  Q 71.87 111.16 72.29 111.46
  A 0.21 0.21 0.0 0 1 72.13 111.84
  Z"
/>
<path fill="#49545f" fill-opacity="0.996" d="
  M 74.43 112.82
  Q 74.14 112.80 73.82 112.56
  A 0.27 0.26 -17.8 0 1 74.06 112.10
  Q 74.44 112.22 74.62 112.43
  A 0.24 0.24 0.0 0 1 74.43 112.82
  Z"
/>
<path fill="#13181f" d="
  M 69.49 124.22
  Q 68.54 125.16 68.39 126.10
  L 61.85 132.22
  L 48.69 121.61
  Q 47.16 120.89 46.60 118.16
  Q 46.55 117.93 46.34 117.89
  A 0.18 0.18 0.0 0 0 46.14 118.11
  L 46.82 120.94
  Q 40.90 120.90 34.80 120.92
  Q 29.85 120.94 27.89 119.88
  Q 24.89 118.26 23.68 114.43
  Q 34.54 114.67 45.14 115.03
  Q 47.89 115.13 51.17 117.19
  C 55.36 119.82 57.19 127.34 63.77 126.62
  Q 66.13 126.37 69.49 124.22
  Z
  M 45.8129 117.1266
  A 1.05 0.42 75.5 0 0 45.9566 116.0048
  A 1.05 0.42 75.5 0 0 45.2871 115.0934
  A 1.05 0.42 75.5 0 0 45.1434 116.2152
  A 1.05 0.42 75.5 0 0 45.8129 117.1266
  Z"
/>
<ellipse fill="#3567a6" fill-opacity="0.996" cx="0.00" cy="0.00" transform="translate(45.55,116.11) rotate(75.5)" rx="1.05" ry="0.42"/>
<path fill="#3567a6" fill-opacity="0.996" d="
  M 140.02 117.45
  L 141.50 115.43
  A 0.15 0.14 -27.5 0 1 141.76 115.51
  Q 141.82 117.03 140.27 117.75
  A 0.20 0.20 0.0 0 1 140.02 117.45
  Z"
/>
<path fill="#3567a6" fill-opacity="0.996" d="
  M 162.81 119.52
  L 160.91 120.41
  Q 159.30 118.31 161.53 116.30
  A 0.18 0.17 -49.5 0 1 161.74 116.28
  L 162.55 116.75
  A 0.38 0.37 -61.0 0 1 162.69 117.26
  L 161.99 118.47
  A 0.52 0.51 -60.8 0 0 162.19 119.19
  L 162.81 119.52
  Z"
/>
<ellipse fill="#49545f" fill-opacity="0.996" cx="0.00" cy="0.00" transform="translate(151.07,117.59) rotate(1.0)" rx="5.03" ry="0.29"/>
<path fill="#2fc5f9" fill-opacity="0.996" d="
  M 48.69 121.61
  Q 49.49 124.30 52.12 128.93
  Q 54.70 133.48 57.18 135.92
  A 0.52 0.52 0.0 0 0 57.90 135.93
  L 61.85 132.22
  L 68.39 126.10
  L 68.86 126.14
  L 63.23 132.73
  L 59.14 137.16
  A 0.85 0.85 0.0 0 0 59.14 138.30
  Q 69.08 149.13 83.45 152.97
  Q 87.18 154.37 91.81 154.00
  Q 109.53 154.23 122.37 141.86
  Q 128.93 136.29 133.40 128.94
  A 0.21 0.20 29.7 0 1 133.68 128.87
  L 133.69 128.88
  A 0.21 0.20 -60.3 0 1 133.76 129.16
  Q 129.88 135.69 124.44 141.02
  L 120.93 144.60
  A 2.33 1.80 -78.8 0 1 120.70 144.80
  Q 114.46 149.41 108.85 151.84
  Q 99.50 155.90 88.52 154.69
  Q 85.86 154.40 83.74 154.42
  Q 73.83 152.53 65.84 146.16
  Q 62.37 143.40 59.06 140.56
  L 56.15 137.31
  Q 50.30 129.96 46.82 120.94
  L 46.14 118.11
  A 0.18 0.18 0.0 0 1 46.34 117.89
  Q 46.55 117.93 46.60 118.16
  Q 47.16 120.89 48.69 121.61
  Z"
/>
<path fill="#142232" d="
  M 68.86 126.14
  L 68.39 126.10
  Q 68.54 125.16 69.49 124.22
  Q 70.20 123.41 71.11 123.05
  A 0.22 0.22 0.0 0 1 71.35 123.40
  L 68.86 126.14
  Z"
/>
<path fill="#3567a6" fill-opacity="0.996" d="
  M 97.69 141.36
  L 89.44 141.65
  Q 81.73 140.65 75.20 136.48
  A 0.30 0.30 0.0 0 1 75.34 135.93
  Q 75.93 135.91 76.41 136.31
  Q 80.62 139.25 85.77 139.97
  Q 87.51 140.22 89.09 140.75
  A 2.72 2.62 53.6 0 0 89.97 140.90
  Q 97.35 140.95 102.69 139.41
  Q 111.92 136.75 118.34 129.30
  L 121.55 126.33
  A 0.19 0.19 0.0 0 1 121.87 126.44
  Q 121.94 126.88 121.42 126.87
  Q 121.32 126.87 121.07 127.13
  Q 115.10 133.47 113.79 134.54
  Q 107.64 139.59 97.69 141.36
  Z"
/>
<ellipse fill="#3567a6" fill-opacity="0.996" cx="0.00" cy="0.00" transform="translate(134.51,127.52) rotate(130.5)" rx="0.68" ry="0.35"/>
<path fill="#1f3042" fill-opacity="0.996" d="
  M 118.34 129.30
  Q 111.92 136.75 102.69 139.41
  Q 97.35 140.95 89.97 140.90
  A 2.72 2.62 53.6 0 1 89.09 140.75
  Q 87.51 140.22 85.77 139.97
  Q 80.62 139.25 76.41 136.31
  C 78.49 136.49 80.75 136.54 82.66 137.03
  Q 88.68 138.58 90.51 138.55
  Q 96.34 138.45 100.92 137.49
  C 106.24 136.38 112.78 132.04 118.34 129.30
  Z"
/>
<path fill="#3567a6" fill-opacity="0.996" d="
  M 56.15 137.31
  L 59.06 140.56
  Q 56.55 140.55 54.91 142.42
  Q 48.54 149.71 41.86 156.68
  A 0.53 0.52 -47.4 0 1 41.14 156.72
  L 40.89 156.50
  A 0.24 0.24 0.0 0 1 40.86 156.17
  L 56.15 137.31
  Z"
/>
<path fill="#142232" d="
  M 122.37 141.86
  Q 109.53 154.23 91.81 154.00
  Q 91.93 147.78 89.44 141.65
  L 97.69 141.36
  L 111.66 148.32
  A 1.17 1.16 -74.7 0 0 113.34 147.36
  L 113.71 142.13
  A 0.74 0.74 0.0 0 1 114.51 141.45
  L 119.17 141.78
  A 0.68 0.68 0.0 0 0 119.79 140.73
  L 118.08 138.12
  A 0.39 0.38 56.3 0 1 118.18 137.59
  L 118.52 137.37
  A 0.16 0.15 -34.1 0 1 118.72 137.40
  L 122.37 141.86
  Z
  M 115.5630 145.5850
  A 1.90 1.29 99.3 0 0 117.1430 143.9185
  A 1.90 1.29 99.3 0 0 116.1770 141.8350
  A 1.90 1.29 99.3 0 0 114.5970 143.5015
  A 1.90 1.29 99.3 0 0 115.5630 145.5850
  Z"
/>
<path fill="#13181f" d="
  M 137.00 138.40
  L 133.56 144.40
  Q 133.70 143.96 133.34 144.02
  A 0.18 0.15 10.5 0 0 133.22 144.09
  Q 132.89 144.46 132.80 144.94
  L 131.35 146.28
  A 1.55 1.43 87.7 0 0 131.12 146.55
  L 110.22 175.03
  A 3.21 2.96 87.6 0 1 109.89 175.42
  Q 107.51 177.82 107.10 179.42
  Q 106.20 182.98 107.82 188.24
  A 1.53 0.99 -66.6 0 1 107.87 188.54
  L 107.98 191.95
  A 0.78 0.78 0.0 0 1 107.20 192.76
  L 73.78 192.76
  A 1.71 1.71 0.0 0 1 72.09 190.81
  L 73.30 182.03
  A 1.36 1.05 -37.5 0 1 73.37 181.77
  L 75.27 177.22
  A 9.19 8.78 -19.2 0 1 75.94 175.91
  Q 82.19 166.04 83.87 161.16
  Q 84.65 158.90 83.74 154.42
  Q 85.86 154.40 88.52 154.69
  Q 99.50 155.90 108.85 151.84
  Q 114.46 149.41 120.70 144.80
  A 2.33 1.80 -78.8 0 0 120.93 144.60
  L 124.44 141.02
  Q 130.79 141.21 137.00 138.40
  Z
  M 108.16 155.04
  Q 105.95 154.48 105.60 156.04
  Q 105.47 156.60 105.17 156.76
  Q 104.59 157.06 104.46 157.27
  A 0.40 0.40 0.0 0 0 105.07 157.77
  Q 106.65 156.26 108.20 155.56
  A 0.28 0.28 0.0 0 0 108.16 155.04
  Z
  M 83.15 172.29
  Q 83.21 172.69 83.51 172.75
  C 84.02 172.85 84.11 172.30 83.85 172.01
  A 0.41 0.38 20.8 0 0 83.15 172.29
  Z
  M 80.34 175.80
  A 0.71 0.51 19.2 0 0 81.37 175.49
  Q 81.36 175.35 80.97 175.04
  Q 80.58 174.75 80.28 175.12
  Q 79.92 175.55 80.34 175.80
  Z
  M 87.3259 179.8839
  A 1.02 0.52 48.5 0 0 87.0395 178.7754
  A 1.02 0.52 48.5 0 0 85.9741 178.3561
  A 1.02 0.52 48.5 0 0 86.2605 179.4646
  A 1.02 0.52 48.5 0 0 87.3259 179.8839
  Z
  M 104.95 185.55
  A 0.40 0.40 0.0 0 0 104.55 185.15
  A 0.40 0.40 0.0 0 0 104.15 185.55
  A 0.40 0.40 0.0 0 0 104.55 185.95
  A 0.40 0.40 0.0 0 0 104.95 185.55
  Z
  M 106.1595 189.3196
  A 0.35 0.35 0.0 0 0 105.8077 188.9714
  L 75.7881 189.1286
  A 0.35 0.35 0.0 0 0 75.4399 189.4804
  L 75.4405 189.5804
  A 0.35 0.35 0.0 0 0 75.7923 189.9286
  L 105.8119 189.7714
  A 0.35 0.35 0.0 0 0 106.1601 189.4196
  L 106.1595 189.3196
  Z"
/>
<ellipse fill="#2fc5f9" fill-opacity="0.996" cx="0.00" cy="0.00" transform="translate(115.87,143.71) rotate(99.3)" rx="1.90" ry="1.29"/>
<path fill="#49545f" fill-opacity="0.996" d="
  M 133.56 144.40
  L 142.77 155.90
  A 0.58 0.57 51.0 0 1 142.69 156.71
  L 142.67 156.73
  A 0.60 0.60 0.0 0 1 141.84 156.64
  L 133.48 146.58
  A 2.03 1.95 -75.8 0 1 133.18 146.05
  L 132.80 144.94
  Q 132.89 144.46 133.22 144.09
  A 0.18 0.15 10.5 0 1 133.34 144.02
  Q 133.70 143.96 133.56 144.40
  Z"
/>
<path fill="#8498a8" fill-opacity="0.996" d="
  M 108.16 155.04
  A 0.28 0.28 0.0 0 1 108.20 155.56
  Q 106.65 156.26 105.07 157.77
  A 0.40 0.40 0.0 0 1 104.46 157.27
  Q 104.59 157.06 105.17 156.76
  Q 105.47 156.60 105.60 156.04
  Q 105.95 154.48 108.16 155.04
  Z"
/>
<path fill="#303a46" d="
  M 83.15 172.29
  A 0.41 0.38 20.8 0 1 83.85 172.01
  C 84.11 172.30 84.02 172.85 83.51 172.75
  Q 83.21 172.69 83.15 172.29
  Z"
/>
<path fill="#8498a8" fill-opacity="0.996" d="
  M 80.34 175.80
  Q 79.92 175.55 80.28 175.12
  Q 80.58 174.75 80.97 175.04
  Q 81.36 175.35 81.37 175.49
  A 0.71 0.51 19.2 0 1 80.34 175.80
  Z"
/>
<ellipse fill="#49545f" fill-opacity="0.996" cx="0.00" cy="0.00" transform="translate(86.65,179.12) rotate(48.5)" rx="1.02" ry="0.52"/>
<circle fill="#8ea7bb" fill-opacity="0.996" cx="104.55" cy="185.55" r="0.40"/>
<rect fill="#49545f" fill-opacity="0.996" x="-15.36" y="-0.40" transform="translate(90.80,189.45) rotate(-0.3)" width="30.72" height="0.80" rx="0.35"/>
</svg>
